<?xml version="1.0" standalone="no"?>
<!DOCTYPE svg PUBLIC "-//W3C//DTD SVG 1.1//EN" "http://www.w3.org/Graphics/SVG/1.1/DTD/svg11.dtd" >
<svg>
<metadata>
Created by FontForge 20090622 at Wed Aug 21 06:55:49 2019
 By deploy user
Copyright (c) 2014 by Hannes von Doehren, Livius Dietzel. All rights reserved.
</metadata>
<defs>
<font id="BrixSansBold" horiz-adv-x="560" >
  <font-face 
    font-family="Brix Sans Bold"
    font-weight="700"
    font-stretch="normal"
    units-per-em="1000"
    panose-1="2 0 0 0 0 0 0 0 0 0"
    ascent="720"
    descent="-280"
    x-height="456"
    cap-height="676"
    bbox="-153 -227 1159 992"
    underline-thickness="50"
    underline-position="-50"
    unicode-range="U+0020-U+FB02"
  />
<missing-glyph horiz-adv-x="513" 
d="M50 0v656h413v-656h-413zM88 38h337v580h-337v-580z" />
    <glyph glyph-name="fi" unicode="fi" horiz-adv-x="577" 
d="M402 0v353h-190v-353h-121v353h-72v93l72 10v68q0 166 166 166h64v-103h-57q-52 0 -52 -64v-67h311v-456h-121zM461 542q-74 0 -74 70q0 36 20.5 54t53.5 18q30 0 51 -18.5t21 -53.5q0 -36 -20.5 -53t-51.5 -17z" />
    <glyph glyph-name="fl" unicode="fl" horiz-adv-x="597" 
d="M321 690v-103h-57q-52 0 -52 -64v-67h118v-103h-118v-353h-121v353h-72v93l72 10v68q0 166 166 166h64zM395 690h121v-542q0 -22 8.5 -31.5t30.5 -9.5h22v-112h-62q-120 0 -120 135v560z" />
    <glyph glyph-name="f_f" unicode="ff" horiz-adv-x="651" 
d="M628 690v-103h-57q-52 0 -52 -64v-67h118v-103h-118v-353h-121v353h-186v-353h-121v353h-72v93l72 10v68q0 166 166 166h64v-103h-57q-52 0 -52 -64v-67h186v68q0 166 166 166h64z" />
    <glyph glyph-name=".notdef" horiz-adv-x="513" 
d="M50 0v656h413v-656h-413zM88 38h337v580h-337v-580z" />
    <glyph glyph-name=".null" horiz-adv-x="0" 
 />
    <glyph glyph-name=".null" horiz-adv-x="0" 
 />
    <glyph glyph-name="nonmarkingreturn" horiz-adv-x="333" 
 />
    <glyph glyph-name="space" unicode=" " horiz-adv-x="193" 
 />
    <glyph glyph-name="exclam" unicode="!" horiz-adv-x="249" 
d="M175 225h-102l-21 451h146zM125 -6q-35 0 -58 21.5t-23 53.5q0 33 23 55t58 22q34 0 56.5 -22t22.5 -55q0 -32 -22.5 -53.5t-56.5 -21.5z" />
    <glyph glyph-name="quotedbl" unicode="&#x22;" horiz-adv-x="383" 
d="M234 432l-9 244h112l-12 -244h-91zM58 432l-12 244h115l-12 -244h-91z" />
    <glyph glyph-name="numbersign" unicode="#" horiz-adv-x="645" 
d="M128 172h-98l17 107h99l18 127h-97l16 107h98l24 163h117l-26 -163h101l25 163h116l-24 -163h101l-17 -107h-101l-19 -127h101l-16 -107h-103l-26 -172h-117l28 172h-100l-27 -172h-118zM279 406l-18 -127h101l19 127h-102z" />
    <glyph glyph-name="dollar" unicode="$" horiz-adv-x="550" 
d="M320 -103h-74v93q-159 8 -217 123l90 74q40 -78 127 -85v183l-29 9q-159 50 -159 187q0 78 46.5 135t141.5 68v75h74v-74q126 -9 188 -99l-90 -72q-34 49 -98 59v-183l29 -8q166 -52 166 -186q0 -86 -53 -139t-142 -65v-95zM381 186q0 53 -61 77v-156q61 17 61 79z
M191 489q0 -53 55 -76v155q-55 -19 -55 -79z" />
    <glyph glyph-name="percent" unicode="%" horiz-adv-x="844" 
d="M670 676l-403 -676h-95l400 676h98zM657 65q36 0 50 28t14 89q0 62 -14 90t-50 28q-35 0 -49.5 -28t-14.5 -90q0 -61 14.5 -89t49.5 -28zM657 371q156 0 156 -189q0 -188 -156 -188t-156 188q0 189 156 189zM186 376q36 0 50 28t14 89q0 62 -14 90t-50 28
q-35 0 -49.5 -28t-14.5 -90q0 -61 14.5 -89t49.5 -28zM186 682q156 0 156 -189q0 -188 -156 -188t-156 188q0 189 156 189z" />
    <glyph glyph-name="ampersand" unicode="&#x26;" horiz-adv-x="648" 
d="M515 363l85 -64l-84 -115l-19 -27l138 -148v-9h-136l-70 77q-90 -88 -207 -88q-88 0 -139.5 45.5t-51.5 117.5q0 44 24 84t49 61.5t65 49.5l8 5l-11 13l-10 10q-9 10 -11 12t-11 12.5t-11.5 14.5t-10 14t-10.5 16.5t-8 16.5t-7 18.5t-4 18.5t-2 20q0 72 53.5 120.5
t143.5 48.5q83 0 136.5 -49t53.5 -120q0 -48 -31.5 -88t-93.5 -87l-12 -8l91 -98l11 15zM222 91q71 0 134 65l-109 119l-14 -10l-15.5 -12t-15 -11.5t-13 -10.5t-13 -11.5l-10 -10.5t-9 -12l-6 -12t-4.5 -14t-1 -15q0 -28 22 -46.5t54 -18.5zM196 518q0 -40 54 -96l10 -11
l16 11q41 31 59 51t18 45q0 27 -21 47t-54 20q-37 0 -59.5 -20t-22.5 -47z" />
    <glyph glyph-name="quotesingle" unicode="'" horiz-adv-x="205" 
d="M57 432l-10 244h112l-11 -244h-91z" />
    <glyph glyph-name="parenleft" unicode="(" horiz-adv-x="290" 
d="M274 -186l-91 -36q-147 214 -147 463q0 136 37 242t110 221l93 -36q-113 -229 -113 -427q0 -115 26.5 -215.5t84.5 -211.5z" />
    <glyph glyph-name="parenright" unicode=")" horiz-adv-x="290" 
d="M17 -186q57 111 83.5 211t26.5 216q0 200 -112 427l91 36q73 -115 110.5 -221t37.5 -242q0 -250 -148 -463z" />
    <glyph glyph-name="asterisk" unicode="*" horiz-adv-x="463" 
d="M135 303l-71 65l92 106l-123 18l27 107l124 -42l-9 139h113l-8 -138l130 35l21 -106l-124 -15l83 -106l-89 -63l-76 118z" />
    <glyph glyph-name="plus" unicode="+" 
d="M35 218v103h186v196h115v-196h189v-103h-189v-195h-115v195h-186z" />
    <glyph glyph-name="comma" unicode="," horiz-adv-x="235" 
d="M191 147l-65 -256h-91l25 256h131z" />
    <glyph glyph-name="hyphen" unicode="-" horiz-adv-x="392" 
d="M52 322h288v-103h-288v103z" />
    <glyph glyph-name="period" unicode="." horiz-adv-x="248" 
d="M125 -6q-37 0 -61.5 23t-24.5 57q0 36 24.5 59.5t61.5 23.5q36 0 60 -23.5t24 -59.5q0 -34 -24.5 -57t-59.5 -23z" />
    <glyph glyph-name="slash" unicode="/" horiz-adv-x="383" 
d="M359 676l-210 -676h-125l208 676h127z" />
    <glyph glyph-name="zero" unicode="0" horiz-adv-x="601" 
d="M301 98q67 0 96 59t29 181t-29 181t-96 59q-68 0 -97 -59t-29 -181t29 -181t97 -59zM301 687q132 0 194.5 -91.5t62.5 -257.5q0 -165 -62.5 -257t-194.5 -92q-258 0 -258 349q0 165 63 257t195 92z" />
    <glyph glyph-name="one" unicode="1" horiz-adv-x="406" 
d="M335 0h-128v554l-172 -69l-32 100l221 91h111v-676z" />
    <glyph glyph-name="two" unicode="2" horiz-adv-x="523" 
d="M256 687q99 0 159 -57.5t60 -148.5q0 -65 -35 -121.5t-101 -126.5l-120 -128h262v-105h-434v90l206 220q90 95 90 171q0 44 -22.5 70.5t-64.5 26.5q-90 0 -90 -110h-129q0 100 56 159.5t163 59.5z" />
    <glyph glyph-name="three" unicode="3" horiz-adv-x="548" 
d="M378 345q54 -12 90.5 -56.5t36.5 -107.5q0 -86 -65 -139t-172 -53q-115 0 -172.5 51.5t-57.5 137.5h129q0 -38 26.5 -59t74.5 -21q47 0 76 24.5t29 65.5q0 49 -33 76.5t-94 27.5h-65v105h65q116 0 116 94q0 40 -25 63.5t-69 23.5t-68 -21.5t-24 -56.5h-129
q0 82 55.5 134.5t165.5 52.5q104 0 165.5 -53t61.5 -137q0 -57 -33 -99t-84 -53z" />
    <glyph glyph-name="four" unicode="4" horiz-adv-x="573" 
d="M540 238v-105h-79v-133h-128v133h-309v93l302 450h135v-438h79zM158 238h175v268z" />
    <glyph glyph-name="five" unicode="5" horiz-adv-x="530" 
d="M495 217q0 -100 -62.5 -164t-175.5 -64t-170.5 53.5t-57.5 140.5h128q0 -39 26 -62t73 -23q53 0 79.5 32.5t26.5 87.5q0 50 -27 79.5t-78 29.5q-53 0 -95 -33l-102 16l43 366h364v-105h-260l-19 -159q46 24 96 24q90 0 150.5 -54.5t60.5 -164.5z" />
    <glyph glyph-name="six" unicode="6" horiz-adv-x="567" 
d="M176 260q0 -71 29 -116.5t85 -45.5q52 0 79.5 31.5t27.5 86.5q0 53 -27.5 83.5t-79.5 30.5q-39 0 -68.5 -20t-45.5 -50zM388 500q0 36 -24 57t-66 21q-63 0 -93 -54t-30 -147q22 22 62 39.5t87 17.5q95 0 150.5 -58.5t55.5 -157.5q0 -98 -62 -163.5t-178 -65.5
q-84 0 -140.5 43.5t-81.5 115t-25 166.5q0 172 62.5 272.5t192.5 100.5q108 0 163 -52t55 -135h-128z" />
    <glyph glyph-name="seven" unicode="7" horiz-adv-x="485" 
d="M80 0l242 571h-295v105h439v-90l-247 -586h-139z" />
    <glyph glyph-name="eight" unicode="8" horiz-adv-x="577" 
d="M289 -11q-113 0 -179.5 51.5t-66.5 144.5q0 63 34.5 105t89.5 57q-51 16 -81 54t-30 94q0 89 62 140.5t171 51.5t170.5 -51.5t61.5 -140.5q0 -56 -30 -94t-80 -54q54 -15 88.5 -56.5t34.5 -105.5q0 -93 -66 -144.5t-179 -51.5zM288 578q-46 0 -73 -23t-27 -66
q0 -44 28 -67t72 -23q45 0 73 23t28 67q0 43 -27 66t-74 23zM288 98q53 0 83.5 25t30.5 72q0 48 -31.5 73.5t-82.5 25.5q-50 0 -81.5 -25.5t-31.5 -73.5q0 -46 30.5 -71.5t82.5 -25.5z" />
    <glyph glyph-name="nine" unicode="9" horiz-adv-x="568" 
d="M392 415q0 72 -28.5 117.5t-84.5 45.5q-53 0 -80.5 -31.5t-27.5 -86.5q0 -53 28 -83.5t80 -30.5q74 0 113 69zM52 176h129q0 -36 23.5 -57t64.5 -21q124 0 124 202q-23 -23 -62.5 -40.5t-86.5 -17.5q-94 0 -150 58.5t-56 157.5q0 98 62.5 163.5t178.5 65.5q124 0 185 -89
t61 -236q0 -172 -62 -272.5t-194 -100.5q-108 0 -162.5 52.5t-54.5 134.5z" />
    <glyph glyph-name="colon" unicode=":" horiz-adv-x="257" 
d="M129 -6q-35 0 -57.5 21.5t-22.5 53.5q0 33 22.5 55t57.5 22q34 0 56.5 -22t22.5 -55q0 -32 -22.5 -53.5t-56.5 -21.5zM129 314q-35 0 -57.5 21.5t-22.5 54.5t22.5 54.5t57.5 21.5q34 0 56.5 -21.5t22.5 -54.5t-22.5 -54.5t-56.5 -21.5z" />
    <glyph glyph-name="semicolon" unicode=";" horiz-adv-x="252" 
d="M129 314q-34 0 -56.5 21.5t-22.5 54.5t22.5 54.5t56.5 21.5t56.5 -21.5t22.5 -54.5t-22.5 -54.5t-56.5 -21.5zM197 147l-64 -256h-91l25 256h130z" />
    <glyph glyph-name="less" unicode="&#x3c;" 
d="M59 208v124l427 159v-110l-325 -112l325 -111v-110z" />
    <glyph glyph-name="equal" unicode="=" 
d="M66 440h427v-103h-427v103zM66 204h427v-104h-427v104z" />
    <glyph glyph-name="greater" unicode="&#x3e;" 
d="M500 332v-124l-426 -160v110l325 111l-325 112v110z" />
    <glyph glyph-name="question" unicode="?" horiz-adv-x="452" 
d="M211 -6q-34 0 -56.5 21.5t-22.5 53.5q0 33 22.5 55t56.5 22t57 -22t23 -55q0 -32 -23 -53.5t-57 -21.5zM216 686q97 0 152 -50t55 -127q0 -47 -23.5 -87t-51.5 -64.5t-51.5 -59.5t-23.5 -73h-124q0 42 15.5 77.5t38 60.5t44.5 47t37.5 46.5t15.5 49.5q0 30 -20 49.5
t-56 19.5q-38 0 -58 -18.5t-20 -45.5l-117 12q0 70 47 116.5t140 46.5z" />
    <glyph glyph-name="at" unicode="@" horiz-adv-x="908" 
d="M537 323q-38 29 -80 29q-50 0 -80.5 -49t-30.5 -114q0 -82 64 -82q56 0 93 34zM523 71q-33 -28 -64.5 -43.5t-75.5 -15.5q-68 0 -105 42.5t-37 125.5q0 105 57 184.5t142 79.5q68 0 109 -43l7 34h101l-44 -256q-9 -43 -3 -67t32 -24q52 0 90.5 64.5t38.5 184.5
q0 106 -65 169.5t-203 63.5q-89 0 -161 -32.5t-117 -86.5t-69 -122.5t-24 -144.5q0 -274 269 -274q106 0 184 36l20 -82q-97 -44 -204 -44q-183 0 -274 97t-91 268q0 129 54.5 236t162.5 173t250 66q180 0 272 -90.5t92 -232.5q0 -150 -69.5 -243.5t-167.5 -93.5
q-90 0 -107 71z" />
    <glyph glyph-name="A" unicode="A" horiz-adv-x="621" 
d="M482 0l-49 153h-245l-49 -153h-140l236 676h151l237 -676h-141zM311 541l-90 -280h180z" />
    <glyph glyph-name="B" unicode="B" horiz-adv-x="594" 
d="M67 0v676h234q223 0 223 -178q0 -108 -96 -141q56 -13 93.5 -55t37.5 -110q0 -192 -255 -192h-237zM199 108h101q65 0 93.5 23t28.5 70q0 94 -122 94h-101v-187zM199 403h86q103 0 103 84q0 81 -104 81h-85v-165z" />
    <glyph glyph-name="C" unicode="C" horiz-adv-x="590" 
d="M176 337q0 -235 164 -235q82 0 127 80l100 -63q-72 -129 -232 -129q-146 0 -220.5 91t-74.5 257q0 167 74.5 257.5t220.5 90.5q160 0 232 -129l-100 -63q-45 80 -127 80q-164 0 -164 -237z" />
    <glyph glyph-name="D" unicode="D" horiz-adv-x="654" 
d="M67 0v676h213q173 0 253.5 -81t80.5 -257q0 -175 -80.5 -256.5t-253.5 -81.5h-213zM199 108h73q116 0 161 50t45 180q0 127 -45.5 178.5t-160.5 51.5h-73v-460z" />
    <glyph glyph-name="E" unicode="E" horiz-adv-x="545" 
d="M199 108h308v-108h-440v676h437v-108h-305v-174h263v-108h-263v-178z" />
    <glyph glyph-name="F" unicode="F" horiz-adv-x="521" 
d="M67 0v676h421v-108h-289v-192h243v-107h-243v-269h-132z" />
    <glyph glyph-name="G" unicode="G" horiz-adv-x="648" 
d="M341 260v108h272q5 -38 5 -65q0 -88 -27 -156.5t-91 -112.5t-159 -44q-145 0 -223 88t-78 261q0 174 80.5 260.5t234.5 86.5q77 0 136 -33t89 -90l-98 -64q-48 75 -133 75q-89 0 -131 -58t-42 -177q0 -127 40 -182.5t125 -55.5q73 0 108.5 44t35.5 115h-144z" />
    <glyph glyph-name="H" unicode="H" horiz-adv-x="682" 
d="M484 404v272h131v-676h-131v296h-285v-296h-132v676h132v-272h285z" />
    <glyph glyph-name="I" unicode="I" horiz-adv-x="266" 
d="M67 0v676h132v-676h-132z" />
    <glyph glyph-name="J" unicode="J" horiz-adv-x="484" 
d="M13 102l94 60q28 -60 91 -60q50 0 74 30.5t24 99.5v444h125v-452q0 -114 -58.5 -174t-164.5 -60q-135 0 -185 112z" />
    <glyph glyph-name="K" unicode="K" horiz-adv-x="617" 
d="M283 303l-84 -89v-214h-132v676h132v-296l257 296h157l-241 -279l240 -397h-153z" />
    <glyph glyph-name="L" unicode="L" horiz-adv-x="481" 
d="M199 108h268v-108h-400v676h132v-568z" />
    <glyph glyph-name="M" unicode="M" horiz-adv-x="856" 
d="M429 161l143 515h174l71 -676h-123l-49 523l-147 -523h-143l-138 518l-56 -518h-125l81 676h176z" />
    <glyph glyph-name="N" unicode="N" horiz-adv-x="679" 
d="M481 216v460h131v-676h-135l-278 467l1 -467h-134l1 676h140z" />
    <glyph glyph-name="O" unicode="O" horiz-adv-x="657" 
d="M176 337q0 -115 33 -175t119 -60q85 0 119 60.5t34 174.5t-34 175.5t-118 61.5t-118.5 -61.5t-34.5 -175.5zM617 337q0 -159 -70 -253t-219 -94q-150 0 -219 93.5t-69 253.5q0 161 69 255t220 94q77 0 134 -26t90 -74.5t48.5 -110t15.5 -138.5z" />
    <glyph glyph-name="P" unicode="P" horiz-adv-x="577" 
d="M304 247h-105v-247h-132v676h237q118 0 180.5 -55.5t62.5 -159.5q0 -103 -62.5 -158.5t-180.5 -55.5zM199 568v-214h95q117 0 117 107t-117 107h-95z" />
    <glyph glyph-name="Q" unicode="Q" horiz-adv-x="657" 
d="M617 337q0 -120 -40 -203l72 -66l-71 -79l-64 60q-70 -59 -186 -59q-150 0 -219 93.5t-69 253.5q0 161 69 255t220 94q77 0 134 -26t90 -74.5t48.5 -110t15.5 -138.5zM176 337q0 -115 33 -175t119 -60q61 0 96 32l-150 142l68 75l130 -120q9 47 9 106q0 114 -34 175.5
t-118 61.5t-118.5 -61.5t-34.5 -175.5z" />
    <glyph glyph-name="R" unicode="R" horiz-adv-x="603" 
d="M67 0v676h256q118 0 181 -52.5t63 -146.5q0 -71 -40.5 -121t-116.5 -69l170 -287h-148l-154 275h-79l1 -275h-133zM431 477q0 45 -27.5 68t-94.5 23h-110v-185h110q68 0 95 23t27 71z" />
    <glyph glyph-name="S" unicode="S" horiz-adv-x="544" 
d="M502 586l-90 -73q-41 61 -129 61q-45 0 -70.5 -23.5t-25.5 -61.5q0 -59 70 -81l86 -26q88 -28 126.5 -73.5t38.5 -112.5q0 -96 -67.5 -151.5t-175.5 -55.5q-176 0 -242 124l90 74q22 -41 55.5 -63.5t96.5 -22.5q51 0 79 23t28 62q0 58 -76 82l-85 26q-160 50 -160 187
q0 87 57.5 146t174.5 59q150 0 219 -100z" />
    <glyph glyph-name="T" unicode="T" horiz-adv-x="547" 
d="M27 676h493v-108h-181v-568h-132v568h-180v108z" />
    <glyph glyph-name="U" unicode="U" horiz-adv-x="644" 
d="M322 -10q-121 0 -191 66t-70 202v418h132v-415q0 -82 31 -120.5t98 -38.5t98 38.5t31 120.5v415h132v-418q0 -136 -70 -202t-191 -66z" />
    <glyph glyph-name="V" unicode="V" horiz-adv-x="605" 
d="M462 676h138l-214 -676h-168l-213 676h137l161 -541z" />
    <glyph glyph-name="W" unicode="W" horiz-adv-x="969" 
d="M409 676h150l137 -529l126 529h136l-176 -676h-162l-135 497l-136 -497h-161l-177 676h136l127 -529z" />
    <glyph glyph-name="X" unicode="X" horiz-adv-x="593" 
d="M12 676h148l136 -242l138 242h147l-198 -328l204 -348h-149l-142 254l-141 -254h-148l203 348z" />
    <glyph glyph-name="Y" unicode="Y" horiz-adv-x="591" 
d="M361 0h-132v263l-228 413h145l151 -295l147 295h146l-229 -413v-263z" />
    <glyph glyph-name="Z" unicode="Z" horiz-adv-x="522" 
d="M479 676v-95l-294 -473h305v-108h-460v93l296 475h-281v108h434z" />
    <glyph glyph-name="bracketleft" unicode="[" horiz-adv-x="328" 
d="M57 690h248v-102h-121v-702h121v-102h-248v906z" />
    <glyph glyph-name="backslash" unicode="\" horiz-adv-x="383" 
d="M235 0l-211 676h127l208 -676h-124z" />
    <glyph glyph-name="bracketright" unicode="]" horiz-adv-x="328" 
d="M23 690h248v-906h-248v102h121v702h-121v102z" />
    <glyph glyph-name="asciicircum" unicode="^" 
d="M20 440l260 260l259 -260l-81 -81l-177 178l-179 -177z" />
    <glyph glyph-name="underscore" unicode="_" horiz-adv-x="481" 
d="M41 -31h400v-79h-400v79z" />
    <glyph glyph-name="grave" unicode="`" horiz-adv-x="600" 
d="M202 696h123l73 -165h-109z" />
    <glyph glyph-name="a" unicode="a" horiz-adv-x="473" 
d="M423 0h-114v53q-55 -64 -145 -64q-60 0 -97 36t-37 97q0 138 221 153l50 4v29q0 31 -16.5 47t-56.5 16q-34 0 -52 -12t-18 -32v-18h-105q-3 15 -3 31q0 57 50.5 91.5t135.5 34.5q88 0 137.5 -38.5t49.5 -118.5v-309zM153 130q0 -49 57 -49q52 0 91 39v86l-49 -7
q-99 -14 -99 -69z" />
    <glyph glyph-name="b" unicode="b" horiz-adv-x="518" 
d="M175 690v-268q40 44 114 44q96 0 145 -61.5t49 -175.5q0 -110 -50.5 -175t-143.5 -65q-89 0 -138 49l-38 -38h-59v690h121zM360 229q0 126 -101 126q-53 0 -84 -31v-187q32 -36 84 -36q56 0 78.5 33.5t22.5 94.5z" />
    <glyph glyph-name="c" unicode="c" horiz-adv-x="448" 
d="M34 228q0 104 52 171t159 67q135 0 183 -102l-84 -60q-33 55 -89 55q-98 0 -98 -131q0 -132 98 -132q57 0 89 56l84 -61q-48 -102 -183 -102q-107 0 -159 67t-52 172z" />
    <glyph glyph-name="d" unicode="d" horiz-adv-x="519" 
d="M344 422v268h121v-690h-115v37q-50 -48 -126 -48q-90 0 -139 63t-49 177q0 113 49 175t140 62q77 0 119 -44zM159 229q0 -128 99 -128q55 0 86 31v192q-35 31 -86 31q-99 0 -99 -126z" />
    <glyph glyph-name="e" unicode="e" horiz-adv-x="472" 
d="M259 92q61 0 112 42l57 -79q-66 -66 -169 -66q-114 0 -169.5 64.5t-55.5 174.5q0 102 55.5 170t156.5 68q98 0 145.5 -57.5t47.5 -140.5q0 -49 -8 -79h-275q2 -46 28 -71.5t75 -25.5zM157 275h168q2 12 2 15q0 38 -23 58.5t-58 20.5q-43 0 -65 -26t-24 -68z" />
    <glyph glyph-name="f" unicode="f" horiz-adv-x="344" 
d="M321 690v-103h-57q-52 0 -52 -64v-67h118v-103h-118v-353h-121v353h-72v93l72 10v68q0 166 166 166h64z" />
    <glyph glyph-name="g" unicode="g" horiz-adv-x="517" 
d="M349 456h115v-484q0 -80 -56 -129.5t-151 -49.5q-91 0 -140 41.5t-49 109.5h104q0 -22 22.5 -38.5t62.5 -16.5q41 0 63 20t22 56v73q-46 -49 -113 -49q-94 0 -143.5 61.5t-49.5 178.5q0 114 50 175.5t142 61.5q74 0 121 -47v37zM158 229q0 -128 99 -128q54 0 85 31v194
q-31 29 -85 29q-99 0 -99 -126z" />
    <glyph glyph-name="h" unicode="h" horiz-adv-x="518" 
d="M54 0v690h121v-277q53 53 137 53q156 0 156 -181v-285h-121v271q0 43 -19 63.5t-64 20.5q-53 0 -89 -34v-321h-121z" />
    <glyph glyph-name="i" unicode="i" horiz-adv-x="231" 
d="M55 0v456h121v-456h-121zM114 542q-74 0 -74 70q0 36 20.5 54t53.5 18q30 0 51 -18.5t21 -53.5q0 -36 -20.5 -53t-51.5 -17z" />
    <glyph glyph-name="j" unicode="j" horiz-adv-x="232" 
d="M46 -226l-72 77q81 55 81 133v472h122v-448q0 -160 -131 -234zM115 542q-74 0 -74 70q0 36 20.5 54t53.5 18q30 0 51.5 -18.5t21.5 -53.5q0 -36 -21 -53t-52 -17z" />
    <glyph glyph-name="k" unicode="k" horiz-adv-x="493" 
d="M486 0h-135l-117 202l-59 -58v-144h-121v690h121v-404l169 170h148l-174 -170z" />
    <glyph glyph-name="l" unicode="l" horiz-adv-x="254" 
d="M51 690h121v-542q0 -22 8.5 -31.5t30.5 -9.5h22v-112h-62q-120 0 -120 135v560z" />
    <glyph glyph-name="m" unicode="m" horiz-adv-x="809" 
d="M54 0v456h117v-52q52 62 128 62q91 0 139 -67q22 28 62.5 47.5t95.5 19.5q85 0 124 -43t39 -128v-295h-122v285q0 70 -76 70q-56 0 -92 -34v-321h-121v311q-26 44 -84 44q-46 0 -89 -34v-321h-121z" />
    <glyph glyph-name="n" unicode="n" horiz-adv-x="517" 
d="M54 0v456h117v-52q44 62 141 62q156 0 156 -181v-285h-122v271q0 43 -19 63.5t-63 20.5q-53 0 -89 -34v-321h-121z" />
    <glyph glyph-name="o" unicode="o" horiz-adv-x="499" 
d="M251 466q104 0 159 -65t55 -172q0 -110 -55 -175t-163 -65q-104 0 -158.5 66t-54.5 172q0 109 54.5 174t162.5 65zM249 98q92 0 92 129q0 130 -93 130q-91 0 -91 -128q0 -131 92 -131z" />
    <glyph glyph-name="p" unicode="p" horiz-adv-x="522" 
d="M175 33v-249h-121v672h115v-38q50 48 128 48q91 0 140.5 -63t49.5 -177q0 -113 -49.5 -175t-141.5 -62q-77 0 -121 44zM363 226q0 129 -100 129q-56 0 -88 -32v-192q36 -30 87 -30q101 0 101 125z" />
    <glyph glyph-name="q" unicode="q" horiz-adv-x="513" 
d="M338 -216v249q-40 -44 -111 -44q-95 0 -143.5 61.5t-48.5 175.5q0 110 50 175t142 65q86 0 135 -49l38 39h59v-672h-121zM158 226q0 -125 98 -125q52 0 82 30v187q-33 37 -82 37q-55 0 -76.5 -34t-21.5 -95z" />
    <glyph glyph-name="r" unicode="r" horiz-adv-x="357" 
d="M170 384h1q46 82 122 82q29 0 52 -6l-9 -128q-38 9 -73 9q-59 0 -88 -54v-287h-121v456h116v-72z" />
    <glyph glyph-name="s" unicode="s" horiz-adv-x="436" 
d="M398 399l-67 -71q-47 47 -110 47q-30 0 -46 -12.5t-16 -31.5q0 -34 42 -43l76 -18q130 -29 130 -135q0 -62 -47.5 -104t-150.5 -42q-124 0 -186 77l69 72q55 -59 122 -59q32 0 51 11.5t19 33.5q0 33 -46 43l-79 19q-120 30 -120 133q0 58 46 102.5t141 44.5
q111 0 172 -67z" />
    <glyph glyph-name="t" unicode="t" horiz-adv-x="352" 
d="M220 354v-204q0 -49 50 -49q27 0 54 8l2 -105q-38 -15 -97 -15q-67 0 -98.5 39t-31.5 105v221h-83v92l83 10v111l121 19v-130h102v-102h-102z" />
    <glyph glyph-name="u" unicode="u" horiz-adv-x="517" 
d="M463 456v-456h-117v52q-44 -62 -141 -62q-156 0 -156 181v285h122v-271q0 -43 19 -63.5t63 -20.5q53 0 89 34v321h121z" />
    <glyph glyph-name="v" unicode="v" horiz-adv-x="494" 
d="M355 456h130l-164 -456h-146l-167 456h131l109 -338z" />
    <glyph glyph-name="w" unicode="w" horiz-adv-x="768" 
d="M327 456h114l98 -328l92 328h125l-140 -456h-132l-100 302l-99 -302h-133l-140 456h124l94 -328z" />
    <glyph glyph-name="x" unicode="x" horiz-adv-x="482" 
d="M318 228l151 -228h-139l-88 147l-91 -147h-139l153 229l-153 227h139l90 -147l90 147h138z" />
    <glyph glyph-name="y" unicode="y" horiz-adv-x="489" 
d="M140 456l111 -297l102 297h130l-267 -672h-123l98 236l-187 436h136z" />
    <glyph glyph-name="z" unicode="z" horiz-adv-x="418" 
d="M381 456v-79l-196 -274h195v-103h-347v79l198 274h-189v103h339z" />
    <glyph glyph-name="braceleft" unicode="{" horiz-adv-x="318" 
d="M228 548v-193q0 -106 -85 -118q85 -10 85 -116v-195q0 -28 13.5 -39t42.5 -11v-92q-96 0 -139 32t-43 110v183q0 82 -94 82v92q47 0 70.5 19t23.5 66v180q0 77 43.5 109.5t138.5 32.5v-92q-29 0 -42.5 -11t-13.5 -39z" />
    <glyph glyph-name="bar" unicode="|" horiz-adv-x="194" 
d="M137 -216h-80v906h80v-906z" />
    <glyph glyph-name="braceright" unicode="}" horiz-adv-x="318" 
d="M90 355v193q0 28 -13.5 39t-42.5 11v92q95 0 138.5 -32.5t43.5 -109.5v-180q0 -47 23.5 -66t70.5 -19v-92q-94 0 -94 -82v-183q0 -78 -43 -110t-139 -32v92q29 0 42.5 11t13.5 39v195q0 106 85 116q-85 12 -85 118z" />
    <glyph glyph-name="asciitilde" unicode="~" 
d="M465 332l-2 -118q-48 31 -89 31q-29 0 -91.5 -31.5t-101.5 -31.5q-47 0 -86 26v119q41 -31 81 -31q28 0 89 31.5t108 31.5q50 0 92 -27z" />
    <glyph glyph-name="uni00A0" unicode="&#xa0;" horiz-adv-x="193" 
 />
    <glyph glyph-name="exclamdown" unicode="&#xa1;" horiz-adv-x="239" 
d="M70 234h101l21 -450h-146zM120 466q34 0 56.5 -21.5t22.5 -54.5t-22.5 -54.5t-56.5 -21.5t-56.5 21.5t-22.5 54.5t22.5 54.5t56.5 21.5z" />
    <glyph glyph-name="cent" unicode="&#xa2;" horiz-adv-x="474" 
d="M40 228q0 104 52 171t159 67q9 0 29 -2l18 76l61 -14l-19 -76q64 -25 94 -86l-85 -60q-17 28 -35 39l-60 -247h6q58 0 90 56l84 -61q-48 -102 -183 -102q-4 0 -11.5 0.5t-10.5 0.5l-15 -62l-60 14l14 60q-65 24 -96.5 84.5t-31.5 141.5zM163 228q0 -75 33 -109l58 240
q-91 -4 -91 -131z" />
    <glyph glyph-name="sterling" unicode="&#xa3;" horiz-adv-x="564" 
d="M33 337h63v105q0 107 53 175.5t169 68.5q73 0 123 -25.5t95 -75.5l-79 -82q-61 68 -134 68q-102 0 -102 -128v-106h167v-79h-167v-156h267v-102h-393l1 258h-63v79z" />
    <glyph glyph-name="currency" unicode="&#xa4;" horiz-adv-x="558" 
d="M436 348q11 -37 11 -76q0 -38 -11 -74l82 -85l-83 -83l-80 79q-34 -13 -78 -13q-47 0 -79 15l-75 -76l-78 78l76 80q-11 36 -11 78q0 39 9 72l-79 84l84 82l76 -77q32 15 80 15q47 0 81 -16l75 76l78 -78zM279 204q64 0 64 67t-65 67q-63 0 -63 -66q0 -68 64 -68z" />
    <glyph glyph-name="yen" unicode="&#xa5;" horiz-adv-x="608" 
d="M58 307h159l-28 56h-131v79h89l-120 234h142l133 -287l135 287h143l-123 -234h93v-79h-136l-29 -56h165v-79h-186v-228h-126v228h-180v79z" />
    <glyph glyph-name="brokenbar" unicode="&#xa6;" horiz-adv-x="202" 
d="M141 306h-80v384h80v-384zM61 170h80v-386h-80v386z" />
    <glyph glyph-name="section" unicode="&#xa7;" horiz-adv-x="556" 
d="M512 279q0 -72 -60 -117q59 -40 59 -109q0 -70 -58.5 -118.5t-179.5 -48.5q-81 0 -144 25.5t-93 70.5l69 76q65 -76 176 -76q98 0 98 51q0 36 -84 63l-93 32q-75 26 -112 64t-37 94q0 75 59 122q-59 41 -59 109q0 65 58.5 117t171.5 52q146 0 221 -87l-75 -76
q-62 65 -157 65q-37 0 -62.5 -15t-25.5 -38q0 -22 19.5 -34.5t67.5 -28.5l83 -28q158 -52 158 -165zM207 367q-28 -23 -28 -55q0 -27 23 -45t76 -36l79 -28q28 24 28 53q0 30 -22 49t-67 34z" />
    <glyph glyph-name="dieresis" unicode="&#xa8;" horiz-adv-x="600" 
d="M201 532q-72 0 -72 70q0 36 19.5 54t52.5 18q30 0 51.5 -18.5t21.5 -53.5q0 -36 -21 -53t-52 -17zM398 532q-73 0 -73 70q0 36 20 54t53 18q30 0 51 -18.5t21 -53.5q0 -36 -20.5 -53t-51.5 -17z" />
    <glyph glyph-name="copyright" unicode="&#xa9;" horiz-adv-x="826" 
d="M39 334q0 161 106.5 265.5t267.5 104.5q162 0 268 -104t106 -266q0 -159 -106 -264.5t-268 -105.5q-161 0 -267.5 105.5t-106.5 264.5zM130 334q0 -127 79 -205t204 -78q126 0 205 78t79 205q0 128 -79 206t-205 78q-125 0 -204 -78t-79 -206zM324 334q0 -107 91 -107
q56 0 89 47l68 -68q-65 -70 -162 -70q-81 0 -136 53.5t-55 145.5q0 89 55 142t135 53q93 0 162 -71l-67 -64q-18 17 -25 22.5t-25.5 13.5t-38.5 8q-44 0 -67.5 -27.5t-23.5 -77.5z" />
    <glyph glyph-name="ordfeminine" unicode="&#xaa;" horiz-adv-x="350" 
d="M297 350h-77v32q-35 -39 -94 -39q-41 0 -64.5 22t-23.5 60q0 89 145 97l32 2v17q0 36 -46 36q-44 0 -44 -25v-10h-72q-1 6 -1 20q0 34 33 55.5t88 21.5q124 0 124 -98v-191zM121 431q0 -28 35 -28t59 24v50l-31 -5q-63 -9 -63 -41z" />
    <glyph glyph-name="guillemotleft" unicode="&#xab;" horiz-adv-x="551" 
d="M20 270l199 230l77 -54l-133 -177l133 -177l-77 -53zM239 270l199 230l77 -54l-133 -177l133 -177l-77 -53z" />
    <glyph glyph-name="logicalnot" unicode="&#xac;" 
d="M28 307v103h489v-293h-115v190h-374z" />
    <glyph glyph-name="uni00AD" unicode="&#xad;" horiz-adv-x="392" 
d="M52 322h288v-103h-288v103z" />
    <glyph glyph-name="registered" unicode="&#xae;" horiz-adv-x="826" 
d="M481 410q0 19 -15.5 34t-49.5 15h-69v-97h65q36 0 52.5 14.5t16.5 33.5zM261 138v388h151q155 0 155 -113q0 -38 -24 -67t-67 -40l98 -168h-95l-88 158h-44v-158h-86zM39 334q0 161 106.5 265.5t267.5 104.5q162 0 268 -104t106 -266q0 -159 -106 -264.5t-268 -105.5
q-161 0 -267.5 105.5t-106.5 264.5zM130 334q0 -127 79 -205t204 -78q126 0 205 78t79 205q0 128 -79 206t-205 78q-125 0 -204 -78t-79 -206z" />
    <glyph glyph-name="macron" unicode="&#xaf;" horiz-adv-x="600" 
d="M150 653h299v-97h-299v97z" />
    <glyph glyph-name="degree" unicode="&#xb0;" horiz-adv-x="338" 
d="M32 545q0 58 35.5 99.5t99.5 41.5q66 0 103 -41t37 -100q0 -56 -37 -96.5t-103 -40.5q-63 0 -99 40.5t-36 96.5zM101 545q0 -29 17 -49.5t49 -20.5q34 0 51.5 20.5t17.5 49.5q0 31 -17.5 52.5t-51.5 21.5q-32 0 -49 -22t-17 -52z" />
    <glyph glyph-name="plusminus" unicode="&#xb1;" 
d="M35 356v104h186v194h114v-194h189v-104h-189v-145h-114v145h-186zM35 27v103h489v-103h-489z" />
    <glyph glyph-name="twosuperior" unicode="&#xb2;" horiz-adv-x="324" 
d="M159 794q60 0 97 -32t37 -83q0 -34 -21.5 -65t-60.5 -69l-59 -54h142v-68h-260v58l118 115q49 46 49 83q0 20 -11 32t-31 12q-45 0 -45 -53h-89q0 57 34 90.5t100 33.5z" />
    <glyph glyph-name="threesuperior" unicode="&#xb3;" horiz-adv-x="336" 
d="M236 607q31 -8 51 -31.5t20 -54.5q0 -47 -39.5 -76t-104.5 -29q-70 0 -104 28.5t-34 77.5h89q0 -35 49 -35q23 0 37.5 10t14.5 29q0 47 -66 47h-39v68h39q60 0 60 43q0 18 -12.5 28t-33.5 10q-20 0 -32 -9t-12 -24h-89q0 46 33.5 75t99.5 29q63 0 100.5 -29t37.5 -75
q0 -29 -18 -51.5t-47 -30.5z" />
    <glyph glyph-name="acute" unicode="&#xb4;" horiz-adv-x="600" 
d="M275 696h123l-87 -165h-109z" />
    <glyph glyph-name="mu" unicode="&#xb5;" horiz-adv-x="522" 
d="M176 -216h-121v672h121v-279q2 -39 21.5 -57.5t61.5 -18.5q24 0 49 10t39 24v321h121v-456h-117v52q-44 -62 -140 -62q-19 0 -35 3v-209z" />
    <glyph glyph-name="paragraph" unicode="&#xb6;" horiz-adv-x="534" 
d="M207 456h118v-465h-108v158q-190 0 -190 151q0 74 45 115t135 41zM367 -227l-68 74q77 52 77 125v484h107v-460q0 -74 -24.5 -129.5t-91.5 -93.5z" />
    <glyph glyph-name="periodcentered" unicode="&#xb7;" horiz-adv-x="255" 
d="M129 193q-37 0 -61.5 23t-24.5 57q0 36 24.5 59.5t61.5 23.5q36 0 60 -23.5t24 -59.5q0 -34 -24.5 -57t-59.5 -23z" />
    <glyph glyph-name="cedilla" unicode="&#xb8;" horiz-adv-x="600" 
d="M269 9l70 -9l-19 -47q96 0 96 -81q0 -41 -31.5 -64.5t-83.5 -23.5q-54 0 -98 23v75q41 -31 88 -31q32 0 32 21q0 23 -43 23h-44l-6 7z" />
    <glyph glyph-name="onesuperior" unicode="&#xb9;" horiz-adv-x="255" 
d="M210 422h-90v285l-97 -35l-21 65l131 50h77v-365z" />
    <glyph glyph-name="ordmasculine" unicode="&#xba;" horiz-adv-x="351" 
d="M177 639q70 0 104 -40.5t34 -106.5q0 -69 -34 -109t-107 -40q-71 0 -104.5 40t-33.5 107q0 69 34 109t107 40zM176 414q54 0 54 76q0 78 -55 78t-55 -75q0 -79 56 -79z" />
    <glyph glyph-name="guillemotright" unicode="&#xbb;" horiz-adv-x="551" 
d="M333 500l199 -230l-199 -231l-78 53l133 177l-132 177zM114 500l199 -230l-199 -231l-78 53l133 177l-132 177z" />
    <glyph glyph-name="onequarter" unicode="&#xbc;" horiz-adv-x="746" 
d="M712 135v-68h-41v-67h-88v67h-178v59l172 239h94v-230h41zM497 135h86v120zM628 676l-403 -676h-95l400 676h98zM234 311h-90v285l-97 -35l-21 65l131 50h77v-365z" />
    <glyph glyph-name="onehalf" unicode="&#xbd;" horiz-adv-x="785" 
d="M628 676l-403 -676h-95l400 676h98zM611 371q60 0 97 -32t37 -83q0 -34 -21.5 -65t-60.5 -69l-59 -54h142v-68h-260v58l118 115q49 46 49 83q0 20 -11 32t-31 12q-45 0 -45 -53h-89q0 57 34 90.5t100 33.5zM234 311h-90v285l-97 -35l-21 65l131 50h77v-365z" />
    <glyph glyph-name="threequarters" unicode="&#xbe;" horiz-adv-x="773" 
d="M245 496q31 -8 51 -31.5t20 -54.5q0 -47 -39.5 -76t-104.5 -29q-70 0 -104 28.5t-34 77.5h89q0 -35 49 -35q23 0 37.5 10t14.5 29q0 47 -66 47h-39v68h39q60 0 60 43q0 18 -12.5 28t-33.5 10q-20 0 -32 -9t-12 -24h-89q0 46 33.5 75t99.5 29q63 0 100.5 -29t37.5 -75
q0 -29 -18 -51.5t-47 -30.5zM658 676l-403 -676h-95l400 676h98zM742 135v-68h-41v-67h-88v67h-178v59l172 239h94v-230h41zM527 135h86v120z" />
    <glyph glyph-name="questiondown" unicode="&#xbf;" horiz-adv-x="446" 
d="M239 466q34 0 56.5 -21.5t22.5 -53.5q0 -33 -22.5 -55t-56.5 -22t-57 22t-23 55q0 32 23 53.5t57 21.5zM234 -226q-97 0 -152 50t-55 127q0 47 23.5 87t51.5 64.5t51.5 59.5t23.5 73h124q0 -42 -15.5 -77.5t-37.5 -60.5t-44.5 -47t-38 -46.5t-15.5 -49.5q0 -30 20 -49.5
t56 -19.5q38 0 58 18.5t20 45.5l117 -12q0 -70 -47 -116.5t-140 -46.5z" />
    <glyph glyph-name="Agrave" unicode="&#xc0;" horiz-adv-x="621" 
d="M482 0l-49 153h-245l-49 -153h-140l236 676h151l237 -676h-141zM311 541l-90 -280h180zM169 901h123l73 -165h-109z" />
    <glyph glyph-name="Aacute" unicode="&#xc1;" horiz-adv-x="621" 
d="M482 0l-49 153h-245l-49 -153h-140l236 676h151l237 -676h-141zM311 541l-90 -280h180zM327 901h123l-87 -165h-109z" />
    <glyph glyph-name="Acircumflex" unicode="&#xc2;" horiz-adv-x="621" 
d="M482 0l-49 153h-245l-49 -153h-140l236 676h151l237 -676h-141zM311 541l-90 -280h180zM251 901h120l101 -165h-108l-53 89l-53 -89h-108z" />
    <glyph glyph-name="Atilde" unicode="&#xc3;" horiz-adv-x="621" 
d="M482 0l-49 153h-245l-49 -153h-140l236 676h151l237 -676h-141zM311 541l-90 -280h180zM461 858l-2 -90q-40 26 -74 26q-26 0 -74.5 -21t-79.5 -21q-41 0 -70 22l2 89q25 -24 68 -24q24 0 70.5 20t83.5 20q40 0 76 -21z" />
    <glyph glyph-name="Adieresis" unicode="&#xc4;" horiz-adv-x="621" 
d="M482 0l-49 153h-245l-49 -153h-140l236 676h151l237 -676h-141zM311 541l-90 -280h180zM213 737q-72 0 -72 70q0 36 19.5 54t52.5 18q30 0 51.5 -18.5t21.5 -53.5q0 -36 -21 -53t-52 -17zM410 737q-73 0 -73 70q0 36 20 54t53 18q30 0 51 -18.5t21 -53.5q0 -36 -20.5 -53
t-51.5 -17z" />
    <glyph glyph-name="Aring" unicode="&#xc5;" horiz-adv-x="621" 
d="M482 0l-49 153h-245l-49 -153h-140l236 676h151l237 -676h-141zM311 541l-90 -280h180zM202 812q0 42 28 71.5t79 29.5q53 0 82.5 -29.5t29.5 -71.5q0 -39 -29.5 -69t-82.5 -30q-50 0 -78.5 30t-28.5 69zM269 812q0 -15 10.5 -26.5t29.5 -11.5q21 0 32 11t11 27
q0 17 -11 28.5t-32 11.5q-19 0 -29.5 -12t-10.5 -28z" />
    <glyph glyph-name="AE" unicode="&#xc6;" horiz-adv-x="945" 
d="M292 259h175v291zM131 0h-140l437 676h476v-108h-305v-174h263v-108h-263v-184h308v-102h-440v155h-239z" />
    <glyph glyph-name="Ccedilla" unicode="&#xc7;" horiz-adv-x="590" 
d="M176 337q0 -235 164 -235q82 0 127 80l100 -63q-66 -118 -209 -128l-15 -38q96 0 96 -81q0 -41 -31.5 -64.5t-83.5 -23.5q-54 0 -98 23v75q41 -31 88 -31q32 0 32 21q0 23 -43 23h-44l-6 7l33 91q-121 15 -183.5 104.5t-62.5 240.5q0 167 74.5 257.5t220.5 90.5
q160 0 232 -129l-100 -63q-45 80 -127 80q-164 0 -164 -237z" />
    <glyph glyph-name="Egrave" unicode="&#xc8;" horiz-adv-x="546" 
d="M199 108h308v-108h-440v676h437v-108h-305v-174h263v-108h-263v-178zM154 901h123l73 -165h-109z" />
    <glyph glyph-name="Eacute" unicode="&#xc9;" horiz-adv-x="546" 
d="M199 108h308v-108h-440v676h437v-108h-305v-174h263v-108h-263v-178zM303 901h123l-87 -165h-109z" />
    <glyph glyph-name="Ecircumflex" unicode="&#xca;" horiz-adv-x="546" 
d="M199 108h308v-108h-440v676h437v-108h-305v-174h263v-108h-263v-178zM227 901h120l101 -165h-108l-53 89l-53 -89h-108z" />
    <glyph glyph-name="Edieresis" unicode="&#xcb;" horiz-adv-x="546" 
d="M199 108h308v-108h-440v676h437v-108h-305v-174h263v-108h-263v-178zM188 737q-72 0 -72 70q0 36 19.5 54t52.5 18q30 0 51.5 -18.5t21.5 -53.5q0 -36 -21 -53t-52 -17zM385 737q-73 0 -73 70q0 36 20 54t53 18q30 0 51 -18.5t21 -53.5q0 -36 -20.5 -53t-51.5 -17z" />
    <glyph glyph-name="Igrave" unicode="&#xcc;" horiz-adv-x="266" 
d="M67 0v676h132v-676h-132zM-7 901h123l73 -165h-109z" />
    <glyph glyph-name="Iacute" unicode="&#xcd;" horiz-adv-x="266" 
d="M67 0v676h132v-676h-132zM153 901h123l-87 -165h-109z" />
    <glyph glyph-name="Icircumflex" unicode="&#xce;" horiz-adv-x="266" 
d="M67 0v676h132v-676h-132zM72 901h120l101 -165h-108l-53 89l-53 -89h-108z" />
    <glyph glyph-name="Idieresis" unicode="&#xcf;" horiz-adv-x="266" 
d="M67 0v676h132v-676h-132zM35 737q-72 0 -72 70q0 36 19.5 54t52.5 18q30 0 51.5 -18.5t21.5 -53.5q0 -36 -21 -53t-52 -17zM232 737q-73 0 -73 70q0 36 20 54t53 18q30 0 51 -18.5t21 -53.5q0 -36 -20.5 -53t-51.5 -17z" />
    <glyph glyph-name="Eth" unicode="&#xd0;" horiz-adv-x="663" 
d="M14 386h61v290h213q173 0 253.5 -81t80.5 -257q0 -175 -80.5 -256.5t-253.5 -81.5h-213v303h-61v83zM207 108h73q116 0 161 50t45 180q0 127 -45.5 178.5t-160.5 51.5h-73v-182h113v-83h-113v-195z" />
    <glyph glyph-name="Ntilde" unicode="&#xd1;" horiz-adv-x="679" 
d="M481 216v460h131v-676h-135l-278 467l1 -467h-134l1 676h140zM491 858l-2 -90q-40 26 -74 26q-26 0 -74.5 -21t-79.5 -21q-41 0 -70 22l2 89q25 -24 68 -24q24 0 70.5 20t83.5 20q40 0 76 -21z" />
    <glyph glyph-name="Ograve" unicode="&#xd2;" horiz-adv-x="657" 
d="M176 337q0 -115 33 -175t119 -60q85 0 119 60.5t34 174.5t-34 175.5t-118 61.5t-118.5 -61.5t-34.5 -175.5zM617 337q0 -159 -70 -253t-219 -94q-150 0 -219 93.5t-69 253.5q0 161 69 255t220 94q77 0 134 -26t90 -74.5t48.5 -110t15.5 -138.5zM194 901h123l73 -165h-109
z" />
    <glyph glyph-name="Oacute" unicode="&#xd3;" horiz-adv-x="657" 
d="M176 337q0 -115 33 -175t119 -60q85 0 119 60.5t34 174.5t-34 175.5t-118 61.5t-118.5 -61.5t-34.5 -175.5zM617 337q0 -159 -70 -253t-219 -94q-150 0 -219 93.5t-69 253.5q0 161 69 255t220 94q77 0 134 -26t90 -74.5t48.5 -110t15.5 -138.5zM346 901h123l-87 -165
h-109z" />
    <glyph glyph-name="Ocircumflex" unicode="&#xd4;" horiz-adv-x="657" 
d="M176 337q0 -115 33 -175t119 -60q85 0 119 60.5t34 174.5t-34 175.5t-118 61.5t-118.5 -61.5t-34.5 -175.5zM617 337q0 -159 -70 -253t-219 -94q-150 0 -219 93.5t-69 253.5q0 161 69 255t220 94q77 0 134 -26t90 -74.5t48.5 -110t15.5 -138.5zM269 901h120l101 -165
h-108l-53 89l-53 -89h-108z" />
    <glyph glyph-name="Otilde" unicode="&#xd5;" horiz-adv-x="657" 
d="M176 337q0 -115 33 -175t119 -60q85 0 119 60.5t34 174.5t-34 175.5t-118 61.5t-118.5 -61.5t-34.5 -175.5zM617 337q0 -159 -70 -253t-219 -94q-150 0 -219 93.5t-69 253.5q0 161 69 255t220 94q77 0 134 -26t90 -74.5t48.5 -110t15.5 -138.5zM479 858l-2 -90
q-40 26 -74 26q-26 0 -74.5 -21t-79.5 -21q-41 0 -70 22l2 89q25 -24 68 -24q24 0 70.5 20t83.5 20q40 0 76 -21z" />
    <glyph glyph-name="Odieresis" unicode="&#xd6;" horiz-adv-x="657" 
d="M176 337q0 -115 33 -175t119 -60q85 0 119 60.5t34 174.5t-34 175.5t-118 61.5t-118.5 -61.5t-34.5 -175.5zM617 337q0 -159 -70 -253t-219 -94q-150 0 -219 93.5t-69 253.5q0 161 69 255t220 94q77 0 134 -26t90 -74.5t48.5 -110t15.5 -138.5zM230 737q-72 0 -72 70
q0 36 19.5 54t52.5 18q30 0 51.5 -18.5t21.5 -53.5q0 -36 -21 -53t-52 -17zM427 737q-73 0 -73 70q0 36 20 54t53 18q30 0 51 -18.5t21 -53.5q0 -36 -20.5 -53t-51.5 -17z" />
    <glyph glyph-name="multiply" unicode="&#xd7;" 
d="M123 38l-74 75l152 154l-157 157l79 81l159 -158l155 155l75 -76l-156 -155l159 -158l-80 -81l-158 159z" />
    <glyph glyph-name="Oslash" unicode="&#xd8;" horiz-adv-x="660" 
d="M618 337q0 -159 -70 -253t-219 -94q-105 0 -172 48l-29 -38h-107l76 100q-56 85 -56 237q0 161 69 255t220 94q105 0 175 -51l31 41h109l-81 -106q54 -87 54 -233zM177 337q0 -71 11 -118l242 317q-36 38 -100 38q-84 0 -118.5 -61.5t-34.5 -175.5zM482 337q0 68 -11 112
l-240 -314q36 -33 98 -33q85 0 119 60.5t34 174.5z" />
    <glyph glyph-name="Ugrave" unicode="&#xd9;" horiz-adv-x="644" 
d="M322 -10q-121 0 -191 66t-70 202v418h132v-415q0 -82 31 -120.5t98 -38.5t98 38.5t31 120.5v415h132v-418q0 -136 -70 -202t-191 -66zM182 901h123l73 -165h-109z" />
    <glyph glyph-name="Uacute" unicode="&#xda;" horiz-adv-x="644" 
d="M322 -10q-121 0 -191 66t-70 202v418h132v-415q0 -82 31 -120.5t98 -38.5t98 38.5t31 120.5v415h132v-418q0 -136 -70 -202t-191 -66zM340 901h123l-87 -165h-109z" />
    <glyph glyph-name="Ucircumflex" unicode="&#xdb;" horiz-adv-x="644" 
d="M322 -10q-121 0 -191 66t-70 202v418h132v-415q0 -82 31 -120.5t98 -38.5t98 38.5t31 120.5v415h132v-418q0 -136 -70 -202t-191 -66zM262 901h120l101 -165h-108l-53 89l-53 -89h-108z" />
    <glyph glyph-name="Udieresis" unicode="&#xdc;" horiz-adv-x="644" 
d="M322 -10q-121 0 -191 66t-70 202v418h132v-415q0 -82 31 -120.5t98 -38.5t98 38.5t31 120.5v415h132v-418q0 -136 -70 -202t-191 -66zM224 737q-72 0 -72 70q0 36 19.5 54t52.5 18q30 0 51.5 -18.5t21.5 -53.5q0 -36 -21 -53t-52 -17zM421 737q-73 0 -73 70q0 36 20 54
t53 18q30 0 51 -18.5t21 -53.5q0 -36 -20.5 -53t-51.5 -17z" />
    <glyph glyph-name="Yacute" unicode="&#xdd;" horiz-adv-x="591" 
d="M361 0h-132v263l-228 413h145l151 -295l147 295h146l-229 -413v-263zM311 901h123l-87 -165h-109z" />
    <glyph glyph-name="Thorn" unicode="&#xde;" horiz-adv-x="573" 
d="M304 125h-105v-125h-132v677h132v-123h105q118 0 180.5 -55.5t62.5 -159.5q0 -103 -62.5 -158.5t-180.5 -55.5zM199 446v-214h95q117 0 117 107t-117 107h-95z" />
    <glyph glyph-name="germandbls" unicode="&#xdf;" horiz-adv-x="559" 
d="M54 0v481q0 105 51.5 162t150.5 57t151 -50.5t52 -125.5q0 -36 -19 -71t-38 -60.5t-19 -37.5q0 -23 39 -51l34 -25q41 -31 62 -63.5t21 -79.5q0 -66 -46 -106.5t-121 -40.5q-68 0 -130 30l36 95q41 -28 79 -28q27 0 43 14.5t16 35.5q0 37 -45 70l-39 29
q-40 28 -56.5 49.5t-16.5 54.5q0 35 37.5 87.5t37.5 85.5q0 39 -22 60.5t-60 21.5q-48 0 -64.5 -26.5t-16.5 -80.5v-487h-117z" />
    <glyph glyph-name="agrave" unicode="&#xe0;" horiz-adv-x="473" 
d="M423 0h-114v53q-55 -64 -145 -64q-60 0 -97 36t-37 97q0 138 221 153l50 4v29q0 31 -16.5 47t-56.5 16q-34 0 -52 -12t-18 -32v-18h-105q-3 15 -3 31q0 57 50.5 91.5t135.5 34.5q88 0 137.5 -38.5t49.5 -118.5v-309zM153 130q0 -49 57 -49q52 0 91 39v86l-49 -7
q-99 -14 -99 -69zM110 696h123l73 -165h-109z" />
    <glyph glyph-name="aacute" unicode="&#xe1;" horiz-adv-x="473" 
d="M423 0h-114v53q-55 -64 -145 -64q-60 0 -97 36t-37 97q0 138 221 153l50 4v29q0 31 -16.5 47t-56.5 16q-34 0 -52 -12t-18 -32v-18h-105q-3 15 -3 31q0 57 50.5 91.5t135.5 34.5q88 0 137.5 -38.5t49.5 -118.5v-309zM153 130q0 -49 57 -49q52 0 91 39v86l-49 -7
q-99 -14 -99 -69zM261 696h123l-87 -165h-109z" />
    <glyph glyph-name="acircumflex" unicode="&#xe2;" horiz-adv-x="472" 
d="M423 0h-114v53q-55 -64 -145 -64q-60 0 -97 36t-37 97q0 138 221 153l50 4v29q0 31 -16.5 47t-56.5 16q-34 0 -52 -12t-18 -32v-18h-105q-3 15 -3 31q0 57 50.5 91.5t135.5 34.5q88 0 137.5 -38.5t49.5 -118.5v-309zM153 130q0 -49 57 -49q52 0 91 39v86l-49 -7
q-99 -14 -99 -69zM183 696h120l101 -165h-108l-53 89l-53 -89h-108z" />
    <glyph glyph-name="atilde" unicode="&#xe3;" horiz-adv-x="473" 
d="M423 0h-114v53q-55 -64 -145 -64q-60 0 -97 36t-37 97q0 138 221 153l50 4v29q0 31 -16.5 47t-56.5 16q-34 0 -52 -12t-18 -32v-18h-105q-3 15 -3 31q0 57 50.5 91.5t135.5 34.5q88 0 137.5 -38.5t49.5 -118.5v-309zM153 130q0 -49 57 -49q52 0 91 39v86l-49 -7
q-99 -14 -99 -69zM394 653l-2 -90q-40 26 -74 26q-26 0 -74.5 -21t-79.5 -21q-41 0 -70 22l2 89q25 -24 68 -24q24 0 70.5 20t83.5 20q40 0 76 -21z" />
    <glyph glyph-name="adieresis" unicode="&#xe4;" horiz-adv-x="473" 
d="M423 0h-114v53q-55 -64 -145 -64q-60 0 -97 36t-37 97q0 138 221 153l50 4v29q0 31 -16.5 47t-56.5 16q-34 0 -52 -12t-18 -32v-18h-105q-3 15 -3 31q0 57 50.5 91.5t135.5 34.5q88 0 137.5 -38.5t49.5 -118.5v-309zM153 130q0 -49 57 -49q52 0 91 39v86l-49 -7
q-99 -14 -99 -69zM144 532q-72 0 -72 70q0 36 19.5 54t52.5 18q30 0 51.5 -18.5t21.5 -53.5q0 -36 -21 -53t-52 -17zM341 532q-73 0 -73 70q0 36 20 54t53 18q30 0 51 -18.5t21 -53.5q0 -36 -20.5 -53t-51.5 -17z" />
    <glyph glyph-name="aring" unicode="&#xe5;" horiz-adv-x="473" 
d="M423 0h-114v53q-55 -64 -145 -64q-60 0 -97 36t-37 97q0 138 221 153l50 4v29q0 31 -16.5 47t-56.5 16q-34 0 -52 -12t-18 -32v-18h-105q-3 15 -3 31q0 57 50.5 91.5t135.5 34.5q88 0 137.5 -38.5t49.5 -118.5v-309zM153 130q0 -49 57 -49q52 0 91 39v86l-49 -7
q-99 -14 -99 -69zM135 619q0 42 28 71.5t79 29.5q54 0 83 -29t29 -72q0 -39 -29.5 -69t-82.5 -30q-50 0 -78.5 30t-28.5 69zM202 619q0 -15 11 -26.5t29 -11.5q21 0 32 11t11 27q0 17 -11 28.5t-32 11.5q-18 0 -29 -12t-11 -28z" />
    <glyph glyph-name="ae" unicode="&#xe6;" horiz-adv-x="740" 
d="M528 92q61 0 112 42l57 -79q-68 -66 -169 -66q-114 0 -172 69q-67 -69 -175 -69q-73 0 -112.5 35.5t-39.5 97.5q0 138 221 153l51 4v29q0 63 -74 63q-34 0 -52 -12t-18 -32v-18h-105q-2 20 -2 31q0 57 50 91.5t135 34.5q100 0 145 -51q51 51 134 51q98 0 145.5 -57.5
t47.5 -140.5q0 -46 -7 -79h-275q5 -97 103 -97zM152 130q0 -49 57 -49q51 0 92 39v86l-50 -7q-99 -14 -99 -69zM425 275h169q1 6 1 15q0 39 -23 59t-58 20q-42 0 -64 -26t-25 -68z" />
    <glyph glyph-name="ccedilla" unicode="&#xe7;" horiz-adv-x="449" 
d="M34 228q0 104 52 171t159 67q135 0 183 -102l-84 -60q-33 55 -89 55q-98 0 -98 -131q0 -132 98 -132q57 0 89 56l84 -61q-41 -89 -154 -100l-15 -38q96 0 96 -81q0 -41 -31.5 -64.5t-83.5 -23.5q-54 0 -98 23v75q41 -31 88 -31q32 0 32 21q0 23 -43 23h-44l-6 7l33 90
q-85 14 -126.5 78t-41.5 158z" />
    <glyph glyph-name="egrave" unicode="&#xe8;" horiz-adv-x="472" 
d="M259 92q61 0 112 42l57 -79q-66 -66 -169 -66q-114 0 -169.5 64.5t-55.5 174.5q0 102 55.5 170t156.5 68q98 0 145.5 -57.5t47.5 -140.5q0 -49 -8 -79h-275q2 -46 28 -71.5t75 -25.5zM157 275h168q2 12 2 15q0 38 -23 58.5t-58 20.5q-43 0 -65 -26t-24 -68zM117 696h123
l73 -165h-109z" />
    <glyph glyph-name="eacute" unicode="&#xe9;" horiz-adv-x="472" 
d="M259 92q61 0 112 42l57 -79q-66 -66 -169 -66q-114 0 -169.5 64.5t-55.5 174.5q0 102 55.5 170t156.5 68q98 0 145.5 -57.5t47.5 -140.5q0 -49 -8 -79h-275q2 -46 28 -71.5t75 -25.5zM157 275h168q2 12 2 15q0 38 -23 58.5t-58 20.5q-43 0 -65 -26t-24 -68zM260 696h123
l-87 -165h-109z" />
    <glyph glyph-name="ecircumflex" unicode="&#xea;" horiz-adv-x="472" 
d="M259 92q61 0 112 42l57 -79q-66 -66 -169 -66q-114 0 -169.5 64.5t-55.5 174.5q0 102 55.5 170t156.5 68q98 0 145.5 -57.5t47.5 -140.5q0 -49 -8 -79h-275q2 -46 28 -71.5t75 -25.5zM157 275h168q2 12 2 15q0 38 -23 58.5t-58 20.5q-43 0 -65 -26t-24 -68zM189 696h120
l101 -165h-108l-53 89l-53 -89h-108z" />
    <glyph glyph-name="edieresis" unicode="&#xeb;" horiz-adv-x="472" 
d="M259 92q61 0 112 42l57 -79q-66 -66 -169 -66q-114 0 -169.5 64.5t-55.5 174.5q0 102 55.5 170t156.5 68q98 0 145.5 -57.5t47.5 -140.5q0 -49 -8 -79h-275q2 -46 28 -71.5t75 -25.5zM157 275h168q2 12 2 15q0 38 -23 58.5t-58 20.5q-43 0 -65 -26t-24 -68zM152 532
q-72 0 -72 70q0 36 19.5 54t52.5 18q30 0 51.5 -18.5t21.5 -53.5q0 -36 -21 -53t-52 -17zM349 532q-73 0 -73 70q0 36 20 54t53 18q30 0 51 -18.5t21 -53.5q0 -36 -20.5 -53t-51.5 -17z" />
    <glyph glyph-name="igrave" unicode="&#xec;" horiz-adv-x="230" 
d="M55 0v456h121v-456h-121zM-19 696h123l73 -165h-109z" />
    <glyph glyph-name="iacute" unicode="&#xed;" horiz-adv-x="230" 
d="M54 0v456h121v-456h-121zM126 696h123l-87 -165h-109z" />
    <glyph glyph-name="icircumflex" unicode="&#xee;" horiz-adv-x="231" 
d="M55 0v456h121v-456h-121zM56 696h120l101 -165h-108l-53 89l-53 -89h-108z" />
    <glyph glyph-name="idieresis" unicode="&#xef;" horiz-adv-x="231" 
d="M55 0v456h121v-456h-121zM16 532q-72 0 -72 70q0 36 19.5 54t52.5 18q30 0 51.5 -18.5t21.5 -53.5q0 -36 -21 -53t-52 -17zM213 532q-73 0 -73 70q0 36 20 54t53 18q30 0 51 -18.5t21 -53.5q0 -36 -20.5 -53t-51.5 -17z" />
    <glyph glyph-name="eth" unicode="&#xf0;" horiz-adv-x="526" 
d="M199 690h144q26 -24 51 -59l62 25l30 -72l-52 -22q54 -115 54 -248q0 -64 -12.5 -119.5t-38.5 -103t-72.5 -75t-109.5 -27.5q-109 0 -165 62.5t-56 168.5q0 103 52.5 165t140.5 62q98 0 143 -72q-3 67 -41 142l-70 -30l-31 76l59 24q-38 54 -88 103zM255 94q54 0 81 47.5
t27 119.5q-36 72 -112 72q-48 0 -73 -31.5t-25 -87.5q0 -53 25 -86.5t77 -33.5z" />
    <glyph glyph-name="ntilde" unicode="&#xf1;" horiz-adv-x="517" 
d="M54 0v456h117v-52q44 62 141 62q156 0 156 -181v-285h-122v271q0 43 -19 63.5t-63 20.5q-53 0 -89 -34v-321h-121zM413 653l-2 -90q-40 26 -74 26q-26 0 -74.5 -21t-79.5 -21q-41 0 -70 22l2 89q25 -24 68 -24q24 0 70.5 20t83.5 20q40 0 76 -21z" />
    <glyph glyph-name="ograve" unicode="&#xf2;" horiz-adv-x="499" 
d="M251 466q104 0 159 -65t55 -172q0 -110 -55 -175t-163 -65q-104 0 -158.5 66t-54.5 172q0 109 54.5 174t162.5 65zM249 98q92 0 92 129q0 130 -93 130q-91 0 -91 -128q0 -131 92 -131zM120 696h123l73 -165h-109z" />
    <glyph glyph-name="oacute" unicode="&#xf3;" horiz-adv-x="499" 
d="M251 466q104 0 159 -65t55 -172q0 -110 -55 -175t-163 -65q-104 0 -158.5 66t-54.5 172q0 109 54.5 174t162.5 65zM249 98q92 0 92 129q0 130 -93 130q-91 0 -91 -128q0 -131 92 -131zM263 696h123l-87 -165h-109z" />
    <glyph glyph-name="ocircumflex" unicode="&#xf4;" horiz-adv-x="499" 
d="M251 466q104 0 159 -65t55 -172q0 -110 -55 -175t-163 -65q-104 0 -158.5 66t-54.5 172q0 109 54.5 174t162.5 65zM249 98q92 0 92 129q0 130 -93 130q-91 0 -91 -128q0 -131 92 -131zM190 696h120l101 -165h-108l-53 89l-53 -89h-108z" />
    <glyph glyph-name="otilde" unicode="&#xf5;" horiz-adv-x="499" 
d="M251 466q104 0 159 -65t55 -172q0 -110 -55 -175t-163 -65q-104 0 -158.5 66t-54.5 172q0 109 54.5 174t162.5 65zM249 98q92 0 92 129q0 130 -93 130q-91 0 -91 -128q0 -131 92 -131zM402 653l-2 -90q-40 26 -74 26q-26 0 -74.5 -21t-79.5 -21q-41 0 -70 22l2 89
q25 -24 68 -24q24 0 70.5 20t83.5 20q40 0 76 -21z" />
    <glyph glyph-name="odieresis" unicode="&#xf6;" horiz-adv-x="499" 
d="M251 466q104 0 159 -65t55 -172q0 -110 -55 -175t-163 -65q-104 0 -158.5 66t-54.5 172q0 109 54.5 174t162.5 65zM249 98q92 0 92 129q0 130 -93 130q-91 0 -91 -128q0 -131 92 -131zM152 532q-72 0 -72 70q0 36 19.5 54t52.5 18q30 0 51.5 -18.5t21.5 -53.5
q0 -36 -21 -53t-52 -17zM349 532q-73 0 -73 70q0 36 20 54t53 18q30 0 51 -18.5t21 -53.5q0 -36 -20.5 -53t-51.5 -17z" />
    <glyph glyph-name="divide" unicode="&#xf7;" 
d="M35 218v104h489v-104h-489zM282 9q-34 0 -57 22t-23 54q0 33 22.5 54t57.5 21q34 0 56.5 -21t22.5 -54q0 -32 -22.5 -54t-56.5 -22zM282 379q-35 0 -57.5 21.5t-22.5 54.5q0 34 22.5 55t57.5 21q34 0 56.5 -21.5t22.5 -54.5t-22.5 -54.5t-56.5 -21.5z" />
    <glyph glyph-name="oslash" unicode="&#xf8;" horiz-adv-x="499" 
d="M251 466q68 0 115 -29l15 19h93l-53 -69q44 -62 44 -158q0 -110 -55 -175t-163 -65q-66 0 -113 28l-13 -17h-91l50 65q-46 62 -46 162q0 109 54.5 174t162.5 65zM157 229q0 -30 5 -57l134 173q-20 12 -48 12q-91 0 -91 -128zM249 98q92 0 92 129q0 26 -5 51l-132 -170
q19 -10 45 -10z" />
    <glyph glyph-name="ugrave" unicode="&#xf9;" horiz-adv-x="517" 
d="M123 696h123l73 -165h-109zM463 456v-456h-117v52q-44 -62 -141 -62q-156 0 -156 181v285h122v-271q0 -43 19 -63.5t63 -20.5q53 0 89 34v321h121z" />
    <glyph glyph-name="uacute" unicode="&#xfa;" horiz-adv-x="517" 
d="M271 696h123l-87 -165h-109zM463 456v-456h-117v52q-44 -62 -141 -62q-156 0 -156 181v285h122v-271q0 -43 19 -63.5t63 -20.5q53 0 89 34v321h121z" />
    <glyph glyph-name="ucircumflex" unicode="&#xfb;" horiz-adv-x="517" 
d="M195 696h120l101 -165h-108l-53 89l-53 -89h-108zM463 456v-456h-117v52q-44 -62 -141 -62q-156 0 -156 181v285h122v-271q0 -43 19 -63.5t63 -20.5q53 0 89 34v321h121z" />
    <glyph glyph-name="udieresis" unicode="&#xfc;" horiz-adv-x="517" 
d="M159 532q-72 0 -72 70q0 36 19.5 54t52.5 18q30 0 51.5 -18.5t21.5 -53.5q0 -36 -21 -53t-52 -17zM356 532q-73 0 -73 70q0 36 20 54t53 18q30 0 51 -18.5t21 -53.5q0 -36 -20.5 -53t-51.5 -17zM463 456v-456h-117v52q-44 -62 -141 -62q-156 0 -156 181v285h122v-271
q0 -43 19 -63.5t63 -20.5q53 0 89 34v321h121z" />
    <glyph glyph-name="yacute" unicode="&#xfd;" horiz-adv-x="489" 
d="M140 456l111 -297l102 297h130l-267 -672h-123l98 236l-187 436h136zM269 696h123l-87 -165h-109z" />
    <glyph glyph-name="thorn" unicode="&#xfe;" horiz-adv-x="523" 
d="M175 33v-249h-121v891h121v-253q46 44 122 44q91 0 140.5 -63t49.5 -177q0 -113 -49.5 -175t-141.5 -62q-77 0 -121 44zM364 226q0 129 -101 129q-56 0 -88 -32v-192q36 -30 88 -30q101 0 101 125z" />
    <glyph glyph-name="ydieresis" unicode="&#xff;" horiz-adv-x="489" 
d="M140 456l111 -297l102 297h130l-267 -672h-123l98 236l-187 436h136zM151 532q-72 0 -72 70q0 36 19.5 54t52.5 18q30 0 51.5 -18.5t21.5 -53.5q0 -36 -21 -53t-52 -17zM348 532q-73 0 -73 70q0 36 20 54t53 18q30 0 51 -18.5t21 -53.5q0 -36 -20.5 -53t-51.5 -17z" />
    <glyph glyph-name="Amacron" unicode="&#x100;" horiz-adv-x="621" 
d="M482 0l-49 153h-245l-49 -153h-140l236 676h151l237 -676h-141zM311 541l-90 -280h180zM162 858h299v-97h-299v97z" />
    <glyph glyph-name="amacron" unicode="&#x101;" horiz-adv-x="473" 
d="M423 0h-114v53q-55 -64 -145 -64q-60 0 -97 36t-37 97q0 138 221 153l50 4v29q0 31 -16.5 47t-56.5 16q-34 0 -52 -12t-18 -32v-18h-105q-3 15 -3 31q0 57 50.5 91.5t135.5 34.5q88 0 137.5 -38.5t49.5 -118.5v-309zM153 130q0 -49 57 -49q52 0 91 39v86l-49 -7
q-99 -14 -99 -69zM94 653h299v-97h-299v97z" />
    <glyph glyph-name="Abreve" unicode="&#x102;" horiz-adv-x="621" 
d="M482 0l-49 153h-245l-49 -153h-140l236 676h151l237 -676h-141zM311 541l-90 -280h180zM386 893h79q0 -67 -40.5 -109.5t-115.5 -42.5q-72 0 -111.5 43t-39.5 109h77q5 -29 25.5 -47t48.5 -18q31 0 51.5 18t25.5 47z" />
    <glyph glyph-name="abreve" unicode="&#x103;" horiz-adv-x="473" 
d="M423 0h-114v53q-55 -64 -145 -64q-60 0 -97 36t-37 97q0 138 221 153l50 4v29q0 31 -16.5 47t-56.5 16q-34 0 -52 -12t-18 -32v-18h-105q-3 15 -3 31q0 57 50.5 91.5t135.5 34.5q88 0 137.5 -38.5t49.5 -118.5v-309zM153 130q0 -49 57 -49q52 0 91 39v86l-49 -7
q-99 -14 -99 -69zM317 688h79q0 -67 -40.5 -109.5t-115.5 -42.5q-72 0 -111.5 43t-39.5 109h77q5 -29 25.5 -47t48.5 -18q31 0 51.5 18t25.5 47z" />
    <glyph glyph-name="Aogonek" unicode="&#x104;" horiz-adv-x="620" 
d="M622 0l-69 -50q-31 -23 -31 -43q0 -13 9 -21t23 -8q31 0 68 27v-98q-50 -23 -103 -23q-56 0 -88 25t-32 71q0 56 63 107l18 15l-48 151h-245l-49 -153h-140l236 676h151zM310 541l-90 -280h180z" />
    <glyph glyph-name="aogonek" unicode="&#x105;" horiz-adv-x="472" 
d="M422 0l-84 -52q-27 -16 -27 -38q0 -24 29 -24t59 15l3 -80q-29 -13 -53 -16q-25 -2 -37 -1q-114 3 -114 83q0 55 55 85l55 30v51q-55 -64 -145 -64q-60 0 -97 36t-37 97q0 138 221 153l50 4v29q0 31 -16.5 47t-56.5 16q-34 0 -52 -12t-18 -32v-18h-105q-3 15 -3 31
q0 57 50.5 91.5t135.5 34.5q88 0 137.5 -38.5t49.5 -118.5v-309zM152 130q0 -49 57 -49q52 0 91 39v86l-49 -7q-99 -14 -99 -69z" />
    <glyph glyph-name="Cacute" unicode="&#x106;" horiz-adv-x="589" 
d="M176 337q0 -235 164 -235q82 0 127 80l100 -63q-72 -129 -232 -129q-146 0 -220.5 91t-74.5 257q0 167 74.5 257.5t220.5 90.5q160 0 232 -129l-100 -63q-45 80 -127 80q-164 0 -164 -237zM345 901h123l-87 -165h-109z" />
    <glyph glyph-name="cacute" unicode="&#x107;" horiz-adv-x="448" 
d="M34 228q0 104 52 171t159 67q135 0 183 -102l-84 -60q-33 55 -89 55q-98 0 -98 -131q0 -132 98 -132q57 0 89 56l84 -61q-48 -102 -183 -102q-107 0 -159 67t-52 172zM264 696h123l-87 -165h-109z" />
    <glyph glyph-name="Ccircumflex" unicode="&#x108;" horiz-adv-x="589" 
d="M176 337q0 -235 164 -235q82 0 127 80l100 -63q-72 -129 -232 -129q-146 0 -220.5 91t-74.5 257q0 167 74.5 257.5t220.5 90.5q160 0 232 -129l-100 -63q-45 80 -127 80q-164 0 -164 -237zM271 901h120l101 -165h-108l-53 89l-53 -89h-108z" />
    <glyph glyph-name="ccircumflex" unicode="&#x109;" horiz-adv-x="448" 
d="M34 228q0 104 52 171t159 67q135 0 183 -102l-84 -60q-33 55 -89 55q-98 0 -98 -131q0 -132 98 -132q57 0 89 56l84 -61q-48 -102 -183 -102q-107 0 -159 67t-52 172zM191 696h120l101 -165h-108l-53 89l-53 -89h-108z" />
    <glyph glyph-name="Cdotaccent" unicode="&#x10a;" horiz-adv-x="589" 
d="M176 337q0 -235 164 -235q82 0 127 80l100 -63q-72 -129 -232 -129q-146 0 -220.5 91t-74.5 257q0 167 74.5 257.5t220.5 90.5q160 0 232 -129l-100 -63q-45 80 -127 80q-164 0 -164 -237zM332 737q-73 0 -73 70q0 36 20 54t53 18q30 0 51.5 -18.5t21.5 -53.5
q0 -36 -21 -53t-52 -17z" />
    <glyph glyph-name="cdotaccent" unicode="&#x10b;" horiz-adv-x="448" 
d="M34 228q0 104 52 171t159 67q135 0 183 -102l-84 -60q-33 55 -89 55q-98 0 -98 -131q0 -132 98 -132q57 0 89 56l84 -61q-48 -102 -183 -102q-107 0 -159 67t-52 172zM257 532q-73 0 -73 70q0 36 20 54t53 18q30 0 51.5 -18.5t21.5 -53.5q0 -36 -21 -53t-52 -17z" />
    <glyph glyph-name="Ccaron" unicode="&#x10c;" horiz-adv-x="589" 
d="M176 337q0 -235 164 -235q82 0 127 80l100 -63q-72 -129 -232 -129q-146 0 -220.5 91t-74.5 257q0 167 74.5 257.5t220.5 90.5q160 0 232 -129l-100 -63q-45 80 -127 80q-164 0 -164 -237zM391 736h-120l-101 165h108l53 -89l53 89h108z" />
    <glyph glyph-name="ccaron" unicode="&#x10d;" horiz-adv-x="448" 
d="M34 228q0 104 52 171t159 67q135 0 183 -102l-84 -60q-33 55 -89 55q-98 0 -98 -131q0 -132 98 -132q57 0 89 56l84 -61q-48 -102 -183 -102q-107 0 -159 67t-52 172zM313 531h-120l-101 165h108l53 -89l53 89h108z" />
    <glyph glyph-name="Dcaron" unicode="&#x10e;" horiz-adv-x="654" 
d="M67 0v676h213q173 0 253.5 -81t80.5 -257q0 -175 -80.5 -256.5t-253.5 -81.5h-213zM199 108h73q116 0 161 50t45 180q0 127 -45.5 178.5t-160.5 51.5h-73v-460zM355 736h-120l-101 165h108l53 -89l53 89h108z" />
    <glyph glyph-name="dcaron" unicode="&#x10f;" horiz-adv-x="520" 
d="M344 422v268h121v-690h-115v37q-50 -48 -126 -48q-90 0 -139 63t-49 177q0 113 49 175t140 62q77 0 119 -44zM159 229q0 -128 99 -128q55 0 86 31v192q-35 31 -86 31q-99 0 -99 -126zM656 690l-64 -153h-91l26 153h129z" />
    <glyph glyph-name="Dcroat" unicode="&#x110;" horiz-adv-x="663" 
d="M14 386h61v290h213q173 0 253.5 -81t80.5 -257q0 -175 -80.5 -256.5t-253.5 -81.5h-213v303h-61v83zM207 108h73q116 0 161 50t45 180q0 127 -45.5 178.5t-160.5 51.5h-73v-182h113v-83h-113v-195z" />
    <glyph glyph-name="dcroat" unicode="&#x111;" horiz-adv-x="520" 
d="M255 606h89v84h121v-84h59v-83h-59v-523h-115v37q-50 -48 -126 -48q-90 0 -139 63t-49 177q0 113 49 175t140 62q77 0 119 -44v101h-89v83zM159 229q0 -128 99 -128q55 0 86 31v192q-35 31 -86 31q-99 0 -99 -126z" />
    <glyph glyph-name="Emacron" unicode="&#x112;" horiz-adv-x="546" 
d="M199 108h308v-108h-440v676h437v-108h-305v-174h263v-108h-263v-178zM137 858h299v-97h-299v97z" />
    <glyph glyph-name="emacron" unicode="&#x113;" horiz-adv-x="472" 
d="M259 92q61 0 112 42l57 -79q-66 -66 -169 -66q-114 0 -169.5 64.5t-55.5 174.5q0 102 55.5 170t156.5 68q98 0 145.5 -57.5t47.5 -140.5q0 -49 -8 -79h-275q2 -46 28 -71.5t75 -25.5zM157 275h168q2 12 2 15q0 38 -23 58.5t-58 20.5q-43 0 -65 -26t-24 -68zM100 653h299
v-97h-299v97z" />
    <glyph glyph-name="Ebreve" unicode="&#x114;" horiz-adv-x="546" 
d="M199 108h308v-108h-440v676h437v-108h-305v-174h263v-108h-263v-178zM362 893h79q0 -67 -40.5 -109.5t-115.5 -42.5q-72 0 -111.5 43t-39.5 109h77q5 -29 25.5 -47t48.5 -18q31 0 51.5 18t25.5 47z" />
    <glyph glyph-name="ebreve" unicode="&#x115;" horiz-adv-x="472" 
d="M259 92q61 0 112 42l57 -79q-66 -66 -169 -66q-114 0 -169.5 64.5t-55.5 174.5q0 102 55.5 170t156.5 68q98 0 145.5 -57.5t47.5 -140.5q0 -49 -8 -79h-275q2 -46 28 -71.5t75 -25.5zM157 275h168q2 12 2 15q0 38 -23 58.5t-58 20.5q-43 0 -65 -26t-24 -68zM321 688h79
q0 -67 -40.5 -109.5t-115.5 -42.5q-72 0 -111.5 43t-39.5 109h77q5 -29 25.5 -47t48.5 -18q31 0 51.5 18t25.5 47z" />
    <glyph glyph-name="Edotaccent" unicode="&#x116;" horiz-adv-x="546" 
d="M199 108h308v-108h-440v676h437v-108h-305v-174h263v-108h-263v-178zM287 737q-73 0 -73 70q0 36 20 54t53 18q30 0 51.5 -18.5t21.5 -53.5q0 -36 -21 -53t-52 -17z" />
    <glyph glyph-name="edotaccent" unicode="&#x117;" horiz-adv-x="472" 
d="M259 92q61 0 112 42l57 -79q-66 -66 -169 -66q-114 0 -169.5 64.5t-55.5 174.5q0 102 55.5 170t156.5 68q98 0 145.5 -57.5t47.5 -140.5q0 -49 -8 -79h-275q2 -46 28 -71.5t75 -25.5zM157 275h168q2 12 2 15q0 38 -23 58.5t-58 20.5q-43 0 -65 -26t-24 -68zM256 532
q-73 0 -73 70q0 36 20 54t53 18q30 0 51.5 -18.5t21.5 -53.5q0 -36 -21 -53t-52 -17z" />
    <glyph glyph-name="Eogonek" unicode="&#x118;" horiz-adv-x="544" 
d="M507 0l-69 -50q-31 -23 -31 -43q0 -13 9 -21t23 -8q31 0 68 27v-98q-50 -23 -103 -23q-56 0 -88 25t-32 71q0 56 63 107l16 13h-297v676h437v-108h-305v-174h263v-108h-263v-178h308v-108h1z" />
    <glyph glyph-name="eogonek" unicode="&#x119;" horiz-adv-x="472" 
d="M429 55l-66 -68q-48 -49 -48 -80q0 -13 9 -21t23 -8q31 0 68 27v-98q-50 -23 -103 -23q-56 0 -88 25t-32 71q0 50 56 109q-108 4 -161 68t-53 171q0 102 55.5 170t156.5 68q98 0 145.5 -57.5t47.5 -140.5q0 -49 -8 -79h-275q2 -46 28 -71.5t75 -25.5q61 0 112 42l57 -79
h1zM157 275h168q2 12 2 15q0 38 -23 58.5t-58 20.5q-43 0 -65 -26t-24 -68z" />
    <glyph glyph-name="Ecaron" unicode="&#x11a;" horiz-adv-x="546" 
d="M199 108h308v-108h-440v676h437v-108h-305v-174h263v-108h-263v-178zM347 736h-120l-101 165h108l53 -89l53 89h108z" />
    <glyph glyph-name="ecaron" unicode="&#x11b;" horiz-adv-x="472" 
d="M259 92q61 0 112 42l57 -79q-66 -66 -169 -66q-114 0 -169.5 64.5t-55.5 174.5q0 102 55.5 170t156.5 68q98 0 145.5 -57.5t47.5 -140.5q0 -49 -8 -79h-275q2 -46 28 -71.5t75 -25.5zM157 275h168q2 12 2 15q0 38 -23 58.5t-58 20.5q-43 0 -65 -26t-24 -68zM311 531h-120
l-101 165h108l53 -89l53 89h108z" />
    <glyph glyph-name="Gcircumflex" unicode="&#x11c;" horiz-adv-x="648" 
d="M341 260v108h272q5 -38 5 -65q0 -88 -27 -156.5t-91 -112.5t-159 -44q-145 0 -223 88t-78 261q0 174 80.5 260.5t234.5 86.5q77 0 136 -33t89 -90l-98 -64q-48 75 -133 75q-89 0 -131 -58t-42 -177q0 -127 40 -182.5t125 -55.5q73 0 108.5 44t35.5 115h-144zM285 901h120
l101 -165h-108l-53 89l-53 -89h-108z" />
    <glyph glyph-name="gcircumflex" unicode="&#x11d;" horiz-adv-x="517" 
d="M349 456h115v-484q0 -80 -56 -129.5t-151 -49.5q-91 0 -140 41.5t-49 109.5h104q0 -22 22.5 -38.5t62.5 -16.5q41 0 63 20t22 56v73q-46 -49 -113 -49q-94 0 -143.5 61.5t-49.5 178.5q0 114 50 175.5t142 61.5q74 0 121 -47v37zM158 229q0 -128 99 -128q54 0 85 31v194
q-31 29 -85 29q-99 0 -99 -126zM209 696h120l101 -165h-108l-53 89l-53 -89h-108z" />
    <glyph glyph-name="Gbreve" unicode="&#x11e;" horiz-adv-x="648" 
d="M341 260v108h272q5 -38 5 -65q0 -88 -27 -156.5t-91 -112.5t-159 -44q-145 0 -223 88t-78 261q0 174 80.5 260.5t234.5 86.5q77 0 136 -33t89 -90l-98 -64q-48 75 -133 75q-89 0 -131 -58t-42 -177q0 -127 40 -182.5t125 -55.5q73 0 108.5 44t35.5 115h-144zM420 893h79
q0 -67 -40.5 -109.5t-115.5 -42.5q-72 0 -111.5 43t-39.5 109h77q5 -29 25.5 -47t48.5 -18q31 0 51.5 18t25.5 47z" />
    <glyph glyph-name="gbreve" unicode="&#x11f;" horiz-adv-x="517" 
d="M349 456h115v-484q0 -80 -56 -129.5t-151 -49.5q-91 0 -140 41.5t-49 109.5h104q0 -22 22.5 -38.5t62.5 -16.5q41 0 63 20t22 56v73q-46 -49 -113 -49q-94 0 -143.5 61.5t-49.5 178.5q0 114 50 175.5t142 61.5q74 0 121 -47v37zM158 229q0 -128 99 -128q54 0 85 31v194
q-31 29 -85 29q-99 0 -99 -126zM342 688h79q0 -67 -40.5 -109.5t-115.5 -42.5q-72 0 -111.5 43t-39.5 109h77q5 -29 25.5 -47t48.5 -18q31 0 51.5 18t25.5 47z" />
    <glyph glyph-name="Gdotaccent" unicode="&#x120;" horiz-adv-x="648" 
d="M341 260v108h272q5 -38 5 -65q0 -88 -27 -156.5t-91 -112.5t-159 -44q-145 0 -223 88t-78 261q0 174 80.5 260.5t234.5 86.5q77 0 136 -33t89 -90l-98 -64q-48 75 -133 75q-89 0 -131 -58t-42 -177q0 -127 40 -182.5t125 -55.5q73 0 108.5 44t35.5 115h-144zM346 737
q-73 0 -73 70q0 36 20 54t53 18q30 0 51.5 -18.5t21.5 -53.5q0 -36 -21 -53t-52 -17z" />
    <glyph glyph-name="gdotaccent" unicode="&#x121;" horiz-adv-x="517" 
d="M349 456h115v-484q0 -80 -56 -129.5t-151 -49.5q-91 0 -140 41.5t-49 109.5h104q0 -22 22.5 -38.5t62.5 -16.5q41 0 63 20t22 56v73q-46 -49 -113 -49q-94 0 -143.5 61.5t-49.5 178.5q0 114 50 175.5t142 61.5q74 0 121 -47v37zM158 229q0 -128 99 -128q54 0 85 31v194
q-31 29 -85 29q-99 0 -99 -126zM269 532q-73 0 -73 70q0 36 20 54t53 18q30 0 51.5 -18.5t21.5 -53.5q0 -36 -21 -53t-52 -17z" />
    <glyph glyph-name="Gcommaaccent" unicode="&#x122;" horiz-adv-x="648" 
d="M341 260v108h272q5 -38 5 -65q0 -88 -27 -156.5t-91 -112.5t-159 -44q-145 0 -223 88t-78 261q0 174 80.5 260.5t234.5 86.5q77 0 136 -33t89 -90l-98 -64q-48 75 -133 75q-89 0 -131 -58t-42 -177q0 -127 40 -182.5t125 -55.5q73 0 108.5 44t35.5 115h-144zM417 -63
l-64 -153h-91l26 153h129z" />
    <glyph glyph-name="gcommaaccent" unicode="&#x123;" horiz-adv-x="517" 
d="M349 456h115v-484q0 -80 -56 -129.5t-151 -49.5q-91 0 -140 41.5t-49 109.5h104q0 -22 22.5 -38.5t62.5 -16.5q41 0 63 20t22 56v73q-46 -49 -113 -49q-94 0 -143.5 61.5t-49.5 178.5q0 114 50 175.5t142 61.5q74 0 121 -47v37zM158 229q0 -128 99 -128q54 0 85 31v194
q-31 29 -85 29q-99 0 -99 -126zM202 550l66 184h93l-25 -184h-134z" />
    <glyph glyph-name="Hcircumflex" unicode="&#x124;" horiz-adv-x="682" 
d="M484 404v272h131v-676h-131v296h-285v-296h-132v676h132v-272h285zM283 901h120l101 -165h-108l-53 89l-53 -89h-108z" />
    <glyph glyph-name="hcircumflex" unicode="&#x125;" horiz-adv-x="518" 
d="M54 0v690h121v-277q53 53 137 53q156 0 156 -181v-285h-121v271q0 43 -19 63.5t-64 20.5q-53 0 -89 -34v-321h-121zM208 894h120l101 -165h-108l-53 89l-53 -89h-108z" />
    <glyph glyph-name="Hbar" unicode="&#x126;" horiz-adv-x="685" 
d="M23 584h45v92h132v-92h285v92h131v-92h49v-81h-49v-503h-131v296h-285v-296h-132v503h-45v81zM485 404v99h-285v-99h285z" />
    <glyph glyph-name="hbar" unicode="&#x127;" horiz-adv-x="518" 
d="M5 606h50v84h121v-84h98v-83h-98v-110q53 53 137 53q156 0 156 -181v-285h-121v271q0 43 -19 63.5t-64 20.5q-53 0 -89 -34v-321h-121v523h-50v83z" />
    <glyph glyph-name="Itilde" unicode="&#x128;" horiz-adv-x="266" 
d="M67 0v676h132v-676h-132zM282 858l-2 -90q-40 26 -74 26q-26 0 -74.5 -21t-79.5 -21q-41 0 -70 22l2 89q25 -24 68 -24q24 0 70.5 20t83.5 20q40 0 76 -21z" />
    <glyph glyph-name="itilde" unicode="&#x129;" horiz-adv-x="231" 
d="M55 0v456h121v-456h-121zM262 653l-2 -90q-40 26 -74 26q-26 0 -74.5 -21t-79.5 -21q-41 0 -70 22l2 89q25 -24 68 -24q24 0 70.5 20t83.5 20q40 0 76 -21z" />
    <glyph glyph-name="Imacron" unicode="&#x12a;" horiz-adv-x="266" 
d="M67 0v676h132v-676h-132zM-17 858h299v-97h-299v97z" />
    <glyph glyph-name="imacron" unicode="&#x12b;" horiz-adv-x="231" 
d="M55 0v456h121v-456h-121zM-36 653h299v-97h-299v97z" />
    <glyph glyph-name="Ibreve" unicode="&#x12c;" horiz-adv-x="266" 
d="M67 0v676h132v-676h-132zM208 893h79q0 -67 -40.5 -109.5t-115.5 -42.5q-72 0 -111.5 43t-39.5 109h77q5 -29 25.5 -47t48.5 -18q31 0 51.5 18t25.5 47z" />
    <glyph glyph-name="ibreve" unicode="&#x12d;" horiz-adv-x="231" 
d="M55 0v456h121v-456h-121zM189 688h79q0 -67 -40.5 -109.5t-115.5 -42.5q-72 0 -111.5 43t-39.5 109h77q5 -29 25.5 -47t48.5 -18q31 0 51.5 18t25.5 47z" />
    <glyph glyph-name="Iogonek" unicode="&#x12e;" horiz-adv-x="266" 
d="M200 0l-69 -50q-31 -23 -31 -43q0 -13 9 -21t23 -8q31 0 68 27v-98q-50 -23 -103 -23q-56 0 -88 25t-32 71q0 56 63 107l27 21v668h132v-676h1z" />
    <glyph glyph-name="iogonek" unicode="&#x12f;" horiz-adv-x="231" 
d="M177 0l-69 -50q-31 -23 -31 -43q0 -13 9 -21t23 -8q31 0 68 27v-98q-50 -23 -103 -23q-56 0 -88 25t-32 71q0 56 63 107l39 31v438h121v-456zM115 542q-74 0 -74 70q0 36 20.5 54t53.5 18q30 0 51 -18.5t21 -53.5q0 -36 -20.5 -53t-51.5 -17z" />
    <glyph glyph-name="Idotaccent" unicode="&#x130;" horiz-adv-x="266" 
d="M67 0v676h132v-676h-132zM133 737q-73 0 -73 70q0 36 20 54t53 18q30 0 51.5 -18.5t21.5 -53.5q0 -36 -21 -53t-52 -17z" />
    <glyph glyph-name="dotlessi" unicode="&#x131;" horiz-adv-x="229" 
d="M54 0v456h121v-456h-121z" />
    <glyph glyph-name="IJ" unicode="&#x132;" horiz-adv-x="754" 
d="M66 0v676h132v-676h-132zM283 102l94 60q28 -60 91 -60q50 0 74 30.5t24 99.5v444h125v-452q0 -114 -58.5 -174t-164.5 -60q-135 0 -185 112z" />
    <glyph glyph-name="ij" unicode="&#x133;" horiz-adv-x="458" 
d="M54 0v456h121v-456h-121zM113 542q-74 0 -74 70q0 36 20.5 54t53.5 18q30 0 51 -18.5t21 -53.5q0 -36 -20.5 -53t-51.5 -17zM272 -226l-72 77q81 55 81 133v472h122v-448q0 -160 -131 -234zM341 542q-74 0 -74 70q0 36 20.5 54t53.5 18q30 0 51.5 -18.5t21.5 -53.5
q0 -36 -21 -53t-52 -17z" />
    <glyph glyph-name="Jcircumflex" unicode="&#x134;" horiz-adv-x="484" 
d="M13 102l94 60q28 -60 91 -60q50 0 74 30.5t24 99.5v444h125v-452q0 -114 -58.5 -174t-164.5 -60q-135 0 -185 112zM300 901h120l101 -165h-108l-53 89l-53 -89h-108z" />
    <glyph glyph-name="jcircumflex" unicode="&#x135;" horiz-adv-x="232" 
d="M56 696h120l101 -165h-108l-53 89l-53 -89h-108zM47 -226l-73 77q81 54 81 133v472h122v-448q0 -160 -130 -234z" />
    <glyph glyph-name="Kcommaaccent" unicode="&#x136;" horiz-adv-x="617" 
d="M283 303l-84 -89v-214h-132v676h132v-296l257 296h157l-241 -279l240 -397h-153zM358 -63l-64 -153h-91l26 153h129z" />
    <glyph glyph-name="kcommaaccent" unicode="&#x137;" horiz-adv-x="491" 
d="M486 0h-135l-117 202l-59 -58v-144h-121v690h121v-404l169 170h148l-174 -170zM325 -63l-64 -153h-91l26 153h129z" />
    <glyph glyph-name="kgreenlandic" unicode="&#x138;" horiz-adv-x="492" 
d="M486 0h-135l-117 202l-59 -58v-144h-121v456h121v-170l169 170h148l-174 -170z" />
    <glyph glyph-name="Lacute" unicode="&#x139;" horiz-adv-x="481" 
d="M199 108h268v-108h-400v676h132v-568zM155 901h123l-87 -165h-109z" />
    <glyph glyph-name="lacute" unicode="&#x13a;" horiz-adv-x="253" 
d="M51 690h121v-542q0 -22 8.5 -31.5t30.5 -9.5h22v-112h-62q-120 0 -120 135v560zM128 894h123l-87 -165h-109z" />
    <glyph glyph-name="Lcommaaccent" unicode="&#x13b;" horiz-adv-x="481" 
d="M199 108h268v-108h-400v676h132v-568zM331 -63l-64 -153h-91l26 153h129z" />
    <glyph glyph-name="lcommaaccent" unicode="&#x13c;" horiz-adv-x="253" 
d="M51 690h121v-542q0 -22 8.5 -31.5t30.5 -9.5h22v-112h-62q-120 0 -120 135v560zM214 -63l-64 -153h-91l26 153h129z" />
    <glyph glyph-name="Lcaron" unicode="&#x13d;" horiz-adv-x="534" 
d="M199 108h268v-108h-400v676h132v-568zM528 676l-64 -153h-91l26 153h129z" />
    <glyph glyph-name="lcaron" unicode="&#x13e;" horiz-adv-x="253" 
d="M51 690h121v-542q0 -22 8.5 -31.5t30.5 -9.5h22v-112h-62q-120 0 -120 135v560zM373 690l-64 -153h-91l26 153h129z" />
    <glyph glyph-name="Ldot" unicode="&#x13f;" horiz-adv-x="517" 
d="M199 108h268v-108h-400v676h132v-568zM389 307q-37 0 -61.5 23t-24.5 57q0 36 24.5 59.5t61.5 23.5q36 0 60 -23.5t24 -59.5q0 -34 -24.5 -57t-59.5 -23z" />
    <glyph glyph-name="ldot" unicode="&#x140;" horiz-adv-x="406" 
d="M51 690h121v-542q0 -22 8.5 -31.5t30.5 -9.5h22v-112h-62q-120 0 -120 135v560zM315 290q-37 0 -61.5 23t-24.5 57q0 36 24.5 59.5t61.5 23.5q36 0 60 -23.5t24 -59.5q0 -34 -24.5 -57t-59.5 -23z" />
    <glyph glyph-name="Lslash" unicode="&#x141;" horiz-adv-x="507" 
d="M225 108h268v-108h-400v247l-76 -33v94l76 33v335h132v-277l87 39v-94l-87 -39v-197z" />
    <glyph glyph-name="lslash" unicode="&#x142;" horiz-adv-x="276" 
d="M257 369l-65 -30v-191q0 -22 8.5 -31.5t30.5 -9.5h22v-112h-62q-120 0 -120 135v154l-52 -24v93l52 24v313h121v-257l65 30v-94z" />
    <glyph glyph-name="Nacute" unicode="&#x143;" horiz-adv-x="679" 
d="M481 216v460h131v-676h-135l-278 467l1 -467h-134l1 676h140zM355 901h123l-87 -165h-109z" />
    <glyph glyph-name="nacute" unicode="&#x144;" horiz-adv-x="517" 
d="M54 0v456h117v-52q44 62 141 62q156 0 156 -181v-285h-122v271q0 43 -19 63.5t-63 20.5q-53 0 -89 -34v-321h-121zM286 696h123l-87 -165h-109z" />
    <glyph glyph-name="Ncommaaccent" unicode="&#x145;" horiz-adv-x="679" 
d="M481 216v460h131v-676h-135l-278 467l1 -467h-134l1 676h140zM412 -63l-64 -153h-91l26 153h129z" />
    <glyph glyph-name="ncommaaccent" unicode="&#x146;" horiz-adv-x="517" 
d="M54 0v456h117v-52q44 62 141 62q156 0 156 -181v-285h-122v271q0 43 -19 63.5t-63 20.5q-53 0 -89 -34v-321h-121zM327 -63l-64 -153h-91l26 153h129z" />
    <glyph glyph-name="Ncaron" unicode="&#x147;" horiz-adv-x="679" 
d="M481 216v460h131v-676h-135l-278 467l1 -467h-134l1 676h140zM401 736h-120l-101 165h108l53 -89l53 89h108z" />
    <glyph glyph-name="ncaron" unicode="&#x148;" horiz-adv-x="517" 
d="M54 0v456h117v-52q44 62 141 62q156 0 156 -181v-285h-122v271q0 43 -19 63.5t-63 20.5q-53 0 -89 -34v-321h-121zM320 531h-120l-101 165h108l53 -89l53 89h108z" />
    <glyph glyph-name="napostrophe" unicode="&#x149;" horiz-adv-x="518" 
d="M55 0v456h117v-52q44 62 141 62q156 0 156 -181v-285h-122v271q0 43 -19 63.5t-63 20.5q-53 0 -89 -34v-321h-121zM112 696l-64 -153h-91l26 153h129z" />
    <glyph glyph-name="Eng" unicode="&#x14a;" horiz-adv-x="678" 
d="M480 -226l-77 82q42 26 59.5 55.5t17.5 72.5v9l-282 474l1 -467h-134l1 676h140l274 -460v460h131v-668q0 -159 -131 -234z" />
    <glyph glyph-name="eng" unicode="&#x14b;" horiz-adv-x="517" 
d="M53 0v456h117v-52q44 62 141 62q156 0 156 -181v-277q0 -161 -130 -234l-72 77q81 55 81 133v287q0 43 -19 63.5t-64 20.5q-53 0 -89 -34v-321h-121z" />
    <glyph glyph-name="Omacron" unicode="&#x14c;" horiz-adv-x="657" 
d="M176 337q0 -115 33 -175t119 -60q85 0 119 60.5t34 174.5t-34 175.5t-118 61.5t-118.5 -61.5t-34.5 -175.5zM617 337q0 -159 -70 -253t-219 -94q-150 0 -219 93.5t-69 253.5q0 161 69 255t220 94q77 0 134 -26t90 -74.5t48.5 -110t15.5 -138.5zM180 858h299v-97h-299v97z
" />
    <glyph glyph-name="omacron" unicode="&#x14d;" horiz-adv-x="499" 
d="M251 466q104 0 159 -65t55 -172q0 -110 -55 -175t-163 -65q-104 0 -158.5 66t-54.5 172q0 109 54.5 174t162.5 65zM249 98q92 0 92 129q0 130 -93 130q-91 0 -91 -128q0 -131 92 -131zM100 653h299v-97h-299v97z" />
    <glyph glyph-name="Obreve" unicode="&#x14e;" horiz-adv-x="657" 
d="M176 337q0 -115 33 -175t119 -60q85 0 119 60.5t34 174.5t-34 175.5t-118 61.5t-118.5 -61.5t-34.5 -175.5zM617 337q0 -159 -70 -253t-219 -94q-150 0 -219 93.5t-69 253.5q0 161 69 255t220 94q77 0 134 -26t90 -74.5t48.5 -110t15.5 -138.5zM404 893h79
q0 -67 -40.5 -109.5t-115.5 -42.5q-72 0 -111.5 43t-39.5 109h77q5 -29 25.5 -47t48.5 -18q31 0 51.5 18t25.5 47z" />
    <glyph glyph-name="obreve" unicode="&#x14f;" horiz-adv-x="499" 
d="M251 466q104 0 159 -65t55 -172q0 -110 -55 -175t-163 -65q-104 0 -158.5 66t-54.5 172q0 109 54.5 174t162.5 65zM249 98q92 0 92 129q0 130 -93 130q-91 0 -91 -128q0 -131 92 -131zM324 688h79q0 -67 -40.5 -109.5t-115.5 -42.5q-72 0 -111.5 43t-39.5 109h77
q5 -29 25.5 -47t48.5 -18q31 0 51.5 18t25.5 47z" />
    <glyph glyph-name="Ohungarumlaut" unicode="&#x150;" horiz-adv-x="657" 
d="M176 337q0 -115 33 -175t119 -60q85 0 119 60.5t34 174.5t-34 175.5t-118 61.5t-118.5 -61.5t-34.5 -175.5zM617 337q0 -159 -70 -253t-219 -94q-150 0 -219 93.5t-69 253.5q0 161 69 255t220 94q77 0 134 -26t90 -74.5t48.5 -110t15.5 -138.5zM255 901h122l-87 -165
h-108zM437 901h123l-87 -165h-108z" />
    <glyph glyph-name="ohungarumlaut" unicode="&#x151;" horiz-adv-x="499" 
d="M251 466q104 0 159 -65t55 -172q0 -110 -55 -175t-163 -65q-104 0 -158.5 66t-54.5 172q0 109 54.5 174t162.5 65zM249 98q92 0 92 129q0 130 -93 130q-91 0 -91 -128q0 -131 92 -131zM168 696h122l-87 -165h-108zM350 696h123l-87 -165h-108z" />
    <glyph glyph-name="OE" unicode="&#x152;" horiz-adv-x="888" 
d="M542 108h308v-108h-440q-40 -10 -82 -10q-150 0 -219 93.5t-69 253.5q0 161 69 255t220 94q42 0 82 -10h436v-108h-305v-174h263v-108h-263v-178zM328 102q48 0 82 17v437q-36 18 -81 18q-83 0 -117.5 -61.5t-34.5 -175.5q0 -115 32.5 -175t118.5 -60z" />
    <glyph glyph-name="oe" unicode="&#x153;" horiz-adv-x="788" 
d="M576 92q61 0 112 42l56 -79q-66 -66 -168 -66q-113 0 -169 69q-52 -69 -160 -69q-104 0 -158.5 66t-54.5 172q0 109 54.5 174t162.5 65q104 0 158 -70q55 70 153 70t145.5 -57.5t47.5 -140.5q0 -46 -7 -79h-275q2 -46 28 -71.5t75 -25.5zM249 98q92 0 92 129
q0 130 -93 130q-91 0 -91 -128q0 -131 92 -131zM473 275h169q1 6 1 15q0 39 -23 59t-58 20q-42 0 -64 -26t-25 -68z" />
    <glyph glyph-name="Racute" unicode="&#x154;" horiz-adv-x="603" 
d="M67 0v676h256q118 0 181 -52.5t63 -146.5q0 -71 -40.5 -121t-116.5 -69l170 -287h-148l-154 275h-79l1 -275h-133zM431 477q0 45 -27.5 68t-94.5 23h-110v-185h110q68 0 95 23t27 71zM301 901h123l-87 -165h-109z" />
    <glyph glyph-name="racute" unicode="&#x155;" horiz-adv-x="357" 
d="M170 384h1q46 82 122 82q29 0 52 -6l-9 -128q-38 9 -73 9q-59 0 -88 -54v-287h-121v456h116v-72zM204 696h123l-87 -165h-109z" />
    <glyph glyph-name="Rcommaaccent" unicode="&#x156;" horiz-adv-x="603" 
d="M67 0v676h256q118 0 181 -52.5t63 -146.5q0 -71 -40.5 -121t-116.5 -69l170 -287h-148l-154 275h-79l1 -275h-133zM431 477q0 45 -27.5 68t-94.5 23h-110v-185h110q68 0 95 23t27 71zM362 -63l-64 -153h-91l26 153h129z" />
    <glyph glyph-name="rcommaaccent" unicode="&#x157;" horiz-adv-x="357" 
d="M170 384h1q46 82 122 82q29 0 52 -6l-9 -128q-38 9 -73 9q-59 0 -88 -54v-287h-121v456h116v-72zM181 -63l-64 -153h-91l26 153h129z" />
    <glyph glyph-name="Rcaron" unicode="&#x158;" horiz-adv-x="603" 
d="M67 0v676h256q118 0 181 -52.5t63 -146.5q0 -71 -40.5 -121t-116.5 -69l170 -287h-148l-154 275h-79l1 -275h-133zM431 477q0 45 -27.5 68t-94.5 23h-110v-185h110q68 0 95 23t27 71zM348 736h-120l-101 165h108l53 -89l53 89h108z" />
    <glyph glyph-name="rcaron" unicode="&#x159;" horiz-adv-x="358" 
d="M171 384h1q46 82 122 82q30 0 52 -6l-9 -128q-38 9 -73 9q-59 0 -88 -54v-287h-121v456h116v-72zM255 531h-120l-101 165h108l53 -89l53 89h108z" />
    <glyph glyph-name="Sacute" unicode="&#x15a;" horiz-adv-x="544" 
d="M502 586l-90 -73q-41 61 -129 61q-45 0 -70.5 -23.5t-25.5 -61.5q0 -59 70 -81l86 -26q88 -28 126.5 -73.5t38.5 -112.5q0 -96 -67.5 -151.5t-175.5 -55.5q-176 0 -242 124l90 74q22 -41 55.5 -63.5t96.5 -22.5q51 0 79 23t28 62q0 58 -76 82l-85 26q-160 50 -160 187
q0 87 57.5 146t174.5 59q150 0 219 -100zM290 901h123l-87 -165h-109z" />
    <glyph glyph-name="sacute" unicode="&#x15b;" horiz-adv-x="435" 
d="M398 399l-67 -71q-47 47 -110 47q-30 0 -46 -12.5t-16 -31.5q0 -34 42 -43l76 -18q130 -29 130 -135q0 -62 -47.5 -104t-150.5 -42q-124 0 -186 77l69 72q55 -59 122 -59q32 0 51 11.5t19 33.5q0 33 -46 43l-79 19q-120 30 -120 133q0 58 46 102.5t141 44.5
q111 0 172 -67zM241 696h123l-87 -165h-109z" />
    <glyph glyph-name="Scircumflex" unicode="&#x15c;" horiz-adv-x="544" 
d="M502 586l-90 -73q-41 61 -129 61q-45 0 -70.5 -23.5t-25.5 -61.5q0 -59 70 -81l86 -26q88 -28 126.5 -73.5t38.5 -112.5q0 -96 -67.5 -151.5t-175.5 -55.5q-176 0 -242 124l90 74q22 -41 55.5 -63.5t96.5 -22.5q51 0 79 23t28 62q0 58 -76 82l-85 26q-160 50 -160 187
q0 87 57.5 146t174.5 59q150 0 219 -100zM215 901h120l101 -165h-108l-53 89l-53 -89h-108z" />
    <glyph glyph-name="scircumflex" unicode="&#x15d;" horiz-adv-x="435" 
d="M398 399l-67 -71q-47 47 -110 47q-30 0 -46 -12.5t-16 -31.5q0 -34 42 -43l76 -18q130 -29 130 -135q0 -62 -47.5 -104t-150.5 -42q-124 0 -186 77l69 72q55 -59 122 -59q32 0 51 11.5t19 33.5q0 33 -46 43l-79 19q-120 30 -120 133q0 58 46 102.5t141 44.5
q111 0 172 -67zM161 696h120l101 -165h-108l-53 89l-53 -89h-108z" />
    <glyph glyph-name="Scedilla" unicode="&#x15e;" horiz-adv-x="544" 
d="M502 586l-90 -73q-41 61 -129 61q-45 0 -70.5 -23.5t-25.5 -61.5q0 -59 70 -81l86 -26q88 -28 126.5 -73.5t38.5 -112.5q0 -89 -57.5 -143t-152.5 -62l-15 -38q96 0 96 -81q0 -41 -31.5 -64.5t-83.5 -23.5q-54 0 -98 23v75q41 -31 88 -31q32 0 32 21q0 23 -43 23h-44
l-6 7l32 89q-145 13 -202 122l90 74q22 -41 55.5 -63.5t96.5 -22.5q51 0 79 23t28 62q0 58 -76 82l-85 26q-160 50 -160 187q0 87 57.5 146t174.5 59q150 0 219 -100z" />
    <glyph glyph-name="scedilla" unicode="&#x15f;" horiz-adv-x="436" 
d="M398 399l-67 -71q-47 47 -110 47q-30 0 -46 -12.5t-16 -31.5q0 -34 42 -43l76 -18q130 -29 130 -135q0 -56 -38 -96t-121 -48l-15 -38q96 0 96 -81q0 -41 -31.5 -64.5t-83.5 -23.5q-54 0 -98 23v75q41 -31 88 -31q32 0 32 21q0 23 -43 23h-44l-6 7l32 89q-102 10 -152 75
l69 72q55 -59 122 -59q32 0 51 11.5t19 33.5q0 33 -46 43l-79 19q-120 30 -120 133q0 58 46 102.5t141 44.5q111 0 172 -67z" />
    <glyph glyph-name="Scaron" unicode="&#x160;" horiz-adv-x="544" 
d="M502 586l-90 -73q-41 61 -129 61q-45 0 -70.5 -23.5t-25.5 -61.5q0 -59 70 -81l86 -26q88 -28 126.5 -73.5t38.5 -112.5q0 -96 -67.5 -151.5t-175.5 -55.5q-176 0 -242 124l90 74q22 -41 55.5 -63.5t96.5 -22.5q51 0 79 23t28 62q0 58 -76 82l-85 26q-160 50 -160 187
q0 87 57.5 146t174.5 59q150 0 219 -100zM335 736h-120l-101 165h108l53 -89l53 89h108z" />
    <glyph glyph-name="scaron" unicode="&#x161;" horiz-adv-x="435" 
d="M398 399l-67 -71q-47 47 -110 47q-30 0 -46 -12.5t-16 -31.5q0 -34 42 -43l76 -18q130 -29 130 -135q0 -62 -47.5 -104t-150.5 -42q-124 0 -186 77l69 72q55 -59 122 -59q32 0 51 11.5t19 33.5q0 33 -46 43l-79 19q-120 30 -120 133q0 58 46 102.5t141 44.5
q111 0 172 -67zM283 531h-120l-101 165h108l53 -89l53 89h108z" />
    <glyph glyph-name="Tcommaaccent" unicode="&#x162;" horiz-adv-x="547" 
d="M27 676h493v-108h-181v-568h-28l-19 -47q96 0 96 -81q0 -41 -31.5 -64.5t-83.5 -23.5q-54 0 -98 23v75q41 -31 88 -31q32 0 32 21q0 23 -43 23h-44l-6 7l35 98h-30v568h-180v108z" />
    <glyph glyph-name="tcommaaccent" unicode="&#x163;" horiz-adv-x="352" 
d="M220 354v-204q0 -49 50 -49q27 0 54 8l2 -105q-35 -13 -87 -15l-14 -36q96 0 96 -81q0 -41 -31.5 -64.5t-83.5 -23.5q-54 0 -98 23v75q41 -31 88 -31q32 0 32 21q0 23 -43 23h-44l-6 7l35 98q-71 28 -71 133v221h-83v92l83 10v111l121 19v-130h102v-102h-102z" />
    <glyph glyph-name="Tcaron" unicode="&#x164;" horiz-adv-x="547" 
d="M27 676h493v-108h-181v-568h-132v568h-180v108zM334 736h-120l-101 165h108l53 -89l53 89h108z" />
    <glyph glyph-name="tcaron" unicode="&#x165;" horiz-adv-x="352" 
d="M220 354v-204q0 -49 50 -49q27 0 54 8l2 -105q-38 -15 -97 -15q-67 0 -98.5 39t-31.5 105v221h-83v92l83 10v111l121 19v-130h102v-102h-102zM462 690l-64 -153h-91l26 153h129z" />
    <glyph glyph-name="Tbar" unicode="&#x166;" horiz-adv-x="550" 
d="M122 367h87v201h-180v108h493v-108h-181v-201h87v-83h-87v-284h-132v284h-87v83z" />
    <glyph glyph-name="tbar" unicode="&#x167;" horiz-adv-x="354" 
d="M36 284h65v70h-83v92l83 10v111l121 19v-130h102v-102h-102v-70h83v-83h-83v-51q0 -49 50 -49q27 0 54 8l2 -105q-38 -15 -97 -15q-67 0 -98.5 39t-31.5 105v68h-65v83z" />
    <glyph glyph-name="Utilde" unicode="&#x168;" horiz-adv-x="644" 
d="M322 -10q-121 0 -191 66t-70 202v418h132v-415q0 -82 31 -120.5t98 -38.5t98 38.5t31 120.5v415h132v-418q0 -136 -70 -202t-191 -66zM472 858l-2 -90q-40 26 -74 26q-26 0 -74.5 -21t-79.5 -21q-41 0 -70 22l2 89q25 -24 68 -24q24 0 70.5 20t83.5 20q40 0 76 -21z" />
    <glyph glyph-name="utilde" unicode="&#x169;" horiz-adv-x="517" 
d="M409 653l-2 -90q-40 26 -74 26q-26 0 -74.5 -21t-79.5 -21q-41 0 -70 22l2 89q25 -24 68 -24q24 0 70.5 20t83.5 20q40 0 76 -21zM463 456v-456h-117v52q-44 -62 -141 -62q-156 0 -156 181v285h122v-271q0 -43 19 -63.5t63 -20.5q53 0 89 34v321h121z" />
    <glyph glyph-name="Umacron" unicode="&#x16a;" horiz-adv-x="644" 
d="M322 -10q-121 0 -191 66t-70 202v418h132v-415q0 -82 31 -120.5t98 -38.5t98 38.5t31 120.5v415h132v-418q0 -136 -70 -202t-191 -66zM173 858h299v-97h-299v97z" />
    <glyph glyph-name="umacron" unicode="&#x16b;" horiz-adv-x="517" 
d="M111 653h299v-97h-299v97zM463 456v-456h-117v52q-44 -62 -141 -62q-156 0 -156 181v285h122v-271q0 -43 19 -63.5t63 -20.5q53 0 89 34v321h121z" />
    <glyph glyph-name="Ubreve" unicode="&#x16c;" horiz-adv-x="644" 
d="M322 -10q-121 0 -191 66t-70 202v418h132v-415q0 -82 31 -120.5t98 -38.5t98 38.5t31 120.5v415h132v-418q0 -136 -70 -202t-191 -66zM397 893h79q0 -67 -40.5 -109.5t-115.5 -42.5q-72 0 -111.5 43t-39.5 109h77q5 -29 25.5 -47t48.5 -18q31 0 51.5 18t25.5 47z" />
    <glyph glyph-name="ubreve" unicode="&#x16d;" horiz-adv-x="517" 
d="M332 688h79q0 -67 -40.5 -109.5t-115.5 -42.5q-72 0 -111.5 43t-39.5 109h77q5 -29 25.5 -47t48.5 -18q31 0 51.5 18t25.5 47zM463 456v-456h-117v52q-44 -62 -141 -62q-156 0 -156 181v285h122v-271q0 -43 19 -63.5t63 -20.5q53 0 89 34v321h121z" />
    <glyph glyph-name="Uring" unicode="&#x16e;" horiz-adv-x="644" 
d="M322 -10q-121 0 -191 66t-70 202v418h132v-415q0 -82 31 -120.5t98 -38.5t98 38.5t31 120.5v415h132v-418q0 -136 -70 -202t-191 -66zM213 824q0 42 28 71.5t79 29.5q54 0 83 -29.5t29 -71.5q0 -39 -29.5 -69t-82.5 -30q-50 0 -78.5 30t-28.5 69zM280 824q0 -15 11 -26.5
t29 -11.5q21 0 32 11t11 27q0 17 -11 28.5t-32 11.5q-18 0 -29 -12t-11 -28z" />
    <glyph glyph-name="uring" unicode="&#x16f;" horiz-adv-x="517" 
d="M146 619q0 42 28 71.5t79 29.5q53 0 82.5 -29t29.5 -72q0 -39 -29.5 -69t-82.5 -30q-50 0 -78.5 30t-28.5 69zM213 619q0 -15 10.5 -26.5t29.5 -11.5q21 0 32 11t11 27q0 17 -11 28.5t-32 11.5q-19 0 -29.5 -12t-10.5 -28zM463 456v-456h-117v52q-44 -62 -141 -62
q-156 0 -156 181v285h122v-271q0 -43 19 -63.5t63 -20.5q53 0 89 34v321h121z" />
    <glyph glyph-name="Uhungarumlaut" unicode="&#x170;" horiz-adv-x="644" 
d="M322 -10q-121 0 -191 66t-70 202v418h132v-415q0 -82 31 -120.5t98 -38.5t98 38.5t31 120.5v415h132v-418q0 -136 -70 -202t-191 -66zM250 901h122l-87 -165h-108zM432 901h123l-87 -165h-108z" />
    <glyph glyph-name="uhungarumlaut" unicode="&#x171;" horiz-adv-x="518" 
d="M463 456v-456h-117v52q-44 -62 -141 -62q-156 0 -156 181v285h122v-271q0 -43 19 -63.5t63 -20.5q53 0 89 34v321h121zM177 696h122l-87 -165h-108zM359 696h123l-87 -165h-108z" />
    <glyph glyph-name="Uogonek" unicode="&#x172;" horiz-adv-x="644" 
d="M583 258q0 -114 -49.5 -178.5t-137.5 -82.5l-65 -47q-31 -23 -31 -43q0 -13 9 -21t23 -8q31 0 68 27v-98q-50 -23 -103 -23q-56 0 -88 25t-32 71q0 56 63 107l11 10q-90 17 -140 81.5t-50 179.5v418h132v-415q0 -82 31 -120.5t98 -38.5t98 38.5t31 120.5v415h132v-418z
" />
    <glyph glyph-name="uogonek" unicode="&#x173;" horiz-adv-x="517" 
d="M464 0l-69 -50q-31 -23 -31 -43q0 -13 9 -21t23 -8q31 0 68 27v-98q-50 -23 -103 -23q-56 0 -88 25t-32 71q0 56 63 107l42 33v32q-44 -62 -141 -62q-156 0 -156 181v285h122v-271q0 -43 19 -63.5t63 -20.5q53 0 89 34v321h121v-456h1z" />
    <glyph glyph-name="Wcircumflex" unicode="&#x174;" horiz-adv-x="969" 
d="M409 676h150l137 -529l126 529h136l-176 -676h-162l-135 497l-136 -497h-161l-177 676h136l127 -529zM425 901h120l101 -165h-108l-53 89l-53 -89h-108z" />
    <glyph glyph-name="wcircumflex" unicode="&#x175;" horiz-adv-x="768" 
d="M327 456h114l98 -328l92 328h125l-140 -456h-132l-100 302l-99 -302h-133l-140 456h124l94 -328zM324 696h120l101 -165h-108l-53 89l-53 -89h-108z" />
    <glyph glyph-name="Ycircumflex" unicode="&#x176;" horiz-adv-x="591" 
d="M361 0h-132v263l-228 413h145l151 -295l147 295h146l-229 -413v-263zM236 901h120l101 -165h-108l-53 89l-53 -89h-108z" />
    <glyph glyph-name="ycircumflex" unicode="&#x177;" horiz-adv-x="489" 
d="M140 456l111 -297l102 297h130l-267 -672h-123l98 236l-187 436h136zM189 696h120l101 -165h-108l-53 89l-53 -89h-108z" />
    <glyph glyph-name="Ydieresis" unicode="&#x178;" horiz-adv-x="591" 
d="M361 0h-132v263l-228 413h145l151 -295l147 295h146l-229 -413v-263zM198 737q-72 0 -72 70q0 36 19.5 54t52.5 18q30 0 51.5 -18.5t21.5 -53.5q0 -36 -21 -53t-52 -17zM395 737q-73 0 -73 70q0 36 20 54t53 18q30 0 51 -18.5t21 -53.5q0 -36 -20.5 -53t-51.5 -17z" />
    <glyph glyph-name="Zacute" unicode="&#x179;" horiz-adv-x="522" 
d="M479 676v-95l-294 -473h305v-108h-460v93l296 475h-281v108h434zM281 901h123l-87 -165h-109z" />
    <glyph glyph-name="zacute" unicode="&#x17a;" horiz-adv-x="418" 
d="M381 456v-79l-196 -274h195v-103h-347v79l198 274h-189v103h339zM236 696h123l-87 -165h-109z" />
    <glyph glyph-name="Zdotaccent" unicode="&#x17b;" horiz-adv-x="522" 
d="M479 676v-95l-294 -473h305v-108h-460v93l296 475h-281v108h434zM263 737q-73 0 -73 70q0 36 20 54t53 18q30 0 51.5 -18.5t21.5 -53.5q0 -36 -21 -53t-52 -17z" />
    <glyph glyph-name="zdotaccent" unicode="&#x17c;" horiz-adv-x="418" 
d="M381 456v-79l-196 -274h195v-103h-347v79l198 274h-189v103h339zM225 532q-73 0 -73 70q0 36 20 54t53 18q30 0 51.5 -18.5t21.5 -53.5q0 -36 -21 -53t-52 -17z" />
    <glyph glyph-name="Zcaron" unicode="&#x17d;" horiz-adv-x="522" 
d="M479 676v-95l-294 -473h305v-108h-460v93l296 475h-281v108h434zM322 736h-120l-101 165h108l53 -89l53 89h108z" />
    <glyph glyph-name="zcaron" unicode="&#x17e;" horiz-adv-x="418" 
d="M381 456v-79l-196 -274h195v-103h-347v79l198 274h-189v103h339zM276 531h-120l-101 165h108l53 -89l53 89h108z" />
    <glyph glyph-name="florin" unicode="&#x192;" horiz-adv-x="360" 
d="M232 352v-427q0 -64 -37 -107.5t-107 -43.5q-57 0 -85 12v104q25 -7 56 -7t43.5 16t12.5 49v404h-88v104h88v93q0 64 38 107.5t112 43.5q50 0 78 -12v-104q-31 7 -56 7q-29 0 -42 -14.5t-13 -48.5v-72h96v-104h-96z" />
    <glyph glyph-name="Aringacute" unicode="&#x1fa;" horiz-adv-x="621" 
d="M204 812q0 33 17.5 58.5t49.5 34.5l52 87h115l-67 -95q50 -27 50 -85q0 -40 -29.5 -69t-81.5 -29q-50 0 -78 29t-28 69zM269 812q0 -17 11 -28.5t30 -11.5q21 0 33 11.5t12 28.5q0 18 -12 30t-33 12q-19 0 -30 -12t-11 -30zM482 0l-49 153h-245l-49 -153h-140l236 676
h151l237 -676h-141zM311 541l-90 -280h180z" />
    <glyph glyph-name="aringacute" unicode="&#x1fb;" horiz-adv-x="473" 
d="M136 609q0 36 21 63t59 34l39 77h112l-64 -89q50 -26 50 -85q0 -40 -29.5 -69t-81.5 -29q-50 0 -78 29t-28 69zM201 609q0 -16 11 -27.5t30 -11.5q21 0 33 11.5t12 27.5q0 18 -12 30t-33 12q-19 0 -30 -12t-11 -30zM423 0h-114v53q-55 -64 -145 -64q-60 0 -97 36t-37 97
q0 138 221 153l50 4v29q0 31 -16.5 47t-56.5 16q-34 0 -52 -12t-18 -32v-18h-105q-3 15 -3 31q0 57 50.5 91.5t135.5 34.5q88 0 137.5 -38.5t49.5 -118.5v-309zM153 130q0 -49 57 -49q52 0 91 39v86l-49 -7q-99 -14 -99 -69z" />
    <glyph glyph-name="AEacute" unicode="&#x1fc;" horiz-adv-x="945" 
d="M634 901h123l-87 -165h-109zM292 259h175v291zM131 0h-140l437 676h476v-108h-305v-174h263v-108h-263v-184h308v-102h-440v155h-239z" />
    <glyph glyph-name="aeacute" unicode="&#x1fd;" horiz-adv-x="740" 
d="M400 696h123l-87 -165h-109zM528 92q61 0 112 42l57 -79q-68 -66 -169 -66q-114 0 -172 69q-67 -69 -175 -69q-73 0 -112.5 35.5t-39.5 97.5q0 138 221 153l51 4v29q0 63 -74 63q-34 0 -52 -12t-18 -32v-18h-105q-2 20 -2 31q0 57 50 91.5t135 34.5q100 0 145 -51
q51 51 134 51q98 0 145.5 -57.5t47.5 -140.5q0 -46 -7 -79h-275q5 -97 103 -97zM152 130q0 -49 57 -49q51 0 92 39v86l-50 -7q-99 -14 -99 -69zM425 275h169q1 6 1 15q0 39 -23 59t-58 20q-42 0 -64 -26t-25 -68z" />
    <glyph glyph-name="Oslashacute" unicode="&#x1fe;" horiz-adv-x="660" 
d="M342 901h115l-81 -163h-102zM618 337q0 -159 -70 -253t-219 -94q-105 0 -172 48l-29 -38h-107l76 100q-56 85 -56 237q0 161 69 255t220 94q105 0 175 -51l31 41h109l-81 -106q54 -87 54 -233zM177 337q0 -71 11 -118l242 317q-36 38 -100 38q-84 0 -118.5 -61.5
t-34.5 -175.5zM482 337q0 68 -11 112l-240 -314q36 -33 98 -33q85 0 119 60.5t34 174.5z" />
    <glyph glyph-name="oslashacute" unicode="&#x1ff;" horiz-adv-x="499" 
d="M251 466q68 0 115 -29l15 19h93l-53 -69q44 -62 44 -158q0 -110 -55 -175t-163 -65q-66 0 -113 28l-13 -17h-91l50 65q-46 62 -46 162q0 109 54.5 174t162.5 65zM157 229q0 -30 5 -57l134 173q-20 12 -48 12q-91 0 -91 -128zM249 98q92 0 92 129q0 26 -5 51l-132 -170
q19 -10 45 -10zM263 696h123l-87 -165h-109z" />
    <glyph glyph-name="Scommaaccent" unicode="&#x218;" horiz-adv-x="544" 
d="M502 586l-90 -73q-41 61 -129 61q-45 0 -70.5 -23.5t-25.5 -61.5q0 -59 70 -81l86 -26q88 -28 126.5 -73.5t38.5 -112.5q0 -96 -67.5 -151.5t-175.5 -55.5q-176 0 -242 124l90 74q22 -41 55.5 -63.5t96.5 -22.5q51 0 79 23t28 62q0 58 -76 82l-85 26q-160 50 -160 187
q0 87 57.5 146t174.5 59q150 0 219 -100zM344 -63l-64 -153h-91l26 153h129z" />
    <glyph glyph-name="scommaaccent" unicode="&#x219;" horiz-adv-x="435" 
d="M398 399l-67 -71q-47 47 -110 47q-30 0 -46 -12.5t-16 -31.5q0 -34 42 -43l76 -18q130 -29 130 -135q0 -62 -47.5 -104t-150.5 -42q-124 0 -186 77l69 72q55 -59 122 -59q32 0 51 11.5t19 33.5q0 33 -46 43l-79 19q-120 30 -120 133q0 58 46 102.5t141 44.5
q111 0 172 -67zM294 -63l-64 -153h-91l26 153h129z" />
    <glyph glyph-name="uni021A" unicode="&#x21a;" horiz-adv-x="547" 
d="M27 676h493v-108h-181v-568h-132v568h-180v108zM336 -63l-64 -153h-91l26 153h129z" />
    <glyph glyph-name="uni021B" unicode="&#x21b;" horiz-adv-x="352" 
d="M220 354v-204q0 -49 50 -49q27 0 54 8l2 -105q-38 -15 -97 -15q-67 0 -98.5 39t-31.5 105v221h-83v92l83 10v111l121 19v-130h102v-102h-102zM273 -63l-64 -153h-91l26 153h129z" />
    <glyph glyph-name="dotlessj" unicode="&#x237;" horiz-adv-x="230" 
d="M46 -226l-73 77q81 54 81 133v472h122v-448q0 -160 -130 -234z" />
    <glyph glyph-name="circumflex" unicode="&#x2c6;" horiz-adv-x="600" 
d="M240 696h120l101 -165h-108l-53 89l-53 -89h-108z" />
    <glyph glyph-name="caron" unicode="&#x2c7;" horiz-adv-x="600" 
d="M360 531h-120l-101 165h108l53 -89l53 89h108z" />
    <glyph glyph-name="breve" unicode="&#x2d8;" horiz-adv-x="600" 
d="M374 688h79q0 -67 -40.5 -109.5t-115.5 -42.5q-72 0 -111.5 43t-39.5 109h77q5 -29 25.5 -47t48.5 -18q31 0 51.5 18t25.5 47z" />
    <glyph glyph-name="dotaccent" unicode="&#x2d9;" horiz-adv-x="600" 
d="M300 532q-73 0 -73 70q0 36 20 54t53 18q30 0 51.5 -18.5t21.5 -53.5q0 -36 -21 -53t-52 -17z" />
    <glyph glyph-name="ring" unicode="&#x2da;" horiz-adv-x="600" 
d="M190 619q0 42 28 71.5t79 29.5q53 0 82.5 -29t29.5 -72q0 -39 -29.5 -69t-82.5 -30q-50 0 -78.5 30t-28.5 69zM257 619q0 -15 10.5 -26.5t29.5 -11.5q21 0 32 11t11 27q0 17 -11 28.5t-32 11.5q-19 0 -29.5 -12t-10.5 -28z" />
    <glyph glyph-name="ogonek" unicode="&#x2db;" horiz-adv-x="600" 
d="M417 0l-69 -50q-31 -23 -31 -43q0 -13 9 -21t23 -8q31 0 68 27v-98q-50 -23 -103 -23q-56 0 -88 25t-32 71q0 56 63 107l45 36z" />
    <glyph glyph-name="tilde" unicode="&#x2dc;" horiz-adv-x="600" 
d="M450 653l-2 -90q-40 26 -74 26q-26 0 -74.5 -21t-79.5 -21q-41 0 -70 22l2 89q25 -24 68 -24q24 0 70.5 20t83.5 20q40 0 76 -21z" />
    <glyph glyph-name="hungarumlaut" unicode="&#x2dd;" horiz-adv-x="600" 
d="M184 696h122l-87 -165h-108zM366 696h123l-87 -165h-108z" />
    <glyph glyph-name="uni0394" unicode="&#x394;" horiz-adv-x="659" 
d="M-4 0l262 676h144l261 -676h-667zM488 102l-159 443l-158 -443h317z" />
    <glyph glyph-name="uni03A9" unicode="&#x3a9;" horiz-adv-x="722" 
d="M42 102h142q-58 49 -96 117.5t-38 146.5q0 63 17 118.5t52.5 102t97 73.5t142.5 27q83 0 145 -27t98 -73.5t53 -101.5t17 -119q0 -78 -38 -146.5t-97 -117.5h143v-102h-276v102q56 44 94 111.5t38 143.5q0 98 -43 158t-134 60q-89 0 -131 -60t-42 -158q0 -76 38 -143.5
t94 -111.5v-102h-276v102z" />
    <glyph glyph-name="uni03BC" unicode="&#x3bc;" horiz-adv-x="522" 
d="M175 -216h-121v672h121v-279q2 -39 21.5 -57.5t61.5 -18.5q24 0 49 10t39 24v321h121v-456h-117v52q-44 -62 -140 -62q-18 0 -35 3v-209z" />
    <glyph glyph-name="pi" unicode="&#x3c0;" horiz-adv-x="592" 
d="M109 0v354h-92v102h543v-102h-93v-205q0 -49 50 -49q18 0 29 1v-107q-37 -5 -67 -5q-68 0 -99 39t-31 105v221h-122v-354h-118z" />
    <glyph glyph-name="Wgrave" unicode="&#x1e80;" horiz-adv-x="969" 
d="M409 676h150l137 -529l126 529h136l-176 -676h-162l-135 497l-136 -497h-161l-177 676h136l127 -529zM344 901h123l73 -165h-109z" />
    <glyph glyph-name="wgrave" unicode="&#x1e81;" horiz-adv-x="768" 
d="M327 456h114l98 -328l92 328h125l-140 -456h-132l-100 302l-99 -302h-133l-140 456h124l94 -328zM246 696h123l73 -165h-109z" />
    <glyph glyph-name="Wacute" unicode="&#x1e82;" horiz-adv-x="969" 
d="M409 676h150l137 -529l126 529h136l-176 -676h-162l-135 497l-136 -497h-161l-177 676h136l127 -529zM504 901h123l-87 -165h-109z" />
    <glyph glyph-name="wacute" unicode="&#x1e83;" horiz-adv-x="768" 
d="M327 456h114l98 -328l92 328h125l-140 -456h-132l-100 302l-99 -302h-133l-140 456h124l94 -328zM401 696h123l-87 -165h-109z" />
    <glyph glyph-name="Wdieresis" unicode="&#x1e84;" horiz-adv-x="969" 
d="M409 676h150l137 -529l126 529h136l-176 -676h-162l-135 497l-136 -497h-161l-177 676h136l127 -529zM387 737q-72 0 -72 70q0 36 19.5 54t52.5 18q30 0 51.5 -18.5t21.5 -53.5q0 -36 -21 -53t-52 -17zM584 737q-73 0 -73 70q0 36 20 54t53 18q30 0 51 -18.5t21 -53.5
q0 -36 -20.5 -53t-51.5 -17z" />
    <glyph glyph-name="wdieresis" unicode="&#x1e85;" horiz-adv-x="768" 
d="M327 456h114l98 -328l92 328h125l-140 -456h-132l-100 302l-99 -302h-133l-140 456h124l94 -328zM286 532q-72 0 -72 70q0 36 19.5 54t52.5 18q30 0 51.5 -18.5t21.5 -53.5q0 -36 -21 -53t-52 -17zM483 532q-73 0 -73 70q0 36 20 54t53 18q30 0 51 -18.5t21 -53.5
q0 -36 -20.5 -53t-51.5 -17z" />
    <glyph glyph-name="Ygrave" unicode="&#x1ef2;" horiz-adv-x="591" 
d="M361 0h-132v263l-228 413h145l151 -295l147 295h146l-229 -413v-263zM160 901h123l73 -165h-109z" />
    <glyph glyph-name="ygrave" unicode="&#x1ef3;" horiz-adv-x="489" 
d="M140 456l111 -297l102 297h130l-267 -672h-123l98 236l-187 436h136zM115 696h123l73 -165h-109z" />
    <glyph glyph-name="endash" unicode="&#x2013;" horiz-adv-x="593" 
d="M52 322h488v-103h-488v103z" />
    <glyph glyph-name="emdash" unicode="&#x2014;" horiz-adv-x="733" 
d="M52 322h628v-103h-628v103z" />
    <glyph glyph-name="quoteleft" unicode="&#x2018;" horiz-adv-x="230" 
d="M35 421l64 255h91l-25 -255h-130z" />
    <glyph glyph-name="quoteright" unicode="&#x2019;" horiz-adv-x="223" 
d="M200 676l-65 -255h-91l25 255h131z" />
    <glyph glyph-name="quotesinglbase" unicode="&#x201a;" horiz-adv-x="235" 
d="M191 147l-65 -256h-91l25 256h131z" />
    <glyph glyph-name="quotedblleft" unicode="&#x201c;" horiz-adv-x="405" 
d="M210 421l64 255h91l-25 -255h-130zM35 421l64 255h91l-25 -255h-130z" />
    <glyph glyph-name="quotedblright" unicode="&#x201d;" horiz-adv-x="398" 
d="M200 676l-65 -255h-91l25 255h131zM375 676l-65 -255h-90l25 255h130z" />
    <glyph glyph-name="quotedblbase" unicode="&#x201e;" horiz-adv-x="410" 
d="M190 146l-65 -255h-90l25 255h130zM365 146l-65 -255h-90l25 255h130z" />
    <glyph glyph-name="dagger" unicode="&#x2020;" horiz-adv-x="423" 
d="M25 308h146v382h80v-382h146v-76h-146v-448h-80v448h-146v76z" />
    <glyph glyph-name="daggerdbl" unicode="&#x2021;" horiz-adv-x="463" 
d="M45 449h147v241h80v-241h145v-76h-145v-268h145v-76h-145v-245h-80v245h-147v76h147v268h-147v76z" />
    <glyph glyph-name="bullet" unicode="&#x2022;" horiz-adv-x="402" 
d="M201 137q-61 0 -100 37.5t-39 94.5t39 94.5t100 37.5q60 0 99.5 -37.5t39.5 -94.5t-39.5 -94.5t-99.5 -37.5z" />
    <glyph glyph-name="ellipsis" unicode="&#x2026;" horiz-adv-x="688" 
d="M119 -6q-35 0 -57.5 21.5t-22.5 53.5q0 33 22.5 55t57.5 22q34 0 56.5 -22t22.5 -55q0 -32 -22.5 -53.5t-56.5 -21.5zM570 -6q-34 0 -56.5 21.5t-22.5 53.5q0 33 22.5 55t56.5 22t56.5 -22t22.5 -55q0 -32 -22.5 -53.5t-56.5 -21.5zM348 -6q-34 0 -57 21.5t-23 53.5
q0 33 23 55t57 22t57 -22t23 -55q0 -32 -23 -53.5t-57 -21.5z" />
    <glyph glyph-name="perthousand" unicode="&#x2030;" horiz-adv-x="1189" 
d="M670 676l-403 -676h-95l400 676h98zM657 65q36 0 50 28t14 89q0 62 -14 90t-50 28q-35 0 -49.5 -28t-14.5 -90q0 -61 14.5 -89t49.5 -28zM657 371q156 0 156 -189q0 -188 -156 -188t-156 188q0 189 156 189zM186 376q36 0 50 28t14 89q0 62 -14 90t-50 28
q-35 0 -49.5 -28t-14.5 -90q0 -61 14.5 -89t49.5 -28zM186 682q156 0 156 -189q0 -188 -156 -188t-156 188q0 189 156 189zM1003 65q36 0 50 28t14 89q0 62 -14 90t-50 28q-35 0 -49.5 -28t-14.5 -90q0 -61 14.5 -89t49.5 -28zM1003 371q156 0 156 -189q0 -188 -156 -188
t-156 188q0 189 156 189z" />
    <glyph glyph-name="guilsinglleft" unicode="&#x2039;" horiz-adv-x="332" 
d="M20 270l199 230l77 -54l-133 -177l133 -177l-77 -53z" />
    <glyph glyph-name="guilsinglright" unicode="&#x203a;" horiz-adv-x="332" 
d="M114 500l199 -230l-199 -231l-78 53l133 177l-132 177z" />
    <glyph glyph-name="fraction" unicode="&#x2044;" horiz-adv-x="192" 
d="M345 676l-403 -676h-95l400 676h98z" />
    <glyph glyph-name="zerosuperior" unicode="&#x2070;" horiz-adv-x="370" 
d="M185 486q36 0 50 28t14 89q0 62 -14 90t-50 28q-35 0 -49.5 -28t-14.5 -90q0 -61 14.5 -89t49.5 -28zM185 792q156 0 156 -189q0 -188 -156 -188t-156 188q0 189 156 189z" />
    <glyph glyph-name="foursuperior" unicode="&#x2074;" horiz-adv-x="347" 
d="M323 558v-68h-41v-67h-88v67h-178v59l172 239h94v-230h41zM108 558h86v120z" />
    <glyph glyph-name="fivesuperior" unicode="&#x2075;" horiz-adv-x="328" 
d="M303 540q0 -55 -38 -89t-107 -34q-68 0 -102.5 28.5t-34.5 77.5h89q0 -35 48 -35q53 0 53 52q0 22 -14 36t-39 14q-29 0 -49 -16l-70 12l26 202h220v-68h-148l-9 -69q22 9 50 9q53 0 89 -29t36 -91z" />
    <glyph glyph-name="sixsuperior" unicode="&#x2076;" horiz-adv-x="351" 
d="M121 560q0 -74 58 -74q53 0 53 52q0 24 -13.5 38t-39.5 14q-38 0 -58 -30zM185 721q-63 0 -63 -87q33 22 82 22q55 0 87.5 -31.5t32.5 -85.5q0 -53 -37.5 -88.5t-107.5 -35.5q-76 0 -113 48t-37 126q0 93 37.5 148t118.5 55q67 0 99 -29t32 -75h-89q0 33 -42 33z" />
    <glyph glyph-name="sevensuperior" unicode="&#x2077;" horiz-adv-x="297" 
d="M43 423l141 297h-166v68h267v-59l-146 -306h-96z" />
    <glyph glyph-name="eightsuperior" unicode="&#x2078;" horiz-adv-x="355" 
d="M178 416q-69 0 -109 28t-40 78q0 66 69 87q-62 20 -62 79q0 49 37.5 77t104.5 28t104 -28t37 -77q0 -59 -61 -79q69 -21 69 -87q0 -50 -40 -78t-109 -28zM178 574q-26 0 -41.5 -12t-15.5 -33q0 -19 17 -30.5t41 -11.5q23 0 39 11.5t16 30.5q0 21 -15 33t-41 12zM178 722
q-49 0 -49 -39q0 -41 49 -41t49 41q0 39 -49 39z" />
    <glyph glyph-name="ninesuperior" unicode="&#x2079;" horiz-adv-x="351" 
d="M230 647q0 74 -56 74q-54 0 -54 -52q0 -24 14 -38t40 -14q36 0 56 30zM35 519h90q0 -33 41 -33q65 0 65 87q-31 -23 -83 -23q-55 0 -87.5 31.5t-32.5 86.5q0 53 38 88.5t108 35.5q75 0 111.5 -48.5t36.5 -126.5q0 -202 -156 -202q-66 0 -98.5 29t-32.5 75z" />
    <glyph glyph-name="zeroinferior" unicode="&#x2080;" horiz-adv-x="370" 
d="M185 -35q36 0 50 28t14 89q0 62 -14 90t-50 28q-35 0 -49.5 -28t-14.5 -90q0 -61 14.5 -89t49.5 -28zM185 271q156 0 156 -189q0 -188 -156 -188t-156 188q0 189 156 189z" />
    <glyph glyph-name="oneinferior" unicode="&#x2081;" horiz-adv-x="255" 
d="M210 -100h-90v285l-97 -35l-21 65l131 50h77v-365z" />
    <glyph glyph-name="twoinferior" unicode="&#x2082;" horiz-adv-x="324" 
d="M159 271q60 0 97 -32t37 -83q0 -34 -21.5 -65t-60.5 -69l-59 -54h142v-68h-260v58l118 115q49 46 49 83q0 20 -11 32t-31 12q-45 0 -45 -53h-89q0 57 34 90.5t100 33.5z" />
    <glyph glyph-name="threeinferior" unicode="&#x2083;" horiz-adv-x="336" 
d="M236 85q31 -8 51 -31.5t20 -54.5q0 -47 -39.5 -76t-104.5 -29q-70 0 -104 28.5t-34 77.5h89q0 -35 49 -35q23 0 37.5 10t14.5 29q0 47 -66 47h-39v68h39q60 0 60 43q0 18 -12.5 28t-33.5 10q-20 0 -32 -9t-12 -24h-89q0 46 33.5 75t99.5 29q63 0 100.5 -29t37.5 -75
q0 -29 -18 -51.5t-47 -30.5z" />
    <glyph glyph-name="fourinferior" unicode="&#x2084;" horiz-adv-x="347" 
d="M323 35v-68h-41v-67h-88v67h-178v59l172 239h94v-230h41zM108 35h86v120z" />
    <glyph glyph-name="fiveinferior" unicode="&#x2085;" horiz-adv-x="328" 
d="M303 17q0 -55 -38 -89t-107 -34q-68 0 -102.5 28.5t-34.5 77.5h89q0 -35 48 -35q53 0 53 52q0 22 -14 36t-39 14q-29 0 -49 -16l-70 12l26 202h220v-68h-148l-9 -69q22 9 50 9q53 0 89 -29t36 -91z" />
    <glyph glyph-name="sixinferior" unicode="&#x2086;" horiz-adv-x="351" 
d="M121 39q0 -74 58 -74q53 0 53 52q0 24 -13.5 38t-39.5 14q-38 0 -58 -30zM185 200q-63 0 -63 -87q33 22 82 22q55 0 87.5 -31.5t32.5 -85.5q0 -53 -37.5 -88.5t-107.5 -35.5q-76 0 -113 48t-37 126q0 93 37.5 148t118.5 55q67 0 99 -29t32 -75h-89q0 33 -42 33z" />
    <glyph glyph-name="seveninferior" unicode="&#x2087;" horiz-adv-x="297" 
d="M43 -100l141 297h-166v68h267v-59l-146 -306h-96z" />
    <glyph glyph-name="eightinferior" unicode="&#x2088;" horiz-adv-x="355" 
d="M178 -106q-69 0 -109 28t-40 78q0 66 69 87q-62 20 -62 79q0 49 37.5 77t104.5 28t104 -28t37 -77q0 -59 -61 -79q69 -21 69 -87q0 -50 -40 -78t-109 -28zM178 52q-26 0 -41.5 -12t-15.5 -33q0 -19 17 -30.5t41 -11.5q23 0 39 11.5t16 30.5q0 21 -15 33t-41 12zM178 200
q-49 0 -49 -39q0 -41 49 -41t49 41q0 39 -49 39z" />
    <glyph glyph-name="nineinferior" unicode="&#x2089;" horiz-adv-x="350" 
d="M230 126q0 74 -56 74q-54 0 -54 -52q0 -24 14 -38t40 -14q36 0 56 30zM35 -2h90q0 -33 41 -33q65 0 65 87q-31 -23 -83 -23q-55 0 -87.5 31.5t-32.5 86.5q0 53 38 88.5t108 35.5q75 0 111.5 -48.5t36.5 -126.5q0 -202 -156 -202q-66 0 -98.5 29t-32.5 75z" />
    <glyph glyph-name="rupee" unicode="&#x20a8;" horiz-adv-x="557" 
d="M46 676l475 1v-79h-121q32 -35 37 -89h84v-80h-85q-9 -54 -49.5 -93t-100.5 -53l167 -283h-149l-152 268h-106v100h105q70 0 104.5 13.5t47.5 47.5h-256v80h257q-13 37 -44.5 51t-100.5 14h-113v102z" />
    <glyph glyph-name="Euro" unicode="&#x20ac;" horiz-adv-x="567" 
d="M34 442h55q38 244 267 244q87 0 177 -40l-40 -106q-72 33 -140 33q-108 0 -133 -131h243l-28 -79h-222v-23q0 -23 1 -33h203l-27 -79h-164q34 -126 136 -126q71 0 137 39l31 -110q-81 -42 -174 -42q-224 0 -266 239h-56v79h47v56h-47v79z" />
    <glyph glyph-name="afii61289" unicode="&#x2113;" horiz-adv-x="378" 
d="M353 31q-51 -42 -121 -42q-54 0 -84.5 32.5t-30.5 95.5v107q-21 -21 -61 -49l-39 63q67 48 100 85v217q0 84 35 125.5t93 41.5q53 0 81.5 -35t28.5 -99q0 -74 -39.5 -141.5t-118.5 -141.5v-159q0 -30 12.5 -46t33.5 -16q38 0 81 31zM274 563q0 29 -11.5 43t-26.5 14
q-39 0 -39 -64v-165q77 82 77 172z" />
    <glyph glyph-name="uni2117" unicode="&#x2117;" horiz-adv-x="826" 
d="M39 334q0 161 106.5 265.5t267.5 104.5q162 0 268 -104t106 -266q0 -159 -106 -264.5t-268 -105.5q-161 0 -267.5 105.5t-106.5 264.5zM130 334q0 -127 79 -205t204 -78q126 0 205 78t79 205q0 128 -79 206t-205 78q-125 0 -204 -78t-79 -206zM281 525h157q78 0 117 -34
t39 -93q0 -58 -39 -90.5t-117 -32.5h-69v-135h-88v385zM501 400q0 54 -61 54h-71v-107h71q61 0 61 53z" />
    <glyph glyph-name="trademark" unicode="&#x2122;" horiz-adv-x="628" 
d="M42 607h212v-45h-79v-192h-57v192h-76v45zM430 432l41 175h79l23 -237h-56l-12 175l-45 -175h-64l-39 173l-15 -173h-56l23 237h81z" />
    <glyph glyph-name="Omega" unicode="&#x2126;" horiz-adv-x="728" 
d="M45 102h142q-58 49 -96 117.5t-38 146.5q0 63 17 118.5t52.5 102t97 73.5t142.5 27q83 0 145 -27t98 -73.5t53 -101.5t17 -119q0 -78 -38 -146.5t-97 -117.5h143v-102h-276v102q56 44 94 111.5t38 143.5q0 98 -43 158t-134 60q-89 0 -131 -60t-42 -158q0 -76 38 -143.5
t94 -111.5v-102h-276v102z" />
    <glyph glyph-name="estimated" unicode="&#x212e;" horiz-adv-x="727" 
d="M696 338h-511v-230q74 -74 183 -74q80 0 139 36.5t106 115.5l45 -27q-59 -92 -125 -131.5t-165 -39.5q-146 0 -236.5 100t-90.5 250q0 151 90 250.5t237 99.5q146 0 236.5 -98t91.5 -252zM185 384h369v184q-81 75 -187 75q-107 0 -182 -75v-184z" />
    <glyph glyph-name="onethird" unicode="&#x2153;" horiz-adv-x="797" 
d="M690 185q31 -8 51 -31.5t20 -54.5q0 -47 -39.5 -76t-104.5 -29q-70 0 -104 28.5t-34 77.5h89q0 -35 49 -35q23 0 37.5 10t14.5 29q0 47 -66 47h-39v68h39q60 0 60 43q0 18 -12.5 28t-33.5 10q-20 0 -32 -9t-12 -24h-89q0 46 33.5 75t99.5 29q63 0 100.5 -29t37.5 -75
q0 -29 -18 -51.5t-47 -30.5zM628 676l-403 -676h-95l400 676h98zM234 311h-90v285l-97 -35l-21 65l131 50h77v-365z" />
    <glyph glyph-name="twothirds" unicode="&#x2154;" horiz-adv-x="837" 
d="M168 682q60 0 97 -32t37 -83q0 -34 -21.5 -65t-60.5 -69l-59 -54h142v-68h-260v58l118 115q49 46 49 83q0 20 -11 32t-31 12q-45 0 -45 -53h-89q0 57 34 90.5t100 33.5zM735 185q31 -8 51 -31.5t20 -54.5q0 -47 -39.5 -76t-104.5 -29q-70 0 -104 28.5t-34 77.5h89
q0 -35 49 -35q23 0 37.5 10t14.5 29q0 47 -66 47h-39v68h39q60 0 60 43q0 18 -12.5 28t-33.5 10q-20 0 -32 -9t-12 -24h-89q0 46 33.5 75t99.5 29q63 0 100.5 -29t37.5 -75q0 -29 -18 -51.5t-47 -30.5zM673 676l-403 -676h-95l400 676h98z" />
    <glyph glyph-name="oneeighth" unicode="&#x215b;" horiz-adv-x="805" 
d="M621 -6q-69 0 -109 28t-40 78q0 66 69 87q-62 20 -62 79q0 49 37.5 77t104.5 28t104 -28t37 -77q0 -59 -61 -79q69 -21 69 -87q0 -50 -40 -78t-109 -28zM621 152q-26 0 -41.5 -12t-15.5 -33q0 -19 17 -30.5t41 -11.5q23 0 39 11.5t16 30.5q0 21 -15 33t-41 12zM621 300
q-49 0 -49 -39q0 -41 49 -41t49 41q0 39 -49 39zM628 676l-403 -676h-95l400 676h98zM234 311h-90v285l-97 -35l-21 65l131 50h77v-365z" />
    <glyph glyph-name="threeeighths" unicode="&#x215c;" horiz-adv-x="832" 
d="M245 496q31 -8 51 -31.5t20 -54.5q0 -47 -39.5 -76t-104.5 -29q-70 0 -104 28.5t-34 77.5h89q0 -35 49 -35q23 0 37.5 10t14.5 29q0 47 -66 47h-39v68h39q60 0 60 43q0 18 -12.5 28t-33.5 10q-20 0 -32 -9t-12 -24h-89q0 46 33.5 75t99.5 29q63 0 100.5 -29t37.5 -75
q0 -29 -18 -51.5t-47 -30.5zM659 676l-403 -676h-95l400 676h98zM651 -6q-69 0 -109 28t-40 78q0 66 69 87q-62 20 -62 79q0 49 37.5 77t104.5 28t104 -28t37 -77q0 -59 -61 -79q69 -21 69 -87q0 -50 -40 -78t-109 -28zM651 152q-26 0 -41.5 -12t-15.5 -33q0 -19 17 -30.5
t41 -11.5q23 0 39 11.5t16 30.5q0 21 -15 33t-41 12zM651 300q-49 0 -49 -39q0 -41 49 -41t49 41q0 39 -49 39z" />
    <glyph glyph-name="fiveeighths" unicode="&#x215d;" horiz-adv-x="823" 
d="M311 428q0 -55 -38 -89t-107 -34q-68 0 -102.5 28.5t-34.5 77.5h89q0 -35 48 -35q53 0 53 52q0 22 -14 36t-39 14q-29 0 -49 -16l-70 12l26 202h220v-68h-148l-9 -69q22 9 50 9q53 0 89 -29t36 -91zM648 676l-403 -676h-95l400 676h98zM641 -6q-69 0 -109 28t-40 78
q0 66 69 87q-62 20 -62 79q0 49 37.5 77t104.5 28t104 -28t37 -77q0 -59 -61 -79q69 -21 69 -87q0 -50 -40 -78t-109 -28zM641 152q-26 0 -41.5 -12t-15.5 -33q0 -19 17 -30.5t41 -11.5q23 0 39 11.5t16 30.5q0 21 -15 33t-41 12zM641 300q-49 0 -49 -39q0 -41 49 -41t49 41
q0 39 -49 39z" />
    <glyph glyph-name="seveneighths" unicode="&#x215e;" horiz-adv-x="754" 
d="M57 311l141 297h-166v68h267v-59l-146 -306h-96zM574 -6q-69 0 -109 28t-40 78q0 66 69 87q-62 20 -62 79q0 49 37.5 77t104.5 28t104 -28t37 -77q0 -59 -61 -79q69 -21 69 -87q0 -50 -40 -78t-109 -28zM574 152q-26 0 -41.5 -12t-15.5 -33q0 -19 17 -30.5t41 -11.5
q23 0 39 11.5t16 30.5q0 21 -15 33t-41 12zM574 300q-49 0 -49 -39q0 -41 49 -41t49 41q0 39 -49 39zM581 676l-403 -676h-95l400 676h98z" />
    <glyph glyph-name="arrowleft" unicode="&#x2190;" horiz-adv-x="750" 
d="M51 287l288 287l67 -69l-167 -167h439v-103h-439l167 -167l-67 -68z" />
    <glyph glyph-name="arrowup" unicode="&#x2191;" horiz-adv-x="750" 
d="M375 627l287 -288l-69 -67l-167 167v-438h-103v438l-167 -167l-68 67z" />
    <glyph glyph-name="arrowright" unicode="&#x2192;" horiz-adv-x="750" 
d="M699 300l-288 -287l-67 69l167 167h-439v103h439l-167 167l67 68z" />
    <glyph glyph-name="arrowdown" unicode="&#x2193;" horiz-adv-x="750" 
d="M375 -40l-287 287l69 67l167 -167v439h103v-439l167 167l68 -67z" />
    <glyph glyph-name="uni2196" unicode="&#x2196;" horiz-adv-x="750" 
d="M153 527h407v-97h-237l310 -310l-72 -73l-311 311v-237h-97v406z" />
    <glyph glyph-name="uni2197" unicode="&#x2197;" horiz-adv-x="750" 
d="M596 527v-406h-97v237l-310 -311l-73 73l311 310h-237v97h406z" />
    <glyph glyph-name="uni2198" unicode="&#x2198;" horiz-adv-x="750" 
d="M595 60h-407v97h237l-310 310l72 73l311 -311v237h97v-406z" />
    <glyph glyph-name="uni2199" unicode="&#x2199;" horiz-adv-x="750" 
d="M155 60v406h96v-237l311 311l72 -73l-310 -310h237v-97h-406z" />
    <glyph glyph-name="partialdiff" unicode="&#x2202;" horiz-adv-x="526" 
d="M199 690h144q66 -63 105.5 -161t39.5 -215q0 -64 -12.5 -119.5t-38.5 -103t-72.5 -75t-109.5 -27.5q-109 0 -165 62.5t-56 168.5q0 103 52.5 165t140.5 62q98 0 143 -72q-2 77 -52 164t-119 151zM255 94q54 0 81 47.5t27 119.5q-36 72 -112 72q-48 0 -73 -31.5t-25 -87.5
q0 -53 25 -86.5t77 -33.5z" />
    <glyph glyph-name="Delta" unicode="&#x2206;" horiz-adv-x="710" 
d="M21 0l262 676h144l261 -676h-667zM513 102l-159 443l-158 -443h317z" />
    <glyph glyph-name="product" unicode="&#x220f;" horiz-adv-x="749" 
d="M33 676h683v-102h-66v-790h-125v791h-300v-791h-126v790h-66v102z" />
    <glyph glyph-name="summation" unicode="&#x2211;" horiz-adv-x="589" 
d="M553 -115v-102h-517v122l242 333l-242 316v122h516v-102h-392l256 -335l-256 -354h393z" />
    <glyph glyph-name="minus" unicode="&#x2212;" 
d="M35 219v103h489v-103h-489z" />
    <glyph glyph-name="uni2215" unicode="&#x2215;" horiz-adv-x="463" 
d="M481 676l-403 -676h-95l400 676h98z" />
    <glyph glyph-name="uni2219" unicode="&#x2219;" horiz-adv-x="255" 
d="M129 193q-37 0 -61.5 23t-24.5 57q0 36 24.5 59.5t61.5 23.5q36 0 60 -23.5t24 -59.5q0 -34 -24.5 -57t-59.5 -23z" />
    <glyph glyph-name="radical" unicode="&#x221a;" horiz-adv-x="619" 
d="M616 696l-245 -912h-129l-132 309l-70 -30l-36 82l178 76l114 -287l197 762h123z" />
    <glyph glyph-name="infinity" unicode="&#x221e;" horiz-adv-x="710" 
d="M670 265q0 -69 -43 -114.5t-108 -45.5q-99 0 -162 93q-37 -46 -74.5 -69t-89.5 -23q-64 0 -108 44t-44 112t43 113t107 45q94 0 166 -96q67 98 161 98q64 0 108 -44t44 -113zM577 262q0 32 -19 51.5t-50 19.5q-45 0 -92 -72q49 -66 92 -66q31 0 50 18.5t19 48.5zM298 261
q-49 72 -94 72q-31 0 -50.5 -20.5t-19.5 -50.5q0 -32 19.5 -50t50.5 -18q25 0 50.5 19.5t43.5 47.5z" />
    <glyph glyph-name="integral" unicode="&#x222b;" horiz-adv-x="373" 
d="M245 545v-620q0 -65 -40 -108t-124 -43q-37 0 -65 12v100q54 -3 67 -3q45 0 45 52v620q0 65 40.5 108t122.5 43q36 0 66 -12v-100q-57 3 -67 3q-45 0 -45 -52z" />
    <glyph glyph-name="approxequal" unicode="&#x2248;" 
d="M490 440l5 -101q-47 -42 -105 -42q-46 0 -115 31.5t-106 31.5q-9 0 -19 -2t-17 -4.5t-17.5 -7.5t-15 -7.5t-16 -9.5t-13.5 -8l-5 100q56 43 113 43q40 0 107.5 -32t107.5 -32q43 0 96 40zM490 220l5 -101q-49 -42 -106 -42q-45 0 -113 31.5t-105 31.5q-41 0 -100 -36
l-6 100q54 40 114 40q40 0 108.5 -32t108.5 -32q41 0 94 40z" />
    <glyph glyph-name="notequal" unicode="&#x2260;" 
d="M67 440h223l24 100l61 -14l-21 -86h140v-103h-165l-32 -133h197v-104h-223l-25 -106l-60 12l22 94h-141v104h166l32 133h-198v103z" />
    <glyph glyph-name="lessequal" unicode="&#x2264;" 
d="M63 354v124l427 159v-110l-325 -112l325 -111v-110zM63 23v98h425v-98h-425z" />
    <glyph glyph-name="greaterequal" unicode="&#x2265;" 
d="M64 23v98h425v-98h-425zM500 478v-124l-426 -160v110l325 111l-325 112v110z" />
    <glyph glyph-name="lozenge" unicode="&#x25ca;" horiz-adv-x="612" 
d="M451 354l-145 226l-149 -226l149 -238zM588 354l-226 -354h-114l-225 354l225 342h114z" />
    <glyph glyph-name="circle" unicode="&#x25cb;" horiz-adv-x="760" 
d="M40 337q0 154 94 251.5t245 97.5q152 0 246.5 -97.5t94.5 -251.5q0 -152 -94.5 -250t-246.5 -98q-150 0 -244.5 98t-94.5 250zM124 337q0 -122 68.5 -194.5t186.5 -72.5t187 73t69 194q0 123 -69 195.5t-187 72.5t-186.5 -72.5t-68.5 -195.5z" />
    <glyph glyph-name="commaaccent" unicode="&#xf6c3;" horiz-adv-x="600" 
d="M377 -63l-64 -153h-91l26 153h129z" />
    <glyph glyph-name="uniF8FF" unicode="&#xf8ff;" horiz-adv-x="577" 
d="M82 0v656h413v-656h-413zM120 38h337v580h-337v-580z" />
    <glyph glyph-name="exclam.sc" horiz-adv-x="236" 
d="M165 174h-94l-19 333h133zM118 -4q-31 0 -51 18t-20 46q0 27 20 45.5t51 18.5q30 0 50 -18.5t20 -45.5q0 -28 -20 -46t-50 -18z" />
    <glyph glyph-name="numbersign.sc" horiz-adv-x="547" 
d="M108 117h-78l17 96h78l14 84h-78l14 95h78l20 115h106l-20 -115h71l20 115h106l-18 -115h80l-16 -95h-80l-14 -84h80l-15 -96h-81l-20 -117h-107l20 117h-69l-21 -117h-107zM244 297l-13 -84h71l13 84h-71z" />
    <glyph glyph-name="dollar.sc" horiz-adv-x="463" 
d="M263 -77h-49v70q-138 5 -186 90l81 67q33 -53 105 -59v112l-31 9q-131 39 -131 145q0 61 39.5 105t122.5 51v56h49v-55q108 -5 161 -75l-81 -65q-28 34 -80 40v-112l31 -8q135 -40 135 -143q0 -68 -46 -109t-120 -48v-71zM308 141q0 32 -45 48v-96q45 9 45 48zM173 364
q0 -35 41 -48v97q-41 -10 -41 -49z" />
    <glyph glyph-name="percent.sc" horiz-adv-x="710" 
d="M560 507l-325 -507h-87l323 507h89zM551 56q27 0 37 19t10 65q0 45 -10 64t-37 19q-26 0 -36.5 -19.5t-10.5 -63.5t10.5 -64t36.5 -20zM551 284q131 0 131 -144q0 -145 -131 -145q-130 0 -130 145q0 144 130 144zM159 284q27 0 37 19.5t10 63.5q0 45 -10 64.5t-37 19.5
q-26 0 -36.5 -19.5t-10.5 -64.5q0 -44 10.5 -63.5t36.5 -19.5zM159 512q130 0 130 -145q0 -144 -130 -144q-131 0 -131 144q0 68 32 106.5t99 38.5z" />
    <glyph glyph-name="ampersand.sc" horiz-adv-x="545" 
d="M423 274l78 -55l-64 -79q-1 -1 -17 -20l112 -113v-7h-123l-52 53q-74 -61 -165 -61q-72 0 -114.5 34.5t-42.5 92.5q0 33 19.5 63t40 46.5t52.5 37.5l2 1l-3 4l-8 7q-7 8 -8.5 9.5t-8.5 9t-9.5 10.5t-8.5 11t-8.5 12.5l-6.5 12t-5.5 14t-3 14t-1.5 14.5q0 55 43.5 92.5
t117.5 37.5q68 0 112 -38t44 -92q0 -62 -103 -135l60 -61l9 11zM199 81q47 0 91 41l-75 78l-11 -7q-5 -3 -16 -11l-15.5 -11.5t-12.5 -10.5t-11 -11.5t-6 -11t-3 -13.5q0 -19 15.5 -31t43.5 -12zM183 385q0 -29 41 -65l2 -3l5 3q59 37 59 65q0 18 -14.5 29.5t-38.5 11.5
q-25 0 -39.5 -11.5t-14.5 -29.5z" />
    <glyph glyph-name="section.sc" horiz-adv-x="471" 
d="M428 213q0 -52 -45 -85q45 -29 45 -81q0 -55 -47.5 -93.5t-150.5 -38.5q-139 0 -190 70l57 68q52 -54 140 -54q68 0 68 30q0 12 -14.5 20t-46.5 18l-71 21q-64 20 -94.5 49t-30.5 73q0 56 43 91q-44 30 -44 80q0 51 48 92.5t144 41.5q112 0 175 -61l-62 -70
q-47 45 -124 45q-26 0 -43 -8t-17 -22q0 -11 13.5 -18.5t48.5 -18.5l68 -20q130 -40 130 -129zM178 265q-15 -15 -15 -30q0 -20 18.5 -32t61.5 -23l55 -16q14 12 14 28q0 39 -68 55z" />
    <glyph glyph-name="paragraph.sc" horiz-adv-x="474" 
d="M186 342h99v-335h-98v99q-152 0 -152 116q0 120 151 120zM326 -170l-63 63q60 45 60 88v361h99v-337q0 -119 -96 -175z" />
    <glyph glyph-name="parenleft.sc" horiz-adv-x="272" 
d="M243 -134l-82 -33q-123 157 -123 348q0 98 31 178t92 169l84 -32q-89 -173 -89 -315q0 -157 87 -315z" />
    <glyph glyph-name="slash.sc" horiz-adv-x="328" 
d="M304 507v-10l-168 -497h-111v11l165 496h114z" />
    <glyph glyph-name="parenright.sc" horiz-adv-x="271" 
d="M29 -134q87 158 87 315q0 142 -89 315l84 32q61 -88 91.5 -168.5t30.5 -178.5q0 -190 -122 -348z" />
    <glyph glyph-name="bracketleft.sc" horiz-adv-x="305" 
d="M55 522h216v-90h-98v-504h98v-90h-216v684z" />
    <glyph glyph-name="backslash.sc" horiz-adv-x="335" 
d="M24 497v10h114l173 -496v-11h-112z" />
    <glyph glyph-name="bracketright.sc" horiz-adv-x="304" 
d="M34 522h214v-684h-214v90h98v504h-98v90z" />
    <glyph glyph-name="braceleft.sc" horiz-adv-x="297" 
d="M215 401v-130q0 -84 -74 -93q33 -4 53.5 -26t20.5 -65v-133q0 -20 10 -27.5t31 -7.5v-81q-82 0 -120 24.5t-38 83.5v130q0 61 -78 61v81q78 0 78 66v125q0 58 38 83.5t120 25.5v-81q-21 0 -31 -8t-10 -28z" />
    <glyph glyph-name="bar.sc" horiz-adv-x="177" 
d="M122 -162h-67v684h67v-684z" />
    <glyph glyph-name="braceright.sc" horiz-adv-x="297" 
d="M82 271v130q0 20 -10 28t-31 8v81q82 0 120 -25.5t38 -83.5v-125q0 -36 19.5 -51t58.5 -15v-81q-78 0 -78 -61v-130q0 -59 -38 -83.5t-120 -24.5v81q21 0 31 7.5t10 27.5v133q0 82 73 91q-73 9 -73 93z" />
    <glyph glyph-name="zero.sc" horiz-adv-x="509" 
d="M255 88q50 0 70.5 40t20.5 126t-20.5 125.5t-70.5 39.5t-71 -40t-21 -125q0 -86 21 -126t71 -40zM255 515q212 0 212 -261q0 -262 -212 -262q-213 0 -213 262q0 123 52 192t161 69z" />
    <glyph glyph-name="one.sc" horiz-adv-x="354" 
d="M290 0h-119v398l-135 -49l-29 89l181 69h102v-507z" />
    <glyph glyph-name="two.sc" horiz-adv-x="448" 
d="M219 515q82 0 132 -44t50 -114q0 -48 -29 -91.5t-82 -95.5l-84 -77h198v-93h-356v79l163 160q68 65 68 118q0 28 -15 45t-45 17q-64 0 -64 -75h-118q0 79 46 125t136 46z" />
    <glyph glyph-name="three.sc" horiz-adv-x="465" 
d="M324 257q42 -9 70.5 -42.5t28.5 -78.5q0 -64 -54 -104t-141 -40q-96 0 -143 39.5t-47 107.5h118q0 -51 72 -51q32 0 52.5 14.5t20.5 41.5q0 66 -93 66h-53v94h53q84 0 84 61q0 25 -17 39.5t-47 14.5q-64 0 -64 -48h-120q0 65 45.5 104.5t138.5 39.5q85 0 136 -40t51 -104
q0 -41 -25.5 -73t-65.5 -41z" />
    <glyph glyph-name="four.sc" horiz-adv-x="482" 
d="M446 187v-93h-58v-94h-118v94h-245v82l238 331h125v-320h58zM147 187h123v170z" />
    <glyph glyph-name="five.sc" horiz-adv-x="451" 
d="M415 163q0 -75 -52.5 -123t-145.5 -48t-140 40t-47 107h117q0 -25 18.5 -38t50.5 -13q76 0 76 76q0 31 -19.5 50t-55.5 19q-41 0 -70 -22l-92 16l35 280h300v-93h-204l-13 -97q27 12 69 12q73 0 123 -40.5t50 -125.5z" />
    <glyph glyph-name="six.sc" horiz-adv-x="482" 
d="M163 193q0 -48 20.5 -76.5t60.5 -28.5q77 0 77 75q0 34 -19.5 53.5t-57.5 19.5q-52 0 -81 -43zM314 371q0 48 -62 48q-90 0 -90 -125q45 33 117 33q75 0 119.5 -43.5t44.5 -118.5q0 -74 -51.5 -123.5t-147.5 -49.5q-102 0 -152.5 67t-50.5 176q0 128 50.5 204t160.5 76
q91 0 135.5 -40t44.5 -104h-118z" />
    <glyph glyph-name="seven.sc" horiz-adv-x="411" 
d="M64 0l193 414h-229v93h363v-79l-200 -428h-127z" />
    <glyph glyph-name="eight.sc" horiz-adv-x="489" 
d="M244 -8q-93 0 -148 39t-55 109q0 45 27 76t70 44q-39 13 -62.5 41.5t-23.5 67.5q0 68 51 107t142 39q90 0 140.5 -38.5t50.5 -107.5q0 -39 -23 -67.5t-63 -41.5q43 -13 70 -43.5t27 -76.5q0 -70 -54.5 -109t-148.5 -39zM244 419q-33 0 -52 -14.5t-19 -41.5
q0 -29 19.5 -43.5t51.5 -14.5q71 0 71 58q0 27 -19 41.5t-52 14.5zM244 88q38 0 59.5 16t21.5 45q0 32 -22.5 48t-58.5 16t-58.5 -16t-22.5 -48q0 -29 21.5 -45t59.5 -16z" />
    <glyph glyph-name="nine.sc" horiz-adv-x="483" 
d="M320 313q0 48 -20.5 77t-60.5 29q-38 0 -58 -20t-20 -55q0 -34 20 -53.5t58 -19.5q52 0 81 42zM50 136h119q0 -22 16 -35t45 -13q90 0 90 126q-43 -35 -115 -35q-76 0 -120.5 44t-44.5 119q0 74 51.5 123.5t147.5 49.5q103 0 153 -67.5t50 -175.5q0 -128 -51 -204
t-161 -76q-91 0 -135.5 40t-44.5 104z" />
    <glyph glyph-name="question.sc" horiz-adv-x="382" 
d="M178 -4q-31 0 -50.5 18t-19.5 46q0 27 20 45.5t50 18.5q31 0 51 -18.5t20 -45.5q0 -28 -20 -46t-51 -18zM183 515q81 0 126 -39t45 -100q0 -34 -19 -63.5t-41 -46.5t-41 -41.5t-19 -50.5h-114q0 31 12.5 57t30.5 43.5t36 33t30.5 31.5t12.5 32q0 20 -13.5 32.5
t-38.5 12.5q-28 0 -41.5 -12t-13.5 -26l-107 12q0 53 38.5 89t116.5 36z" />
    <glyph glyph-name="a.sc" horiz-adv-x="528" 
d="M393 0l-36 104h-186l-36 -104h-129l188 507h139l190 -507h-130zM264 386l-64 -186h128z" />
    <glyph glyph-name="b.sc" horiz-adv-x="509" 
d="M63 0v507h196q186 0 186 -136q0 -75 -76 -103q45 -11 75 -42.5t30 -79.5q0 -146 -214 -146h-197zM185 95h74q88 0 88 60q0 59 -88 59h-74v-119zM185 309h60q75 0 75 51q0 52 -76 52h-59v-103z" />
    <glyph glyph-name="c.sc" horiz-adv-x="503" 
d="M165 253q0 -162 122 -162q60 0 95 59l92 -58q-60 -100 -191 -100q-120 0 -182 68t-62 194q0 125 62 193t182 68q130 0 191 -101l-92 -56q-35 58 -95 58q-122 0 -122 -163z" />
    <glyph glyph-name="d.sc" horiz-adv-x="555" 
d="M63 0v507h179q140 0 207 -61.5t67 -191.5q0 -131 -67 -192.5t-207 -61.5h-179zM185 95h49q87 0 121.5 34.5t34.5 124.5q0 87 -35 122.5t-121 35.5h-49v-317z" />
    <glyph glyph-name="e.sc" horiz-adv-x="471" 
d="M186 95h244v-95h-367v507h364v-95h-241v-111h205v-96h-205v-110z" />
    <glyph glyph-name="f.sc" horiz-adv-x="446" 
d="M63 0v507h348v-95h-225v-124h189v-96h-189v-192h-123z" />
    <glyph glyph-name="g.sc" horiz-adv-x="548" 
d="M286 184v95h227q4 -28 4 -56q0 -100 -57.5 -165.5t-171.5 -65.5q-118 0 -184 67t-66 196q0 131 68 195.5t194 64.5q63 0 112.5 -25.5t73.5 -70.5l-91 -57q-36 54 -101 54q-130 0 -130 -161q0 -90 30.5 -127t93.5 -37q52 0 79 26t27 67h-108z" />
    <glyph glyph-name="h.sc" horiz-adv-x="582" 
d="M397 308v199h122v-507h-122v212h-212v-212h-122v507h122v-199h212z" />
    <glyph glyph-name="i.sc" horiz-adv-x="249" 
d="M63 0v507h123v-507h-123z" />
    <glyph glyph-name="j.sc" horiz-adv-x="411" 
d="M16 80l85 53q21 -42 67 -42q70 0 70 81v335h115v-345q0 -80 -48.5 -125t-136.5 -45q-57 0 -95.5 24t-56.5 64z" />
    <glyph glyph-name="k.sc" horiz-adv-x="529" 
d="M247 214l-61 -60v-154h-123v507h123v-205l190 205h142l-190 -209l189 -298h-139z" />
    <glyph glyph-name="l.sc" horiz-adv-x="414" 
d="M186 95h209v-95h-332v507h123v-412z" />
    <glyph glyph-name="m.sc" horiz-adv-x="714" 
d="M358 143l103 364h160l53 -507h-113l-32 370l-107 -370h-133l-98 365l-40 -365h-114l62 507h161z" />
    <glyph glyph-name="n.sc" horiz-adv-x="577" 
d="M393 194v313h121v-507h-124l-204 319v-319h-124l1 507h129z" />
    <glyph glyph-name="o.sc" horiz-adv-x="553" 
d="M165 253q0 -79 24 -120.5t87 -41.5q62 0 87.5 42t25.5 120q0 163 -111 163q-113 0 -113 -163zM514 253q0 -118 -58 -189.5t-180 -71.5t-179.5 71.5t-57.5 189.5q0 119 57.5 190.5t181.5 71.5q123 0 179.5 -71.5t56.5 -190.5z" />
    <glyph glyph-name="p.sc" horiz-adv-x="495" 
d="M262 177h-76v-177h-123v507h199q97 0 149.5 -42.5t52.5 -123.5q0 -80 -52 -122t-150 -42zM186 412v-140h67q85 0 85 69q0 71 -85 71h-67z" />
    <glyph glyph-name="q.sc" horiz-adv-x="553" 
d="M514 253q0 -87 -30 -146l54 -45l-64 -70l-50 42q-56 -42 -148 -42q-122 0 -179.5 71.5t-57.5 189.5q0 119 57.5 190.5t181.5 71.5q123 0 179.5 -71.5t56.5 -190.5zM165 253q0 -79 24 -120.5t87 -41.5q39 0 62 16l-112 97l62 67l96 -81q5 24 5 63q0 163 -111 163
q-113 0 -113 -163z" />
    <glyph glyph-name="r.sc" horiz-adv-x="516" 
d="M63 0v507h214q202 0 202 -154q0 -56 -31 -94.5t-90 -50.5l130 -208h-136l-116 197h-50v-197h-123zM353 353q0 29 -20 44t-69 15h-78v-119h78q50 0 69.5 14.5t19.5 45.5z" />
    <glyph glyph-name="s.sc" horiz-adv-x="461" 
d="M421 439l-82 -65q-32 42 -98 42q-32 0 -49 -14.5t-17 -37.5q0 -37 47 -50l68 -20q135 -40 135 -143q0 -76 -56.5 -117.5t-144.5 -41.5q-81 0 -130 27t-70 64l82 67q18 -29 44 -44t74 -15q36 0 55.5 14t19.5 36q0 36 -53 51l-67 20q-130 39 -130 145q0 67 47 112.5
t145 45.5q123 0 180 -76z" />
    <glyph glyph-name="t.sc" horiz-adv-x="464" 
d="M29 507h406v-95h-142v-412h-122v412h-142v95z" />
    <glyph glyph-name="u.sc" horiz-adv-x="545" 
d="M273 -7q-100 0 -158 50.5t-58 152.5v311h123v-307q0 -54 21.5 -81t71.5 -27t71.5 27t21.5 81v307h122v-311q0 -102 -57.5 -152.5t-157.5 -50.5z" />
    <glyph glyph-name="v.sc" horiz-adv-x="515" 
d="M377 507h127l-168 -507h-157l-167 507h126l121 -386z" />
    <glyph glyph-name="w.sc" horiz-adv-x="813" 
d="M338 507h137l102 -376l92 376h124l-136 -507h-150l-100 347l-102 -347h-148l-137 507h124l93 -376z" />
    <glyph glyph-name="x.sc" horiz-adv-x="510" 
d="M16 507h136l103 -170l103 170h135l-159 -246l162 -261h-136l-105 177l-105 -177h-136l161 261z" />
    <glyph glyph-name="y.sc" horiz-adv-x="499" 
d="M311 0h-123v194l-183 313h132l114 -208l110 208h134l-184 -313v-194z" />
    <glyph glyph-name="z.sc" horiz-adv-x="449" 
d="M404 507v-84l-227 -328h236v-95h-378v82l228 330h-218v95h359z" />
    <glyph glyph-name="agrave.sc" horiz-adv-x="528" 
d="M393 0l-36 104h-186l-36 -104h-129l188 507h139l190 -507h-130zM264 386l-64 -186h128zM127 726h115l73 -163h-101z" />
    <glyph glyph-name="aacute.sc" horiz-adv-x="528" 
d="M393 0l-36 104h-186l-36 -104h-129l188 507h139l190 -507h-130zM264 386l-64 -186h128zM287 726h115l-87 -163h-101z" />
    <glyph glyph-name="acircumflex.sc" horiz-adv-x="528" 
d="M393 0l-36 104h-186l-36 -104h-129l188 507h139l190 -507h-130zM264 386l-64 -186h128zM205 726h120l101 -165h-108l-53 89l-53 -89h-108z" />
    <glyph glyph-name="atilde.sc" horiz-adv-x="528" 
d="M393 0l-36 104h-186l-36 -104h-129l188 507h139l190 -507h-130zM264 386l-64 -186h128zM415 683l-2 -90q-40 26 -74 26q-26 0 -74.5 -21t-79.5 -21q-41 0 -70 22l2 89q25 -24 68 -24q24 0 70.5 20t83.5 20q40 0 76 -21z" />
    <glyph glyph-name="adieresis.sc" horiz-adv-x="528" 
d="M393 0l-36 104h-186l-36 -104h-129l188 507h139l190 -507h-130zM264 386l-64 -186h128zM168 567q-70 0 -70 67q0 34 19 51.5t51 17.5q29 0 49 -17.5t20 -51.5t-20 -50.5t-49 -16.5zM362 567q-70 0 -70 67q0 34 19 51.5t51 17.5q29 0 49 -17.5t20 -51.5t-20 -50.5
t-49 -16.5z" />
    <glyph glyph-name="amacron.sc" horiz-adv-x="528" 
d="M393 0l-36 104h-186l-36 -104h-129l188 507h139l190 -507h-130zM264 386l-64 -186h128zM116 673h297v-92h-297v92z" />
    <glyph glyph-name="abreve.sc" horiz-adv-x="528" 
d="M393 0l-36 104h-186l-36 -104h-129l188 507h139l190 -507h-130zM264 386l-64 -186h128zM339 708h79q0 -67 -40.5 -109.5t-115.5 -42.5q-72 0 -111.5 43t-39.5 109h77q5 -29 25.5 -47t48.5 -18q31 0 51.5 18t25.5 47z" />
    <glyph glyph-name="aring.sc" horiz-adv-x="528" 
d="M393 0l-36 104h-186l-36 -104h-129l188 507h139l190 -507h-130zM264 386l-64 -186h128zM155 648q0 42 28 71.5t79 29.5q53 0 82.5 -29.5t29.5 -71.5q0 -40 -29.5 -70t-82.5 -30q-50 0 -78.5 30.5t-28.5 69.5zM222 648q0 -15 10.5 -26.5t29.5 -11.5q21 0 32 11t11 27
q0 17 -11 28.5t-32 11.5q-18 0 -29 -12t-11 -28z" />
    <glyph glyph-name="aringacute.sc" horiz-adv-x="528" 
d="M154 648q0 68 62 91l54 87h116l-68 -91q53 -27 53 -87q0 -40 -29.5 -69t-81.5 -29q-50 0 -78 29t-28 69zM219 648q0 -17 11 -28.5t30 -11.5q21 0 33 11.5t12 28.5q0 18 -12 30t-33 12q-19 0 -30 -12t-11 -30zM393 0l-36 104h-186l-36 -104h-129l188 507h139l190 -507
h-130zM264 386l-64 -186h128z" />
    <glyph glyph-name="aogonek.sc" horiz-adv-x="526" 
d="M522 0l-69 -50q-31 -23 -31 -43q0 -13 9 -21t23 -8q31 0 68 27v-98q-50 -23 -103 -23q-56 0 -88 25t-32 71q0 56 63 107l27 21l-33 96h-186l-36 -104h-129l188 507h139zM263 386l-64 -186h128z" />
    <glyph glyph-name="ae.sc" horiz-adv-x="801" 
d="M516 95h244v-95h-366v104h-180l-72 -104h-145l365 507h395v-95h-241v-111h206v-96h-206v-110zM280 200h114v163z" />
    <glyph glyph-name="aeacute.sc" horiz-adv-x="801" 
d="M559 726h115l-87 -163h-101zM516 95h244v-95h-366v104h-180l-72 -104h-145l365 507h395v-95h-241v-111h206v-96h-206v-110zM280 200h114v163z" />
    <glyph glyph-name="cacute.sc" horiz-adv-x="503" 
d="M165 253q0 -162 122 -162q60 0 95 59l92 -58q-60 -100 -191 -100q-120 0 -182 68t-62 194q0 125 62 193t182 68q130 0 191 -101l-92 -56q-35 58 -95 58q-122 0 -122 -163zM290 726h115l-87 -163h-101z" />
    <glyph glyph-name="ccircumflex.sc" horiz-adv-x="503" 
d="M165 253q0 -162 122 -162q60 0 95 59l92 -58q-60 -100 -191 -100q-120 0 -182 68t-62 194q0 125 62 193t182 68q130 0 191 -101l-92 -56q-35 58 -95 58q-122 0 -122 -163zM213 726h120l101 -165h-108l-53 89l-53 -89h-108z" />
    <glyph glyph-name="ccaron.sc" horiz-adv-x="503" 
d="M165 253q0 -162 122 -162q60 0 95 59l92 -58q-60 -100 -191 -100q-120 0 -182 68t-62 194q0 125 62 193t182 68q130 0 191 -101l-92 -56q-35 58 -95 58q-122 0 -122 -163zM333 561h-120l-101 165h108l53 -89l53 89h108z" />
    <glyph glyph-name="cdotaccent.sc" horiz-adv-x="503" 
d="M165 253q0 -162 122 -162q60 0 95 59l92 -58q-60 -100 -191 -100q-120 0 -182 68t-62 194q0 125 62 193t182 68q130 0 191 -101l-92 -56q-35 58 -95 58q-122 0 -122 -163zM273 567q-70 0 -70 67q0 34 19 51.5t51 17.5q29 0 49 -17.5t20 -51.5t-20 -50.5t-49 -16.5z" />
    <glyph glyph-name="ccedilla.sc" horiz-adv-x="503" 
d="M165 253q0 -162 122 -162q60 0 95 59l92 -58q-52 -87 -158 -98l-16 -41q96 0 96 -81q0 -41 -31.5 -64.5t-83.5 -23.5q-54 0 -98 23v75q41 -31 88 -31q32 0 32 21q0 23 -43 23h-44l-6 7l33 92q-100 11 -152 78t-52 182q0 125 62 193t182 68q130 0 191 -101l-92 -56
q-35 58 -95 58q-122 0 -122 -163z" />
    <glyph glyph-name="dcaron.sc" horiz-adv-x="555" 
d="M63 0v507h179q140 0 207 -61.5t67 -191.5q0 -131 -67 -192.5t-207 -61.5h-179zM185 95h49q87 0 121.5 34.5t34.5 124.5q0 87 -35 122.5t-121 35.5h-49v-317zM320 561h-120l-101 165h108l53 -89l53 89h108z" />
    <glyph glyph-name="dcroat.sc" horiz-adv-x="565" 
d="M17 301h56v206h179q140 0 207 -61.5t67 -191.5q0 -131 -67 -192.5t-207 -61.5h-179v218h-56v83zM195 95h49q87 0 121.5 34.5t34.5 124.5q0 87 -35 122.5t-121 35.5h-49v-111h91v-83h-91v-123z" />
    <glyph glyph-name="eth.sc" horiz-adv-x="565" 
d="M17 301h56v206h179q140 0 207 -61.5t67 -191.5q0 -131 -67 -192.5t-207 -61.5h-179v218h-56v83zM195 95h49q87 0 121.5 34.5t34.5 124.5q0 87 -35 122.5t-121 35.5h-49v-111h91v-83h-91v-123z" />
    <glyph glyph-name="egrave.sc" horiz-adv-x="470" 
d="M186 95h244v-95h-367v507h364v-95h-241v-111h205v-96h-205v-110zM112 726h115l73 -163h-101z" />
    <glyph glyph-name="eacute.sc" horiz-adv-x="470" 
d="M186 95h244v-95h-367v507h364v-95h-241v-111h205v-96h-205v-110zM265 726h115l-87 -163h-101z" />
    <glyph glyph-name="ecircumflex.sc" horiz-adv-x="470" 
d="M186 95h244v-95h-367v507h364v-95h-241v-111h205v-96h-205v-110zM185 726h120l101 -165h-108l-53 89l-53 -89h-108z" />
    <glyph glyph-name="ecaron.sc" horiz-adv-x="470" 
d="M186 95h244v-95h-367v507h364v-95h-241v-111h205v-96h-205v-110zM305 561h-120l-101 165h108l53 -89l53 89h108z" />
    <glyph glyph-name="edieresis.sc" horiz-adv-x="470" 
d="M186 95h244v-95h-367v507h364v-95h-241v-111h205v-96h-205v-110zM148 567q-70 0 -70 67q0 34 19 51.5t51 17.5q29 0 49 -17.5t20 -51.5t-20 -50.5t-49 -16.5zM342 567q-70 0 -70 67q0 34 19 51.5t51 17.5q29 0 49 -17.5t20 -51.5t-20 -50.5t-49 -16.5z" />
    <glyph glyph-name="emacron.sc" horiz-adv-x="470" 
d="M186 95h244v-95h-367v507h364v-95h-241v-111h205v-96h-205v-110zM96 673h297v-92h-297v92z" />
    <glyph glyph-name="ebreve.sc" horiz-adv-x="470" 
d="M186 95h244v-95h-367v507h364v-95h-241v-111h205v-96h-205v-110zM320 708h79q0 -67 -40.5 -109.5t-115.5 -42.5q-72 0 -111.5 43t-39.5 109h77q5 -29 25.5 -47t48.5 -18q31 0 51.5 18t25.5 47z" />
    <glyph glyph-name="edotaccent.sc" horiz-adv-x="470" 
d="M186 95h244v-95h-367v507h364v-95h-241v-111h205v-96h-205v-110zM245 567q-70 0 -70 67q0 34 19 51.5t51 17.5q29 0 49 -17.5t20 -51.5t-20 -50.5t-49 -16.5z" />
    <glyph glyph-name="eogonek.sc" horiz-adv-x="470" 
d="M185 95h244v-95l-69 -50q-31 -23 -31 -43q0 -13 9 -21t23 -8q31 0 68 27v-98q-50 -23 -103 -23q-56 0 -88 25t-32 71q0 56 63 107l16 13h-223v507h364v-95h-241v-111h205v-96h-205v-110z" />
    <glyph glyph-name="gcircumflex.sc" horiz-adv-x="548" 
d="M286 184v95h227q4 -28 4 -56q0 -100 -57.5 -165.5t-171.5 -65.5q-118 0 -184 67t-66 196q0 131 68 195.5t194 64.5q63 0 112.5 -25.5t73.5 -70.5l-91 -57q-36 54 -101 54q-130 0 -130 -161q0 -90 30.5 -127t93.5 -37q52 0 79 26t27 67h-108zM223 726h120l101 -165h-108
l-53 89l-53 -89h-108z" />
    <glyph glyph-name="gbreve.sc" horiz-adv-x="548" 
d="M286 184v95h227q4 -28 4 -56q0 -100 -57.5 -165.5t-171.5 -65.5q-118 0 -184 67t-66 196q0 131 68 195.5t194 64.5q63 0 112.5 -25.5t73.5 -70.5l-91 -57q-36 54 -101 54q-130 0 -130 -161q0 -90 30.5 -127t93.5 -37q52 0 79 26t27 67h-108zM358 708h79
q0 -67 -40.5 -109.5t-115.5 -42.5q-72 0 -111.5 43t-39.5 109h77q5 -29 25.5 -47t48.5 -18q31 0 51.5 18t25.5 47z" />
    <glyph glyph-name="gdotaccent.sc" horiz-adv-x="548" 
d="M286 184v95h227q4 -28 4 -56q0 -100 -57.5 -165.5t-171.5 -65.5q-118 0 -184 67t-66 196q0 131 68 195.5t194 64.5q63 0 112.5 -25.5t73.5 -70.5l-91 -57q-36 54 -101 54q-130 0 -130 -161q0 -90 30.5 -127t93.5 -37q52 0 79 26t27 67h-108zM284 567q-70 0 -70 67
q0 34 19 51.5t51 17.5q29 0 49 -17.5t20 -51.5t-20 -50.5t-49 -16.5z" />
    <glyph glyph-name="gcommaaccent.sc" horiz-adv-x="548" 
d="M286 184v95h227q4 -28 4 -56q0 -100 -57.5 -165.5t-171.5 -65.5q-118 0 -184 67t-66 196q0 131 68 195.5t194 64.5q63 0 112.5 -25.5t73.5 -70.5l-91 -57q-36 54 -101 54q-130 0 -130 -161q0 -90 30.5 -127t93.5 -37q52 0 79 26t27 67h-108zM353 -63l-64 -153h-91l26 153
h129z" />
    <glyph glyph-name="hcircumflex.sc" horiz-adv-x="582" 
d="M397 308v199h122v-507h-122v212h-212v-212h-122v507h122v-199h212zM230 726h120l101 -165h-108l-53 89l-53 -89h-108z" />
    <glyph glyph-name="hbar.sc" horiz-adv-x="583" 
d="M31 445h32v62h123v-62h212v62h121v-62h37v-79h-37v-366h-121v212h-212v-212h-123v366h-32v79zM398 308v58h-212v-58h212z" />
    <glyph glyph-name="igrave.sc" horiz-adv-x="249" 
d="M63 0v507h123v-507h-123zM-12 726h115l73 -163h-101z" />
    <glyph glyph-name="iacute.sc" horiz-adv-x="249" 
d="M63 0v507h123v-507h-123zM148 726h115l-87 -163h-101z" />
    <glyph glyph-name="ibreve.sc" horiz-adv-x="249" 
d="M63 0v507h123v-507h-123zM199 708h79q0 -67 -40.5 -109.5t-115.5 -42.5q-72 0 -111.5 43t-39.5 109h77q5 -29 25.5 -47t48.5 -18q31 0 51.5 18t25.5 47z" />
    <glyph glyph-name="icircumflex.sc" horiz-adv-x="249" 
d="M63 0v507h123v-507h-123zM64 726h120l101 -165h-108l-53 89l-53 -89h-108z" />
    <glyph glyph-name="itilde.sc" horiz-adv-x="249" 
d="M63 0v507h123v-507h-123zM274 683l-2 -90q-40 26 -74 26q-26 0 -74.5 -21t-79.5 -21q-41 0 -70 22l2 89q25 -24 68 -24q24 0 70.5 20t83.5 20q40 0 76 -21z" />
    <glyph glyph-name="idieresis.sc" horiz-adv-x="249" 
d="M63 0v507h123v-507h-123zM28 567q-70 0 -70 67q0 34 19 51.5t51 17.5q29 0 49 -17.5t20 -51.5t-20 -50.5t-49 -16.5zM222 567q-70 0 -70 67q0 34 19 51.5t51 17.5q29 0 49 -17.5t20 -51.5t-20 -50.5t-49 -16.5z" />
    <glyph glyph-name="imacron.sc" horiz-adv-x="249" 
d="M63 0v507h123v-507h-123zM-24 673h297v-92h-297v92z" />
    <glyph glyph-name="idotaccent.sc" horiz-adv-x="249" 
d="M63 0v507h123v-507h-123zM125 567q-70 0 -70 67q0 34 19 51.5t51 17.5q29 0 49 -17.5t20 -51.5t-20 -50.5t-49 -16.5z" />
    <glyph glyph-name="iogonek.sc" horiz-adv-x="248" 
d="M186 0l-69 -50q-31 -23 -31 -43q0 -13 9 -21t23 -8q31 0 68 27v-98q-50 -23 -103 -23q-56 0 -88 25t-32 71q0 56 63 107l37 29v491h123v-507z" />
    <glyph glyph-name="jcircumflex.sc" horiz-adv-x="412" 
d="M16 80l85 53q21 -42 67 -42q70 0 70 81v335h115v-345q0 -80 -48.5 -125t-136.5 -45q-57 0 -95.5 24t-56.5 64zM236 726h120l101 -165h-108l-53 89l-53 -89h-108z" />
    <glyph glyph-name="kcommaaccent.sc" horiz-adv-x="529" 
d="M247 214l-61 -60v-154h-123v507h123v-205l190 205h142l-190 -209l189 -298h-139zM328 -63l-64 -153h-91l26 153h129z" />
    <glyph glyph-name="lacute.sc" horiz-adv-x="414" 
d="M186 95h209v-95h-332v507h123v-412zM149 726h115l-87 -163h-101z" />
    <glyph glyph-name="lcaron.sc" horiz-adv-x="473" 
d="M186 95h209v-95h-332v507h123v-412zM463 507l-63 -169h-85l25 169h123z" />
    <glyph glyph-name="lcommaaccent.sc" horiz-adv-x="414" 
d="M186 95h209v-95h-332v507h123v-412zM288 -63l-64 -153h-91l26 153h129z" />
    <glyph glyph-name="lslash.sc" horiz-adv-x="421" 
d="M193 95h209v-95h-332v178l-50 -22v94l50 22v235h123v-182l65 29v-94l-65 -29v-136z" />
    <glyph glyph-name="ldot.sc" horiz-adv-x="456" 
d="M186 95h209v-95h-332v507h123v-412zM347 230q-70 0 -70 67q0 35 19 52t51 17q29 0 49 -17.5t20 -51.5t-20 -50.5t-49 -16.5z" />
    <glyph glyph-name="nacute.sc" horiz-adv-x="577" 
d="M393 194v313h121v-507h-124l-204 319v-319h-124l1 507h129zM310 726h115l-87 -163h-101z" />
    <glyph glyph-name="ncaron.sc" horiz-adv-x="577" 
d="M393 194v313h121v-507h-124l-204 319v-319h-124l1 507h129zM348 561h-120l-101 165h108l53 -89l53 89h108z" />
    <glyph glyph-name="ntilde.sc" horiz-adv-x="577" 
d="M393 194v313h121v-507h-124l-204 319v-319h-124l1 507h129zM438 683l-2 -90q-40 26 -74 26q-26 0 -74.5 -21t-79.5 -21q-41 0 -70 22l2 89q25 -24 68 -24q24 0 70.5 20t83.5 20q40 0 76 -21z" />
    <glyph glyph-name="ncommaaccent.sc" horiz-adv-x="577" 
d="M393 194v313h121v-507h-124l-204 319v-319h-124l1 507h129zM355 -63l-64 -153h-91l26 153h129z" />
    <glyph glyph-name="ograve.sc" horiz-adv-x="553" 
d="M165 253q0 -79 24 -120.5t87 -41.5q62 0 87.5 42t25.5 120q0 163 -111 163q-113 0 -113 -163zM514 253q0 -118 -58 -189.5t-180 -71.5t-179.5 71.5t-57.5 189.5q0 119 57.5 190.5t181.5 71.5q123 0 179.5 -71.5t56.5 -190.5zM144 726h115l73 -163h-101z" />
    <glyph glyph-name="oacute.sc" horiz-adv-x="553" 
d="M165 253q0 -79 24 -120.5t87 -41.5q62 0 87.5 42t25.5 120q0 163 -111 163q-113 0 -113 -163zM514 253q0 -118 -58 -189.5t-180 -71.5t-179.5 71.5t-57.5 189.5q0 119 57.5 190.5t181.5 71.5q123 0 179.5 -71.5t56.5 -190.5zM297 726h115l-87 -163h-101z" />
    <glyph glyph-name="ocircumflex.sc" horiz-adv-x="553" 
d="M165 253q0 -79 24 -120.5t87 -41.5q62 0 87.5 42t25.5 120q0 163 -111 163q-113 0 -113 -163zM514 253q0 -118 -58 -189.5t-180 -71.5t-179.5 71.5t-57.5 189.5q0 119 57.5 190.5t181.5 71.5q123 0 179.5 -71.5t56.5 -190.5zM217 726h120l101 -165h-108l-53 89l-53 -89
h-108z" />
    <glyph glyph-name="otilde.sc" horiz-adv-x="553" 
d="M165 253q0 -79 24 -120.5t87 -41.5q62 0 87.5 42t25.5 120q0 163 -111 163q-113 0 -113 -163zM514 253q0 -118 -58 -189.5t-180 -71.5t-179.5 71.5t-57.5 189.5q0 119 57.5 190.5t181.5 71.5q123 0 179.5 -71.5t56.5 -190.5zM427 683l-2 -90q-40 26 -74 26
q-26 0 -74.5 -21t-79.5 -21q-41 0 -70 22l2 89q25 -24 68 -24q24 0 70.5 20t83.5 20q40 0 76 -21z" />
    <glyph glyph-name="odieresis.sc" horiz-adv-x="553" 
d="M165 253q0 -79 24 -120.5t87 -41.5q62 0 87.5 42t25.5 120q0 163 -111 163q-113 0 -113 -163zM514 253q0 -118 -58 -189.5t-180 -71.5t-179.5 71.5t-57.5 189.5q0 119 57.5 190.5t181.5 71.5q123 0 179.5 -71.5t56.5 -190.5zM180 567q-70 0 -70 67q0 34 19 51.5t51 17.5
q29 0 49 -17.5t20 -51.5t-20 -50.5t-49 -16.5zM374 567q-70 0 -70 67q0 34 19 51.5t51 17.5q29 0 49 -17.5t20 -51.5t-20 -50.5t-49 -16.5z" />
    <glyph glyph-name="omacron.sc" horiz-adv-x="553" 
d="M165 253q0 -79 24 -120.5t87 -41.5q62 0 87.5 42t25.5 120q0 163 -111 163q-113 0 -113 -163zM514 253q0 -118 -58 -189.5t-180 -71.5t-179.5 71.5t-57.5 189.5q0 119 57.5 190.5t181.5 71.5q123 0 179.5 -71.5t56.5 -190.5zM128 673h297v-92h-297v92z" />
    <glyph glyph-name="obreve.sc" horiz-adv-x="553" 
d="M165 253q0 -79 24 -120.5t87 -41.5q62 0 87.5 42t25.5 120q0 163 -111 163q-113 0 -113 -163zM514 253q0 -118 -58 -189.5t-180 -71.5t-179.5 71.5t-57.5 189.5q0 119 57.5 190.5t181.5 71.5q123 0 179.5 -71.5t56.5 -190.5zM352 708h79q0 -67 -40.5 -109.5t-115.5 -42.5
q-72 0 -111.5 43t-39.5 109h77q5 -29 25.5 -47t48.5 -18q31 0 51.5 18t25.5 47z" />
    <glyph glyph-name="ohungarumlaut.sc" horiz-adv-x="553" 
d="M165 253q0 -79 24 -120.5t87 -41.5q62 0 87.5 42t25.5 120q0 163 -111 163q-113 0 -113 -163zM514 253q0 -118 -58 -189.5t-180 -71.5t-179.5 71.5t-57.5 189.5q0 119 57.5 190.5t181.5 71.5q123 0 179.5 -71.5t56.5 -190.5zM207 726h115l-87 -163h-101zM385 726h115
l-87 -163h-101z" />
    <glyph glyph-name="oslash.sc" horiz-adv-x="553" 
d="M514 253q0 -118 -58 -189.5t-180 -71.5q-78 0 -131 31l-18 -23h-91l54 71q-51 68 -51 182q0 119 57.5 190.5t181.5 71.5q73 0 128 -29l16 21h93l-53 -69q52 -68 52 -185zM389 253q0 43 -9 78l-170 -222q24 -18 66 -18q62 0 87.5 42t25.5 120zM165 253q0 -42 6 -75
l168 221q-25 17 -61 17q-113 0 -113 -163z" />
    <glyph glyph-name="oslashacute.sc" horiz-adv-x="553" 
d="M294 726h115l-87 -163h-101zM514 253q0 -118 -58 -189.5t-180 -71.5q-78 0 -131 31l-18 -23h-91l54 71q-51 68 -51 182q0 119 57.5 190.5t181.5 71.5q73 0 128 -29l16 21h93l-53 -69q52 -68 52 -185zM389 253q0 43 -9 78l-170 -222q24 -18 66 -18q62 0 87.5 42t25.5 120z
M165 253q0 -42 6 -75l168 221q-25 17 -61 17q-113 0 -113 -163z" />
    <glyph glyph-name="oe.sc" horiz-adv-x="739" 
d="M454 95h245v-95h-347q-35 -8 -76 -8q-122 0 -179.5 71.5t-57.5 189.5q0 119 57.5 190.5t181.5 71.5q39 0 74 -8h344v-95h-242v-111h206v-96h-206v-110zM276 91q35 0 56 7v310q-24 8 -54 8q-113 0 -113 -163q0 -79 24 -120.5t87 -41.5z" />
    <glyph glyph-name="racute.sc" horiz-adv-x="515" 
d="M63 0v507h214q202 0 202 -154q0 -56 -31 -94.5t-90 -50.5l130 -208h-136l-116 197h-50v-197h-123zM353 353q0 29 -20 44t-69 15h-78v-119h78q50 0 69.5 14.5t19.5 45.5zM259 726h115l-87 -163h-101z" />
    <glyph glyph-name="rcaron.sc" horiz-adv-x="515" 
d="M63 0v507h214q202 0 202 -154q0 -56 -31 -94.5t-90 -50.5l130 -208h-136l-116 197h-50v-197h-123zM353 353q0 29 -20 44t-69 15h-78v-119h78q50 0 69.5 14.5t19.5 45.5zM298 561h-120l-101 165h108l53 -89l53 89h108z" />
    <glyph glyph-name="rcommaaccent.sc" horiz-adv-x="516" 
d="M63 0v507h214q202 0 202 -154q0 -56 -31 -94.5t-90 -50.5l130 -208h-136l-116 197h-50v-197h-123zM353 353q0 29 -20 44t-69 15h-78v-119h78q50 0 69.5 14.5t19.5 45.5zM317 -63l-64 -153h-91l26 153h129z" />
    <glyph glyph-name="sacute.sc" horiz-adv-x="461" 
d="M421 439l-82 -65q-32 42 -98 42q-32 0 -49 -14.5t-17 -37.5q0 -37 47 -50l68 -20q135 -40 135 -143q0 -76 -56.5 -117.5t-144.5 -41.5q-81 0 -130 27t-70 64l82 67q18 -29 44 -44t74 -15q36 0 55.5 14t19.5 36q0 36 -53 51l-67 20q-130 39 -130 145q0 67 47 112.5
t145 45.5q123 0 180 -76zM259 726h115l-87 -163h-101z" />
    <glyph glyph-name="scircumflex.sc" horiz-adv-x="461" 
d="M421 439l-82 -65q-32 42 -98 42q-32 0 -49 -14.5t-17 -37.5q0 -37 47 -50l68 -20q135 -40 135 -143q0 -76 -56.5 -117.5t-144.5 -41.5q-81 0 -130 27t-70 64l82 67q18 -29 44 -44t74 -15q36 0 55.5 14t19.5 36q0 36 -53 51l-67 20q-130 39 -130 145q0 67 47 112.5
t145 45.5q123 0 180 -76zM172 726h120l101 -165h-108l-53 89l-53 -89h-108z" />
    <glyph glyph-name="scaron.sc" horiz-adv-x="461" 
d="M421 439l-82 -65q-32 42 -98 42q-32 0 -49 -14.5t-17 -37.5q0 -37 47 -50l68 -20q135 -40 135 -143q0 -76 -56.5 -117.5t-144.5 -41.5q-81 0 -130 27t-70 64l82 67q18 -29 44 -44t74 -15q36 0 55.5 14t19.5 36q0 36 -53 51l-67 20q-130 39 -130 145q0 67 47 112.5
t145 45.5q123 0 180 -76zM292 561h-120l-101 165h108l53 -89l53 89h108z" />
    <glyph glyph-name="scedilla.sc" horiz-adv-x="461" 
d="M421 439l-82 -65q-32 42 -98 42q-32 0 -49 -14.5t-17 -37.5q0 -37 47 -50l68 -20q135 -40 135 -143q0 -66 -43.5 -106.5t-114.5 -49.5l-17 -42q96 0 96 -81q0 -41 -31.5 -64.5t-83.5 -23.5q-54 0 -98 23v75q41 -31 88 -31q32 0 32 21q0 23 -43 23h-44l-6 7l33 92
q-123 9 -169 89l82 67q18 -29 44 -44t74 -15q36 0 55.5 14t19.5 36q0 36 -53 51l-67 20q-130 39 -130 145q0 67 47 112.5t145 45.5q123 0 180 -76z" />
    <glyph glyph-name="scommaaccent.sc" horiz-adv-x="461" 
d="M421 439l-82 -65q-32 42 -98 42q-32 0 -49 -14.5t-17 -37.5q0 -37 47 -50l68 -20q135 -40 135 -143q0 -76 -56.5 -117.5t-144.5 -41.5q-81 0 -130 27t-70 64l82 67q18 -29 44 -44t74 -15q36 0 55.5 14t19.5 36q0 36 -53 51l-67 20q-130 39 -130 145q0 67 47 112.5
t145 45.5q123 0 180 -76zM308 -63l-64 -153h-91l26 153h129z" />
    <glyph glyph-name="tcaron.sc" horiz-adv-x="464" 
d="M29 507h406v-95h-142v-412h-122v412h-142v95zM292 561h-120l-101 165h108l53 -89l53 89h108z" />
    <glyph glyph-name="tcommaaccent.sc" horiz-adv-x="464" 
d="M29 507h406v-95h-142v-412h-24l-19 -47q96 0 96 -81q0 -41 -31.5 -64.5t-83.5 -23.5q-54 0 -98 23v75q41 -31 88 -31q32 0 32 21q0 23 -43 23h-44l-6 7l35 98h-24v412h-142v95z" />
    <glyph glyph-name="uni021A.sc" horiz-adv-x="465" 
d="M295 -63l-64 -153h-91l26 153h129zM30 507h406v-95h-142v-412h-122v412h-142v95z" />
    <glyph glyph-name="tbar.sc" horiz-adv-x="468" 
d="M100 281h73v131h-142v95h406v-95h-142v-131h74v-83h-74v-198h-122v198h-73v83z" />
    <glyph glyph-name="thorn.sc" horiz-adv-x="492" 
d="M262 88h-76v-88h-123v507h123v-89h76q97 0 149.5 -42.5t52.5 -123.5q0 -80 -52 -122t-150 -42zM186 323v-140h67q85 0 85 69q0 71 -85 71h-67z" />
    <glyph glyph-name="ugrave.sc" horiz-adv-x="545" 
d="M273 -7q-100 0 -158 50.5t-58 152.5v311h123v-307q0 -54 21.5 -81t71.5 -27t71.5 27t21.5 81v307h122v-311q0 -102 -57.5 -152.5t-157.5 -50.5zM139 726h115l73 -163h-101z" />
    <glyph glyph-name="uacute.sc" horiz-adv-x="545" 
d="M273 -7q-100 0 -158 50.5t-58 152.5v311h123v-307q0 -54 21.5 -81t71.5 -27t71.5 27t21.5 81v307h122v-311q0 -102 -57.5 -152.5t-157.5 -50.5zM293 726h115l-87 -163h-101z" />
    <glyph glyph-name="ucircumflex.sc" horiz-adv-x="545" 
d="M273 -7q-100 0 -158 50.5t-58 152.5v311h123v-307q0 -54 21.5 -81t71.5 -27t71.5 27t21.5 81v307h122v-311q0 -102 -57.5 -152.5t-157.5 -50.5zM212 726h120l101 -165h-108l-53 89l-53 -89h-108z" />
    <glyph glyph-name="utilde.sc" horiz-adv-x="545" 
d="M273 -7q-100 0 -158 50.5t-58 152.5v311h123v-307q0 -54 21.5 -81t71.5 -27t71.5 27t21.5 81v307h122v-311q0 -102 -57.5 -152.5t-157.5 -50.5zM422 683l-2 -90q-40 26 -74 26q-26 0 -74.5 -21t-79.5 -21q-41 0 -70 22l2 89q25 -24 68 -24q24 0 70.5 20t83.5 20
q40 0 76 -21z" />
    <glyph glyph-name="udieresis.sc" horiz-adv-x="545" 
d="M273 -7q-100 0 -158 50.5t-58 152.5v311h123v-307q0 -54 21.5 -81t71.5 -27t71.5 27t21.5 81v307h122v-311q0 -102 -57.5 -152.5t-157.5 -50.5zM176 567q-70 0 -70 67q0 34 19 51.5t51 17.5q29 0 49 -17.5t20 -51.5t-20 -50.5t-49 -16.5zM370 567q-70 0 -70 67
q0 34 19 51.5t51 17.5q29 0 49 -17.5t20 -51.5t-20 -50.5t-49 -16.5z" />
    <glyph glyph-name="umacron.sc" horiz-adv-x="545" 
d="M273 -7q-100 0 -158 50.5t-58 152.5v311h123v-307q0 -54 21.5 -81t71.5 -27t71.5 27t21.5 81v307h122v-311q0 -102 -57.5 -152.5t-157.5 -50.5zM124 673h297v-92h-297v92z" />
    <glyph glyph-name="ubreve.sc" horiz-adv-x="545" 
d="M273 -7q-100 0 -158 50.5t-58 152.5v311h123v-307q0 -54 21.5 -81t71.5 -27t71.5 27t21.5 81v307h122v-311q0 -102 -57.5 -152.5t-157.5 -50.5zM347 708h79q0 -67 -40.5 -109.5t-115.5 -42.5q-72 0 -111.5 43t-39.5 109h77q5 -29 25.5 -47t48.5 -18q31 0 51.5 18t25.5 47
z" />
    <glyph glyph-name="uring.sc" horiz-adv-x="545" 
d="M273 -7q-100 0 -158 50.5t-58 152.5v311h123v-307q0 -54 21.5 -81t71.5 -27t71.5 27t21.5 81v307h122v-311q0 -102 -57.5 -152.5t-157.5 -50.5zM163 648q0 42 28 71.5t79 29.5q53 0 82.5 -29.5t29.5 -71.5q0 -40 -29.5 -70t-82.5 -30q-50 0 -78.5 30.5t-28.5 69.5z
M230 648q0 -15 11 -26.5t29 -11.5q21 0 32 11t11 27q0 17 -11 28.5t-32 11.5q-18 0 -29 -12t-11 -28z" />
    <glyph glyph-name="uhungarumlaut.sc" horiz-adv-x="545" 
d="M273 -7q-100 0 -158 50.5t-58 152.5v311h123v-307q0 -54 21.5 -81t71.5 -27t71.5 27t21.5 81v307h122v-311q0 -102 -57.5 -152.5t-157.5 -50.5zM205 726h115l-87 -163h-101zM383 726h115l-87 -163h-101z" />
    <glyph glyph-name="uogonek.sc" horiz-adv-x="545" 
d="M488 196q0 -146 -121 -189l-65 -47q-31 -23 -31 -43q0 -13 9 -21t23 -8q31 0 68 27v-98q-50 -23 -103 -23q-56 0 -88 25t-32 71q0 56 63 107l1 1q-73 13 -114 62.5t-41 135.5v311h123v-307q0 -54 21.5 -81t71.5 -27t71.5 27t21.5 81v307h122v-311z" />
    <glyph glyph-name="wacute.sc" horiz-adv-x="813" 
d="M338 507h137l102 -376l92 376h124l-136 -507h-150l-100 347l-102 -347h-148l-137 507h124l93 -376zM430 726h115l-87 -163h-101z" />
    <glyph glyph-name="wcircumflex.sc" horiz-adv-x="813" 
d="M338 507h137l102 -376l92 376h124l-136 -507h-150l-100 347l-102 -347h-148l-137 507h124l93 -376zM347 726h120l101 -165h-108l-53 89l-53 -89h-108z" />
    <glyph glyph-name="wdieresis.sc" horiz-adv-x="813" 
d="M338 507h137l102 -376l92 376h124l-136 -507h-150l-100 347l-102 -347h-148l-137 507h124l93 -376zM311 567q-70 0 -70 67q0 34 19 51.5t51 17.5q29 0 49 -17.5t20 -51.5t-20 -50.5t-49 -16.5zM505 567q-70 0 -70 67q0 34 19 51.5t51 17.5q29 0 49 -17.5t20 -51.5
t-20 -50.5t-49 -16.5z" />
    <glyph glyph-name="wgrave.sc" horiz-adv-x="813" 
d="M338 507h137l102 -376l92 376h124l-136 -507h-150l-100 347l-102 -347h-148l-137 507h124l93 -376zM269 726h115l73 -163h-101z" />
    <glyph glyph-name="yacute.sc" horiz-adv-x="499" 
d="M311 0h-123v194l-183 313h132l114 -208l110 208h134l-184 -313v-194zM272 726h115l-87 -163h-101z" />
    <glyph glyph-name="ycircumflex.sc" horiz-adv-x="499" 
d="M311 0h-123v194l-183 313h132l114 -208l110 208h134l-184 -313v-194zM191 726h120l101 -165h-108l-53 89l-53 -89h-108z" />
    <glyph glyph-name="ydieresis.sc" horiz-adv-x="499" 
d="M311 0h-123v194l-183 313h132l114 -208l110 208h134l-184 -313v-194zM155 567q-70 0 -70 67q0 34 19 51.5t51 17.5q29 0 49 -17.5t20 -51.5t-20 -50.5t-49 -16.5zM349 567q-70 0 -70 67q0 34 19 51.5t51 17.5q29 0 49 -17.5t20 -51.5t-20 -50.5t-49 -16.5z" />
    <glyph glyph-name="ygrave.sc" horiz-adv-x="499" 
d="M311 0h-123v194l-183 313h132l114 -208l110 208h134l-184 -313v-194zM118 726h115l73 -163h-101z" />
    <glyph glyph-name="zacute.sc" horiz-adv-x="449" 
d="M404 507v-84l-227 -328h236v-95h-378v82l228 330h-218v95h359zM243 726h115l-87 -163h-101z" />
    <glyph glyph-name="zcaron.sc" horiz-adv-x="449" 
d="M404 507v-84l-227 -328h236v-95h-378v82l228 330h-218v95h359zM283 561h-120l-101 165h108l53 -89l53 89h108z" />
    <glyph glyph-name="zdotaccent.sc" horiz-adv-x="449" 
d="M404 507v-84l-227 -328h236v-95h-378v82l228 330h-218v95h359zM224 567q-70 0 -70 67q0 34 19 51.5t51 17.5q29 0 49 -17.5t20 -51.5t-20 -50.5t-49 -16.5z" />
    <glyph glyph-name="ij.sc" horiz-adv-x="659" 
d="M61 0v507h123v-507h-123zM264 80l85 53q21 -42 67 -42q70 0 70 81v335h115v-345q0 -80 -48.5 -125t-136.5 -45q-57 0 -95.5 24t-56.5 64z" />
    <glyph glyph-name="germandbls.sc" horiz-adv-x="928" 
d="M888 439l-82 -65q-32 42 -98 42q-32 0 -49 -14.5t-17 -37.5q0 -37 47 -50l68 -20q135 -40 135 -143q0 -76 -56.5 -117.5t-144.5 -41.5q-81 0 -130 27t-70 64l82 67q18 -29 44 -44t74 -15q36 0 55.5 14t19.5 36q0 36 -53 51l-67 20q-130 39 -130 145q0 67 47 112.5
t145 45.5q123 0 180 -76zM421 439l-82 -65q-32 42 -98 42q-32 0 -49 -14.5t-17 -37.5q0 -37 47 -50l68 -20q135 -40 135 -143q0 -76 -56.5 -117.5t-144.5 -41.5q-81 0 -130 27t-70 64l82 67q18 -29 44 -44t74 -15q36 0 55.5 14t19.5 36q0 36 -53 51l-67 20q-130 39 -130 145
q0 67 47 112.5t145 45.5q123 0 180 -76z" />
    <glyph glyph-name="fi.sc" horiz-adv-x="699" 
d="M63 0v507h348v-95h-225v-124h189v-96h-189v-192h-123zM513 0v507h123v-507h-123z" />
    <glyph glyph-name="fl.sc" horiz-adv-x="864" 
d="M63 0v507h348v-95h-225v-124h189v-96h-189v-192h-123zM636 95h209v-95h-332v507h123v-412z" />
    <glyph glyph-name="eng.sc" horiz-adv-x="575" 
d="M392 194v313h121v-504q0 -111 -104 -173l-81 76q59 33 63 94l-206 319v-319h-124q0 84 0.5 253t0.5 254h129z" />
    <glyph glyph-name="grave.sc" horiz-adv-x="600" 
d="M206 726h115l73 -163h-101z" />
    <glyph glyph-name="acute.sc" horiz-adv-x="600" 
d="M279 726h115l-87 -163h-101z" />
    <glyph glyph-name="circumflex.sc" horiz-adv-x="600" 
d="M240 726h120l101 -165h-108l-53 89l-53 -89h-108z" />
    <glyph glyph-name="caron.sc" horiz-adv-x="600" 
d="M360 561h-120l-101 165h108l53 -89l53 89h108z" />
    <glyph glyph-name="caronalt.sc" horiz-adv-x="600" 
d="M374 507l-63 -169h-85l25 169h123z" />
    <glyph glyph-name="tilde.sc" horiz-adv-x="600" 
d="M450 683l-2 -90q-40 26 -74 26q-26 0 -74.5 -21t-79.5 -21q-41 0 -70 22l2 89q25 -24 68 -24q24 0 70.5 20t83.5 20q40 0 76 -21z" />
    <glyph glyph-name="dieresis.sc" horiz-adv-x="600" 
d="M203 567q-70 0 -70 67q0 34 19 51.5t51 17.5q29 0 49 -17.5t20 -51.5t-20 -50.5t-49 -16.5zM397 567q-70 0 -70 67q0 34 19 51.5t51 17.5q29 0 49 -17.5t20 -51.5t-20 -50.5t-49 -16.5z" />
    <glyph glyph-name="macron.sc" horiz-adv-x="600" 
d="M151 673h297v-92h-297v92z" />
    <glyph glyph-name="breve.sc" horiz-adv-x="600" 
d="M374 708h79q0 -67 -40.5 -109.5t-115.5 -42.5q-72 0 -111.5 43t-39.5 109h77q5 -29 25.5 -47t48.5 -18q31 0 51.5 18t25.5 47z" />
    <glyph glyph-name="ring.sc" horiz-adv-x="600" 
d="M190 648q0 42 28 71.5t79 29.5q53 0 82.5 -29.5t29.5 -71.5q0 -40 -29.5 -70t-82.5 -30q-50 0 -78.5 30.5t-28.5 69.5zM257 648q0 -15 10.5 -26.5t29.5 -11.5q21 0 32 11t11 27q0 17 -11 28.5t-32 11.5q-19 0 -29.5 -12t-10.5 -28z" />
    <glyph glyph-name="hungarumlaut.sc" horiz-adv-x="600" 
d="M190 726h115l-87 -163h-101zM368 726h115l-87 -163h-101z" />
    <glyph glyph-name="dotaccent.sc" horiz-adv-x="600" 
d="M300 567q-70 0 -70 67q0 34 19 51.5t51 17.5q29 0 49 -17.5t20 -51.5t-20 -50.5t-49 -16.5z" />
    <glyph glyph-name="exclamdown.sc" horiz-adv-x="236" 
d="M71 333h94l19 -333h-133zM118 511q31 0 51 -18t20 -46q0 -27 -20 -45.5t-51 -18.5q-30 0 -50 18.5t-20 45.5q0 28 20 46t50 18z" />
    <glyph glyph-name="questiondown.sc" horiz-adv-x="382" 
d="M204 511q31 0 51 -18t20 -46q0 -27 -20 -45.5t-51 -18.5q-30 0 -50.5 18.5t-20.5 45.5q0 28 20.5 46t50.5 18zM200 -8q-81 0 -126 39t-45 100q0 28 12.5 52t30 41l34.5 33t29.5 35.5t12.5 40.5h114q0 -31 -12.5 -57t-30.5 -43.5t-36 -33t-30.5 -31.5t-12.5 -32
q0 -20 14 -32.5t38 -12.5q28 0 41.5 12t13.5 26l108 -12q0 -53 -39 -89t-116 -36z" />
    <glyph glyph-name="Euro.sc" horiz-adv-x="475" 
d="M34 336h44q31 179 221 179q67 0 144 -28l-36 -96q-63 23 -111 23q-78 0 -97 -78h190l-24 -68h-172v-13q0 -14 1 -21h161l-24 -67h-126q11 -35 37.5 -55t62.5 -20q52 0 105 27l28 -98q-63 -29 -139 -29q-185 0 -220 175h-45v67h37v34h-37v68z" />
    <glyph glyph-name="cent.sc" horiz-adv-x="403" 
d="M38 171q0 77 42.5 128t130.5 51q9 0 23 -2l15 57l53 -11l-15 -57q54 -21 77 -67l-71 -54q-11 19 -29 31l-43 -165q48 0 73 44l70 -55q-39 -79 -153 -79q-3 0 -7 0.5t-7 0.5l-12 -48l-53 11l12 46q-54 18 -80 63.5t-26 105.5zM146 171q0 -48 23 -71l42 158q-65 -6 -65 -87
z" />
    <glyph glyph-name="sterling.sc" horiz-adv-x="475" 
d="M35 257h49v74q0 80 44 132t140 52q59 0 98.5 -19.5t81.5 -58.5l-72 -74q-51 49 -103 49q-73 0 -73 -80v-75h127v-67h-127v-100h207v-90h-323v190h-49v67z" />
    <glyph glyph-name="florin.sc" horiz-adv-x="326" 
d="M206 251v-309q0 -46 -32 -79t-88 -33q-50 0 -76 11v92q18 -6 47 -6q40 0 40 41v283h-67v91h67v71q0 47 32.5 79.5t93.5 32.5q45 0 69 -10v-91q-25 5 -48 5q-38 0 -38 -40v-47h74v-91h-74z" />
    <glyph glyph-name="yen.sc" horiz-adv-x="515" 
d="M49 235h126l-16 33h-110v68h72l-92 171h131l95 -201l98 201h131l-94 -171h75v-68h-114l-18 -33h132v-69h-152v-166h-117v166h-147v69z" />
    <glyph glyph-name="rupee.sc" horiz-adv-x="486" 
d="M45 507h406v-73h-100q22 -25 27 -57h73v-56h-74q-5 -42 -30.5 -72t-66.5 -43l128 -206h-137l-114 190h-112v93h82q66 0 90.5 8t28.5 30h-201v56h201q-5 21 -22 29t-62 8h-117v93z" />
    <glyph glyph-name="perthousand.sc" horiz-adv-x="998" 
d="M560 507l-325 -507h-87l323 507h89zM551 56q27 0 37 19t10 65q0 45 -10 64t-37 19q-26 0 -36.5 -19.5t-10.5 -63.5t10.5 -64t36.5 -20zM551 284q131 0 131 -144q0 -145 -131 -145q-130 0 -130 145q0 144 130 144zM159 284q27 0 37 19.5t10 63.5q0 45 -10 64.5t-37 19.5
q-26 0 -36.5 -19.5t-10.5 -64.5q0 -44 10.5 -63.5t36.5 -19.5zM159 512q130 0 130 -145q0 -144 -130 -144q-131 0 -131 144q0 68 32 106.5t99 38.5zM840 56q26 0 36.5 19.5t10.5 64.5q0 44 -10.5 63.5t-36.5 19.5q-27 0 -37 -19.5t-10 -63.5q0 -45 10 -64.5t37 -19.5z
M840 284q130 0 130 -144q0 -145 -130 -145q-132 0 -132 145q0 144 132 144z" />
    <glyph glyph-name="zero.tf" 
d="M280 98q64 0 89 58t25 182t-25 182t-89 58t-89.5 -58t-25.5 -182t25.5 -182t89.5 -58zM280 687q246 0 246 -349t-246 -349q-247 0 -247 349t247 349z" />
    <glyph glyph-name="one.tf" 
d="M72 0v108h166v439l-152 -60l-34 102l203 87h115v-568h141v-108h-439z" />
    <glyph glyph-name="two.tf" 
d="M275 687q99 0 159 -57.5t60 -148.5q0 -65 -35 -121.5t-101 -126.5l-120 -128h262v-105h-434v90l206 220q90 95 90 171q0 44 -22.5 70.5t-64.5 26.5q-90 0 -90 -110h-129q0 100 56 159.5t163 59.5z" />
    <glyph glyph-name="three.tf" 
d="M384 345q54 -12 90.5 -56.5t36.5 -107.5q0 -86 -65 -139t-172 -53q-115 0 -172.5 51.5t-57.5 137.5h129q0 -38 26.5 -59t74.5 -21q47 0 76 24.5t29 65.5q0 49 -33 76.5t-94 27.5h-65v105h65q116 0 116 94q0 40 -25 63.5t-69 23.5t-68 -21.5t-24 -56.5h-129
q0 82 55.5 134.5t165.5 52.5q104 0 165.5 -53t61.5 -137q0 -57 -33 -99t-84 -53z" />
    <glyph glyph-name="four.tf" 
d="M533 238v-105h-79v-133h-128v133h-309v93l302 450h135v-438h79zM151 238h175v268z" />
    <glyph glyph-name="five.tf" 
d="M510 217q0 -100 -62.5 -164t-175.5 -64t-170.5 53.5t-57.5 140.5h128q0 -39 26 -62t73 -23q53 0 79.5 32.5t26.5 87.5q0 50 -27 79.5t-78 29.5q-53 0 -95 -33l-102 16l43 366h364v-105h-260l-19 -159q46 24 96 24q90 0 150.5 -54.5t60.5 -164.5z" />
    <glyph glyph-name="six.tf" 
d="M172 260q0 -71 29 -116.5t85 -45.5q52 0 79.5 31.5t27.5 86.5q0 53 -27.5 83.5t-79.5 30.5q-39 0 -68.5 -20t-45.5 -50zM384 500q0 36 -24 57t-66 21q-63 0 -93 -54t-30 -147q22 22 62 39.5t87 17.5q95 0 150.5 -58.5t55.5 -157.5q0 -98 -62 -163.5t-178 -65.5
q-84 0 -140.5 43.5t-81.5 115t-25 166.5q0 172 62.5 272.5t192.5 100.5q108 0 163 -52t55 -135h-128z" />
    <glyph glyph-name="seven.tf" 
d="M118 0l242 571h-295v105h439v-90l-247 -586h-139z" />
    <glyph glyph-name="eight.tf" 
d="M281 -11q-113 0 -179.5 51.5t-66.5 144.5q0 63 34.5 105t89.5 57q-51 16 -81 54t-30 94q0 89 62 140.5t171 51.5t170.5 -51.5t61.5 -140.5q0 -56 -30 -94t-80 -54q54 -15 88.5 -56.5t34.5 -105.5q0 -93 -66 -144.5t-179 -51.5zM280 578q-46 0 -73 -23t-27 -66
q0 -44 28 -67t72 -23q45 0 73 23t28 67q0 43 -27 66t-74 23zM280 98q53 0 83.5 25t30.5 72q0 48 -31.5 73.5t-82.5 25.5q-50 0 -81.5 -25.5t-31.5 -73.5q0 -46 30.5 -71.5t82.5 -25.5z" />
    <glyph glyph-name="nine.tf" 
d="M388 415q0 72 -28.5 117.5t-84.5 45.5q-53 0 -80.5 -31.5t-27.5 -86.5q0 -53 28 -83.5t80 -30.5q74 0 113 69zM48 176h129q0 -36 23.5 -57t64.5 -21q124 0 124 202q-23 -23 -62.5 -40.5t-86.5 -17.5q-94 0 -150 58.5t-56 157.5q0 98 62.5 163.5t178.5 65.5q124 0 185 -89
t61 -236q0 -172 -62 -272.5t-194 -100.5q-108 0 -162.5 52.5t-54.5 134.5z" />
    <glyph glyph-name="zero.tosf" 
d="M280 102q63 0 90 47t27 138q0 92 -27 139t-90 47t-90 -47t-27 -139q0 -91 27 -138t90 -47zM280 586q123 0 185.5 -79.5t62.5 -219.5q0 -139 -62.5 -218.5t-185.5 -79.5q-124 0 -186 79t-62 219t62.5 219.5t185.5 79.5z" />
    <glyph glyph-name="one.tosf" 
d="M84 0v111h163v333l-149 -54l-34 97l201 88h108v-464h135v-111h-424z" />
    <glyph glyph-name="two.tosf" 
d="M494 0h-426v81l206 168q48 38 71.5 69.5t23.5 66.5q0 42 -24.5 68t-67.5 26q-48 0 -71 -27t-23 -72h-122q0 93 56.5 149.5t159.5 56.5q105 0 161.5 -57t56.5 -133q0 -64 -33.5 -112t-95.5 -93l-114 -94h242v-97z" />
    <glyph glyph-name="three.tosf" 
d="M384 244q54 -12 90.5 -56.5t36.5 -107.5q0 -86 -65 -139t-172 -53q-115 0 -172.5 51.5t-57.5 137.5h129q0 -38 26.5 -59t74.5 -21q47 0 76 24.5t29 65.5q0 49 -33 76.5t-94 27.5h-65v105h65q116 0 116 94q0 40 -25 63.5t-69 23.5t-68 -21.5t-24 -56.5h-129
q0 82 55.5 134.5t165.5 52.5q104 0 165.5 -53t61.5 -137q0 -57 -33 -99t-84 -53z" />
    <glyph glyph-name="four.tosf" 
d="M532 138v-105h-79v-133h-128v133h-309v93l302 450h135v-438h79zM150 138h175v268z" />
    <glyph glyph-name="five.tosf" 
d="M509 117q0 -100 -62.5 -164t-175.5 -64t-170.5 53.5t-57.5 140.5h128q0 -39 26 -62t73 -23q53 0 79.5 32.5t26.5 87.5q0 50 -27 79.5t-78 29.5q-53 0 -95 -33l-102 16l43 366h364v-105h-260l-19 -159q46 24 96 24q90 0 150.5 -54.5t60.5 -164.5z" />
    <glyph glyph-name="six.tosf" 
d="M172 260q0 -71 29 -116.5t85 -45.5q52 0 79.5 31.5t27.5 86.5q0 53 -27.5 83.5t-79.5 30.5q-39 0 -68.5 -20t-45.5 -50zM384 500q0 36 -24 57t-66 21q-63 0 -93 -54t-30 -147q22 22 62 39.5t87 17.5q95 0 150.5 -58.5t55.5 -157.5q0 -98 -62 -163.5t-178 -65.5
q-84 0 -140.5 43.5t-81.5 115t-25 166.5q0 172 62.5 272.5t192.5 100.5q108 0 163 -52t55 -135h-128z" />
    <glyph glyph-name="seven.tosf" 
d="M117 -100l242 571h-295v105h439v-90l-247 -586h-139z" />
    <glyph glyph-name="eight.tosf" 
d="M281 -11q-113 0 -179.5 51.5t-66.5 144.5q0 63 34.5 105t89.5 57q-51 16 -81 54t-30 94q0 89 62 140.5t171 51.5t170.5 -51.5t61.5 -140.5q0 -56 -30 -94t-80 -54q54 -15 88.5 -56.5t34.5 -105.5q0 -93 -66 -144.5t-179 -51.5zM280 578q-46 0 -73 -23t-27 -66
q0 -44 28 -67t72 -23q45 0 73 23t28 67q0 43 -27 66t-74 23zM280 98q53 0 83.5 25t30.5 72q0 48 -31.5 73.5t-82.5 25.5q-50 0 -81.5 -25.5t-31.5 -73.5q0 -46 30.5 -71.5t82.5 -25.5z" />
    <glyph glyph-name="nine.tosf" 
d="M387 314q0 72 -28.5 117.5t-84.5 45.5q-53 0 -80.5 -31.5t-27.5 -86.5q0 -53 28 -83.5t80 -30.5q74 0 113 69zM47 75h129q0 -36 23.5 -57t64.5 -21q124 0 124 202q-23 -23 -62.5 -40.5t-86.5 -17.5q-94 0 -150 58.5t-56 157.5q0 98 62.5 163.5t178.5 65.5q124 0 185 -89
t61 -236q0 -172 -62 -272.5t-194 -100.5q-108 0 -162.5 52.5t-54.5 134.5z" />
    <glyph glyph-name="Euro.tf" 
d="M31 442h55q38 244 267 244q87 0 177 -40l-40 -106q-72 33 -140 33q-108 0 -133 -131h243l-28 -79h-222v-23q0 -23 1 -33h203l-27 -79h-164q34 -126 136 -126q71 0 137 39l31 -110q-81 -42 -174 -42q-224 0 -266 239h-56v79h47v56h-47v79z" />
    <glyph glyph-name="cent.tf" 
d="M83 228q0 104 52 171t159 67q9 0 29 -2l18 76l61 -14l-19 -76q64 -25 94 -86l-85 -60q-17 28 -35 39l-60 -247h6q58 0 90 56l84 -61q-48 -102 -183 -102q-4 0 -11.5 0.5t-10.5 0.5l-15 -62l-60 14l14 60q-65 24 -96.5 84.5t-31.5 141.5zM206 228q0 -75 33 -109l58 240
q-91 -4 -91 -131z" />
    <glyph glyph-name="sterling.tf" 
d="M31 337h63v105q0 107 53 175.5t169 68.5q73 0 123 -25.5t95 -75.5l-79 -82q-61 68 -134 68q-102 0 -102 -128v-106h167v-79h-167v-156h267v-102h-393l1 258h-63v79z" />
    <glyph glyph-name="florin.tf" 
d="M338 352v-427q0 -64 -37 -107.5t-107 -43.5q-57 0 -85 12v104q25 -7 56 -7t43.5 16t12.5 49v404h-88v104h88v93q0 64 38 107.5t112 43.5q50 0 78 -12v-104q-32 7 -56 7q-29 0 -42 -14.5t-13 -48.5v-72h96v-104h-96z" />
    <glyph glyph-name="yen.tf" 
d="M34 307h159l-28 56h-131v79h89l-120 234h142l133 -287l135 287h143l-123 -234h93v-79h-136l-29 -56h165v-79h-186v-228h-126v228h-180v79z" />
    <glyph glyph-name="rupee.tf" 
d="M47 676l475 1v-79h-121q32 -35 37 -89h84v-80h-85q-9 -54 -49.5 -93t-100.5 -53l167 -283h-149l-152 268h-106v100h105q70 0 104.5 13.5t47.5 47.5h-256v80h257q-13 37 -44.5 51t-100.5 14h-113v102z" />
    <glyph glyph-name="dollar.tf" 
d="M325 -103h-74v93q-159 8 -217 123l90 74q40 -78 127 -85v183l-29 9q-159 50 -159 187q0 78 46.5 135t141.5 68v75h74v-74q126 -9 188 -99l-90 -72q-34 49 -98 59v-183l29 -8q166 -52 166 -186q0 -86 -53 -139t-142 -65v-95zM386 186q0 53 -61 77v-156q61 17 61 79z
M196 489q0 -53 55 -76v155q-55 -19 -55 -79z" />
    <glyph glyph-name="zero.osf" horiz-adv-x="600" 
d="M300 102q67 0 96.5 47t29.5 138q0 92 -29.5 139t-96.5 47t-96.5 -47.5t-29.5 -138.5q0 -185 126 -185zM300 586q128 0 192.5 -79.5t64.5 -219.5q0 -139 -65 -218.5t-192 -79.5q-128 0 -192.5 79t-64.5 219t65 219.5t192 79.5z" />
    <glyph glyph-name="one.osf" horiz-adv-x="392" 
d="M321 0h-126v454l-152 -60l-32 98l200 83h110v-575z" />
    <glyph glyph-name="two.osf" horiz-adv-x="522" 
d="M475 0h-426v81l206 168q48 38 71.5 69.5t23.5 66.5q0 42 -24.5 68t-67.5 26q-48 0 -71 -27t-23 -72h-122q0 93 56.5 149.5t159.5 56.5q105 0 161.5 -57t56.5 -133q0 -64 -33.5 -112t-95.5 -93l-114 -94h242v-97z" />
    <glyph glyph-name="three.osf" horiz-adv-x="546" 
d="M377 245q54 -12 90.5 -56.5t36.5 -107.5q0 -86 -65 -139t-172 -53q-115 0 -172.5 51.5t-57.5 137.5h129q0 -38 26.5 -59t74.5 -21q47 0 76 24.5t29 65.5q0 49 -33 76.5t-94 27.5h-65v105h65q116 0 116 94q0 40 -25 63.5t-69 23.5t-68 -21.5t-24 -56.5h-129
q0 82 55.5 134.5t165.5 52.5q104 0 165.5 -53t61.5 -137q0 -57 -33 -99t-84 -53z" />
    <glyph glyph-name="four.osf" horiz-adv-x="575" 
d="M540 138v-105h-79v-133h-128v133h-309v93l302 450h135v-438h79zM158 138h175v268z" />
    <glyph glyph-name="five.osf" horiz-adv-x="533" 
d="M495 117q0 -100 -62.5 -164t-175.5 -64t-170.5 53.5t-57.5 140.5h128q0 -39 26 -62t73 -23q53 0 79.5 32.5t26.5 87.5q0 50 -27 79.5t-78 29.5q-53 0 -95 -33l-102 16l43 366h364v-105h-260l-19 -159q46 24 96 24q90 0 150.5 -54.5t60.5 -164.5z" />
    <glyph glyph-name="six.osf" horiz-adv-x="568" 
d="M176 260q0 -71 29 -116.5t85 -45.5q52 0 79.5 31.5t27.5 86.5q0 53 -27.5 83.5t-79.5 30.5q-39 0 -68.5 -20t-45.5 -50zM388 500q0 36 -24 57t-66 21q-63 0 -93 -54t-30 -147q22 22 62 39.5t87 17.5q95 0 150.5 -58.5t55.5 -157.5q0 -98 -62 -163.5t-178 -65.5
q-84 0 -140.5 43.5t-81.5 115t-25 166.5q0 172 62.5 272.5t192.5 100.5q108 0 163 -52t55 -135h-128z" />
    <glyph glyph-name="seven.osf" horiz-adv-x="497" 
d="M86 -100l242 571h-295v105h439v-90l-247 -586h-139z" />
    <glyph glyph-name="eight.osf" horiz-adv-x="577" 
d="M289 -11q-113 0 -179.5 51.5t-66.5 144.5q0 63 34.5 105t89.5 57q-51 16 -81 54t-30 94q0 89 62 140.5t171 51.5t170.5 -51.5t61.5 -140.5q0 -56 -30 -94t-80 -54q54 -15 88.5 -56.5t34.5 -105.5q0 -93 -66 -144.5t-179 -51.5zM288 578q-46 0 -73 -23t-27 -66
q0 -44 28 -67t72 -23q45 0 73 23t28 67q0 43 -27 66t-74 23zM288 98q53 0 83.5 25t30.5 72q0 48 -31.5 73.5t-82.5 25.5q-50 0 -81.5 -25.5t-31.5 -73.5q0 -46 30.5 -71.5t82.5 -25.5z" />
    <glyph glyph-name="nine.osf" horiz-adv-x="567" 
d="M391 314q0 72 -28.5 117.5t-84.5 45.5q-53 0 -80.5 -31.5t-27.5 -86.5q0 -53 28 -83.5t80 -30.5q74 0 113 69zM51 75h129q0 -36 23.5 -57t64.5 -21q124 0 124 202q-23 -23 -62.5 -40.5t-86.5 -17.5q-94 0 -150 58.5t-56 157.5q0 98 62.5 163.5t178.5 65.5q124 0 185 -89
t61 -236q0 -172 -62 -272.5t-194 -100.5q-108 0 -162.5 52.5t-54.5 134.5z" />
    <glyph glyph-name="zero.denom" horiz-adv-x="369" 
d="M185 65q36 0 50 28t14 89q0 62 -14 90t-50 28q-35 0 -49.5 -28t-14.5 -90q0 -61 14.5 -89t49.5 -28zM185 371q156 0 156 -189q0 -188 -156 -188t-156 188q0 189 156 189z" />
    <glyph glyph-name="one.denom" horiz-adv-x="254" 
d="M209 0h-90v285l-97 -35l-21 65l131 50h77v-365z" />
    <glyph glyph-name="two.denom" horiz-adv-x="323" 
d="M158 371q60 0 97 -32t37 -83q0 -34 -21.5 -65t-60.5 -69l-59 -54h142v-68h-260v58l118 115q49 46 49 83q0 20 -11 32t-31 12q-45 0 -45 -53h-89q0 57 34 90.5t100 33.5z" />
    <glyph glyph-name="three.denom" horiz-adv-x="334" 
d="M235 185q31 -8 51 -31.5t20 -54.5q0 -47 -39.5 -76t-104.5 -29q-70 0 -104 28.5t-34 77.5h89q0 -35 49 -35q23 0 37.5 10t14.5 29q0 47 -66 47h-39v68h39q60 0 60 43q0 18 -12.5 28t-33.5 10q-20 0 -32 -9t-12 -24h-89q0 46 33.5 75t99.5 29q63 0 100.5 -29t37.5 -75
q0 -29 -18 -51.5t-47 -30.5z" />
    <glyph glyph-name="four.denom" horiz-adv-x="346" 
d="M322 135v-68h-41v-67h-88v67h-178v59l172 239h94v-230h41zM107 135h86v120z" />
    <glyph glyph-name="five.denom" horiz-adv-x="326" 
d="M302 117q0 -55 -38 -89t-107 -34q-68 0 -102.5 28.5t-34.5 77.5h89q0 -35 48 -35q53 0 53 52q0 22 -14 36t-39 14q-29 0 -49 -16l-70 12l26 202h220v-68h-148l-9 -69q22 9 50 9q53 0 89 -29t36 -91z" />
    <glyph glyph-name="six.denom" horiz-adv-x="350" 
d="M120 139q0 -74 58 -74q53 0 53 52q0 24 -13.5 38t-39.5 14q-38 0 -58 -30zM184 300q-63 0 -63 -87q33 22 82 22q55 0 87.5 -31.5t32.5 -85.5q0 -53 -37.5 -88.5t-107.5 -35.5q-76 0 -113 48t-37 126q0 93 37.5 148t118.5 55q67 0 99 -29t32 -75h-89q0 33 -42 33z" />
    <glyph glyph-name="seven.denom" horiz-adv-x="296" 
d="M42 0l141 297h-166v68h267v-59l-146 -306h-96z" />
    <glyph glyph-name="eight.denom" horiz-adv-x="354" 
d="M177 -6q-69 0 -109 28t-40 78q0 66 69 87q-62 20 -62 79q0 49 37.5 77t104.5 28t104 -28t37 -77q0 -59 -61 -79q69 -21 69 -87q0 -50 -40 -78t-109 -28zM177 152q-26 0 -41.5 -12t-15.5 -33q0 -19 17 -30.5t41 -11.5q23 0 39 11.5t16 30.5q0 21 -15 33t-41 12zM177 300
q-49 0 -49 -39q0 -41 49 -41t49 41q0 39 -49 39z" />
    <glyph glyph-name="nine.denom" horiz-adv-x="350" 
d="M229 226q0 74 -56 74q-54 0 -54 -52q0 -24 14 -38t40 -14q36 0 56 30zM34 98h90q0 -33 41 -33q65 0 65 87q-31 -23 -83 -23q-55 0 -87.5 31.5t-32.5 86.5q0 53 38 88.5t108 35.5q75 0 111.5 -48.5t36.5 -126.5q0 -202 -156 -202q-66 0 -98.5 29t-32.5 75z" />
    <glyph glyph-name="zero.num" horiz-adv-x="371" 
d="M185 376q36 0 50 28t14 89q0 62 -14 90t-50 28q-35 0 -49.5 -28t-14.5 -90q0 -61 14.5 -89t49.5 -28zM185 682q156 0 156 -189q0 -188 -156 -188t-156 188q0 189 156 189z" />
    <glyph glyph-name="one.num" horiz-adv-x="256" 
d="M210 311h-90v285l-97 -35l-21 65l131 50h77v-365z" />
    <glyph glyph-name="two.num" horiz-adv-x="325" 
d="M159 682q60 0 97 -32t37 -83q0 -34 -21.5 -65t-60.5 -69l-59 -54h142v-68h-260v58l118 115q49 46 49 83q0 20 -11 32t-31 12q-45 0 -45 -53h-89q0 57 34 90.5t100 33.5z" />
    <glyph glyph-name="three.num" horiz-adv-x="336" 
d="M236 496q31 -8 51 -31.5t20 -54.5q0 -47 -39.5 -76t-104.5 -29q-70 0 -104 28.5t-34 77.5h89q0 -35 49 -35q23 0 37.5 10t14.5 29q0 47 -66 47h-39v68h39q60 0 60 43q0 18 -12.5 28t-33.5 10q-20 0 -32 -9t-12 -24h-89q0 46 33.5 75t99.5 29q63 0 100.5 -29t37.5 -75
q0 -29 -18 -51.5t-47 -30.5z" />
    <glyph glyph-name="four.num" horiz-adv-x="347" 
d="M323 446v-68h-41v-67h-88v67h-178v59l172 239h94v-230h41zM108 446h86v120z" />
    <glyph glyph-name="five.num" horiz-adv-x="328" 
d="M303 428q0 -55 -38 -89t-107 -34q-68 0 -102.5 28.5t-34.5 77.5h89q0 -35 48 -35q53 0 53 52q0 22 -14 36t-39 14q-29 0 -49 -16l-70 12l26 202h220v-68h-148l-9 -69q22 9 50 9q53 0 89 -29t36 -91z" />
    <glyph glyph-name="six.num" horiz-adv-x="351" 
d="M121 450q0 -74 58 -74q53 0 53 52q0 24 -13.5 38t-39.5 14q-38 0 -58 -30zM185 611q-63 0 -63 -87q33 22 82 22q55 0 87.5 -31.5t32.5 -85.5q0 -53 -37.5 -88.5t-107.5 -35.5q-76 0 -113 48t-37 126q0 93 37.5 148t118.5 55q67 0 99 -29t32 -75h-89q0 33 -42 33z" />
    <glyph glyph-name="seven.num" horiz-adv-x="297" 
d="M43 311l141 297h-166v68h267v-59l-146 -306h-96z" />
    <glyph glyph-name="eight.num" horiz-adv-x="356" 
d="M178 305q-69 0 -109 28t-40 78q0 66 69 87q-62 20 -62 79q0 49 37.5 77t104.5 28t104 -28t37 -77q0 -59 -61 -79q69 -21 69 -87q0 -50 -40 -78t-109 -28zM178 463q-26 0 -41.5 -12t-15.5 -33q0 -19 17 -30.5t41 -11.5q23 0 39 11.5t16 30.5q0 21 -15 33t-41 12zM178 611
q-49 0 -49 -39q0 -41 49 -41t49 41q0 39 -49 39z" />
    <glyph glyph-name="nine.num" horiz-adv-x="351" 
d="M230 537q0 74 -56 74q-54 0 -54 -52q0 -24 14 -38t40 -14q36 0 56 30zM35 409h90q0 -33 41 -33q65 0 65 87q-31 -23 -83 -23q-55 0 -87.5 31.5t-32.5 86.5q0 53 38 88.5t108 35.5q75 0 111.5 -48.5t36.5 -126.5q0 -202 -156 -202q-66 0 -98.5 29t-32.5 75z" />
    <glyph glyph-name="parenleft.case" horiz-adv-x="302" 
d="M278 -86l-91 -36q-147 214 -147 463q0 136 37 242t110 221l93 -36q-113 -229 -113 -427q0 -115 26.5 -215.5t84.5 -211.5z" />
    <glyph glyph-name="parenright.case" horiz-adv-x="302" 
d="M25 -86q57 111 83.5 211t26.5 216q0 200 -112 427l91 36q73 -115 110.5 -221t37.5 -242q0 -250 -148 -463z" />
    <glyph glyph-name="hyphen.case" horiz-adv-x="397" 
d="M54 382h288v-103h-288v103z" />
    <glyph glyph-name="bracketleft.case" horiz-adv-x="342" 
d="M59 790h248v-102h-121v-702h121v-102h-248v906z" />
    <glyph glyph-name="bracketright.case" horiz-adv-x="342" 
d="M35 790h248v-906h-248v102h121v702h-121v102z" />
    <glyph glyph-name="braceleft.case" horiz-adv-x="336" 
d="M239 648v-193q0 -106 -85 -118q85 -10 85 -116v-195q0 -28 13.5 -39t42.5 -11v-92q-96 0 -139 32t-43 110v183q0 82 -94 82v92q47 0 70.5 19t23.5 66v180q0 77 43.5 109.5t138.5 32.5v-92q-29 0 -42.5 -11t-13.5 -39z" />
    <glyph glyph-name="bar.case" horiz-adv-x="199" 
d="M139 -116h-80v906h80v-906z" />
    <glyph glyph-name="braceright.case" horiz-adv-x="336" 
d="M97 455v193q0 28 -13.5 39t-42.5 11v92q95 0 138.5 -32.5t43.5 -109.5v-180q0 -47 23.5 -66t70.5 -19v-92q-94 0 -94 -82v-183q0 -78 -43 -110t-139 -32v92q29 0 42.5 11t13.5 39v195q0 106 85 116q-85 12 -85 118z" />
    <glyph glyph-name="guilsinglleft.case" horiz-adv-x="355" 
d="M29 330l199 230l77 -54l-133 -177l133 -177l-77 -53z" />
    <glyph glyph-name="guilsinglright.case" horiz-adv-x="354" 
d="M126 560l199 -230l-199 -231l-78 53l133 177l-132 177z" />
    <glyph glyph-name="guillemotleft.case" horiz-adv-x="574" 
d="M29 330l199 230l77 -54l-133 -177l133 -177l-77 -53zM248 330l199 230l77 -54l-133 -177l133 -177l-77 -53z" />
    <glyph glyph-name="guillemotright.case" horiz-adv-x="574" 
d="M345 560l199 -230l-199 -231l-78 53l133 177l-132 177zM126 560l199 -230l-199 -231l-78 53l133 177l-132 177z" />
    <glyph glyph-name="endash.case" horiz-adv-x="598" 
d="M54 382h488v-103h-488v103z" />
    <glyph glyph-name="emdash.case" horiz-adv-x="738" 
d="M54 382h628v-103h-628v103z" />
    <glyph glyph-name="bullet.case" horiz-adv-x="399" 
d="M200 197q-61 0 -100 37.5t-39 94.5t39 94.5t100 37.5q60 0 99.5 -37.5t39.5 -94.5t-39.5 -94.5t-99.5 -37.5z" />
    <glyph glyph-name="periodcentered.case" horiz-adv-x="263" 
d="M133 293q-37 0 -61.5 23t-24.5 57q0 36 24.5 59.5t61.5 23.5q36 0 60 -23.5t24 -59.5q0 -34 -24.5 -57t-59.5 -23z" />
    <glyph glyph-name="a.alt" horiz-adv-x="519" 
d="M350 419v37h115v-456h-115v37q-49 -47 -126 -47q-90 0 -139 62.5t-49 176.5q0 113 49 175t140 62q75 0 125 -47zM159 229q0 -128 99 -128q55 0 86 31v192q-33 31 -86 31q-99 0 -99 -126z" />
    <glyph glyph-name="agrave.alt" horiz-adv-x="519" 
d="M350 419v37h115v-456h-115v37q-49 -47 -126 -47q-90 0 -139 62.5t-49 176.5q0 113 49 175t140 62q75 0 125 -47zM159 229q0 -128 99 -128q55 0 86 31v192q-33 31 -86 31q-99 0 -99 -126zM135 696h123l73 -165h-109z" />
    <glyph glyph-name="aacute.alt" horiz-adv-x="519" 
d="M350 419v37h115v-456h-115v37q-49 -47 -126 -47q-90 0 -139 62.5t-49 176.5q0 113 49 175t140 62q75 0 125 -47zM159 229q0 -128 99 -128q55 0 86 31v192q-33 31 -86 31q-99 0 -99 -126zM279 696h123l-87 -165h-109z" />
    <glyph glyph-name="acircumflex.alt" horiz-adv-x="519" 
d="M350 419v37h115v-456h-115v37q-49 -47 -126 -47q-90 0 -139 62.5t-49 176.5q0 113 49 175t140 62q75 0 125 -47zM159 229q0 -128 99 -128q55 0 86 31v192q-33 31 -86 31q-99 0 -99 -126zM206 696h120l101 -165h-108l-53 89l-53 -89h-108z" />
    <glyph glyph-name="atilde.alt" horiz-adv-x="519" 
d="M350 419v37h115v-456h-115v37q-49 -47 -126 -47q-90 0 -139 62.5t-49 176.5q0 113 49 175t140 62q75 0 125 -47zM159 229q0 -128 99 -128q55 0 86 31v192q-33 31 -86 31q-99 0 -99 -126zM416 653l-2 -90q-40 26 -74 26q-26 0 -74.5 -21t-79.5 -21q-41 0 -70 22l2 89
q25 -24 68 -24q24 0 70.5 20t83.5 20q40 0 76 -21z" />
    <glyph glyph-name="adieresis.alt" horiz-adv-x="519" 
d="M350 419v37h115v-456h-115v37q-49 -47 -126 -47q-90 0 -139 62.5t-49 176.5q0 113 49 175t140 62q75 0 125 -47zM159 229q0 -128 99 -128q55 0 86 31v192q-33 31 -86 31q-99 0 -99 -126zM168 532q-72 0 -72 70q0 36 19.5 54t52.5 18q30 0 51.5 -18.5t21.5 -53.5
q0 -36 -21 -53t-52 -17zM365 532q-73 0 -73 70q0 36 20 54t53 18q30 0 51 -18.5t21 -53.5q0 -36 -20.5 -53t-51.5 -17z" />
    <glyph glyph-name="amacron.alt" horiz-adv-x="519" 
d="M350 419v37h115v-456h-115v37q-49 -47 -126 -47q-90 0 -139 62.5t-49 176.5q0 113 49 175t140 62q75 0 125 -47zM159 229q0 -128 99 -128q55 0 86 31v192q-33 31 -86 31q-99 0 -99 -126zM117 653h299v-97h-299v97z" />
    <glyph glyph-name="abreve.alt" horiz-adv-x="519" 
d="M350 419v37h115v-456h-115v37q-49 -47 -126 -47q-90 0 -139 62.5t-49 176.5q0 113 49 175t140 62q75 0 125 -47zM159 229q0 -128 99 -128q55 0 86 31v192q-33 31 -86 31q-99 0 -99 -126zM341 688h79q0 -67 -40.5 -109.5t-115.5 -42.5q-72 0 -111.5 43t-39.5 109h77
q5 -29 25.5 -47t48.5 -18q31 0 51.5 18t25.5 47z" />
    <glyph glyph-name="aring.alt" horiz-adv-x="519" 
d="M157 619q0 42 28 71.5t79 29.5q54 0 83 -29t29 -72q0 -39 -29.5 -69t-82.5 -30q-50 0 -78.5 30t-28.5 69zM224 619q0 -15 11 -26.5t29 -11.5q21 0 32 11t11 27q0 17 -11 28.5t-32 11.5q-18 0 -29 -12t-11 -28zM350 419v37h115v-456h-115v37q-49 -47 -126 -47
q-90 0 -139 62.5t-49 176.5q0 113 49 175t140 62q75 0 125 -47zM159 229q0 -128 99 -128q55 0 86 31v192q-33 31 -86 31q-99 0 -99 -126z" />
    <glyph glyph-name="aringacute.alt" horiz-adv-x="519" 
d="M157 609q0 35 21 62t59 35l38 77h117l-63 -89q48 -27 48 -85q0 -40 -29.5 -69.5t-82.5 -29.5q-51 0 -79.5 29.5t-28.5 69.5zM225 609q0 -16 10.5 -27t29.5 -11q21 0 32 11t11 27t-11 28t-32 12q-19 0 -29.5 -12t-10.5 -28zM350 419v37h115v-456h-115v37q-49 -47 -126 -47
q-90 0 -139 62.5t-49 176.5q0 113 49 175t140 62q75 0 125 -47zM159 229q0 -128 99 -128q55 0 86 31v192q-33 31 -86 31q-99 0 -99 -126z" />
    <glyph glyph-name="g.alt" horiz-adv-x="496" 
d="M473 460v-91h-73q34 -31 34 -81q0 -74 -50 -113t-140 -39q-41 0 -66 5q-7 -14 -7 -28q0 -28 45 -28h76q172 0 172 -133q0 -74 -62 -120.5t-173 -46.5q-103 0 -155.5 33t-52.5 84q0 35 24.5 64t51.5 35q-16 7 -26 26t-10 39q0 55 49 93q-74 43 -74 136q0 79 53.5 125
t155.5 46q44 0 103 -16zM241 221q46 0 65.5 18t19.5 54q0 72 -85 72q-91 0 -91 -72q0 -36 21 -54t70 -18zM161 -13q-29 -20 -29 -52q0 -60 98 -60q113 0 113 62q0 21 -13.5 35.5t-44.5 14.5h-124z" />
    <glyph glyph-name="gcircumflex.alt" horiz-adv-x="496" 
d="M473 460v-91h-73q34 -31 34 -81q0 -74 -50 -113t-140 -39q-41 0 -66 5q-7 -14 -7 -28q0 -28 45 -28h76q172 0 172 -133q0 -74 -62 -120.5t-173 -46.5q-103 0 -155.5 33t-52.5 84q0 35 24.5 64t51.5 35q-16 7 -26 26t-10 39q0 55 49 93q-74 43 -74 136q0 79 53.5 125
t155.5 46q44 0 103 -16zM241 221q46 0 65.5 18t19.5 54q0 72 -85 72q-91 0 -91 -72q0 -36 21 -54t70 -18zM161 -13q-29 -20 -29 -52q0 -60 98 -60q113 0 113 62q0 21 -13.5 35.5t-44.5 14.5h-124zM187 696h120l101 -165h-108l-53 89l-53 -89h-108z" />
    <glyph glyph-name="gbreve.alt" horiz-adv-x="496" 
d="M315 688h79q0 -67 -40.5 -109.5t-115.5 -42.5q-72 0 -111.5 43t-39.5 109h77q5 -29 25.5 -47t48.5 -18q31 0 51.5 18t25.5 47zM473 460v-91h-73q34 -31 34 -81q0 -74 -50 -113t-140 -39q-41 0 -66 5q-7 -14 -7 -28q0 -28 45 -28h76q172 0 172 -133q0 -74 -62 -120.5
t-173 -46.5q-103 0 -155.5 33t-52.5 84q0 35 24.5 64t51.5 35q-16 7 -26 26t-10 39q0 55 49 93q-74 43 -74 136q0 79 53.5 125t155.5 46q44 0 103 -16zM241 221q46 0 65.5 18t19.5 54q0 72 -85 72q-91 0 -91 -72q0 -36 21 -54t70 -18zM161 -13q-29 -20 -29 -52q0 -60 98 -60
q113 0 113 62q0 21 -13.5 35.5t-44.5 14.5h-124z" />
    <glyph glyph-name="gdotaccent.alt" horiz-adv-x="496" 
d="M242 532q-73 0 -73 70q0 36 20 54t53 18q30 0 51.5 -18.5t21.5 -53.5q0 -36 -21 -53t-52 -17zM473 460v-91h-73q34 -31 34 -81q0 -74 -50 -113t-140 -39q-41 0 -66 5q-7 -14 -7 -28q0 -28 45 -28h76q172 0 172 -133q0 -74 -62 -120.5t-173 -46.5q-103 0 -155.5 33
t-52.5 84q0 35 24.5 64t51.5 35q-16 7 -26 26t-10 39q0 55 49 93q-74 43 -74 136q0 79 53.5 125t155.5 46q44 0 103 -16zM241 221q46 0 65.5 18t19.5 54q0 72 -85 72q-91 0 -91 -72q0 -36 21 -54t70 -18zM161 -13q-29 -20 -29 -52q0 -60 98 -60q113 0 113 62
q0 21 -13.5 35.5t-44.5 14.5h-124z" />
    <glyph glyph-name="brokenbar.sc" horiz-adv-x="197" 
d="M132 290h-67v292h67v-292zM65 188h67v-290h-67v290z" />
    <glyph glyph-name="gcommaaccent.alt" horiz-adv-x="496" 
d="M473 460v-91h-73q34 -31 34 -81q0 -74 -50 -113t-140 -39q-41 0 -66 5q-7 -14 -7 -28q0 -28 45 -28h76q172 0 172 -133q0 -74 -62 -120.5t-173 -46.5q-103 0 -155.5 33t-52.5 84q0 35 24.5 64t51.5 35q-16 7 -26 26t-10 39q0 55 49 93q-74 43 -74 136q0 79 53.5 125
t155.5 46q44 0 103 -16zM241 221q46 0 65.5 18t19.5 54q0 72 -85 72q-91 0 -91 -72q0 -36 21 -54t70 -18zM161 -13q-29 -20 -29 -52q0 -60 98 -60q113 0 113 62q0 21 -13.5 35.5t-44.5 14.5h-124zM176 554l66 181h94l-26 -181h-134z" />
    <glyph glyph-name="aogonek.alt" horiz-adv-x="519" 
d="M466 0l-69 -50q-31 -23 -31 -43q0 -13 9 -21t23 -8q31 0 68 27v-98q-50 -23 -103 -23q-56 0 -88 25t-32 71q0 56 63 107l44 35v15q-49 -47 -126 -47q-90 0 -139 62.5t-49 176.5q0 113 49 175t140 62q75 0 125 -47v37h115v-456h1zM159 229q0 -128 99 -128q55 0 86 31v192
q-33 31 -86 31q-99 0 -99 -126z" />
    </font>
</defs>
</svg>
